<svg width="336" height="363" viewBox="0 0 336 363" fill="none" xmlns="http://www.w3.org/2000/svg">
<mask id="mask0" mask-type="alpha" maskUnits="userSpaceOnUse" x="0" y="0" width="336" height="363">
<rect width="336" height="363" fill="#C4C4C4"/>
</mask>
<g mask="url(#mask0)">
<g filter="url(#filter0_d)">
<path d="M124.301 346.656C125.841 346.656 127.227 346.942 128.459 347.514L127.821 350.198L127.535 350.242C126.816 349.831 126.171 349.538 125.599 349.362C125.042 349.171 124.44 349.076 123.795 349.076C122.49 349.076 121.536 349.465 120.935 350.242C120.334 351.019 120.033 352.295 120.033 354.07C120.033 355.243 120.158 356.175 120.407 356.864C120.671 357.553 121.074 358.059 121.617 358.382C122.16 358.69 122.878 358.844 123.773 358.844C124.081 358.844 124.367 358.822 124.631 358.778C124.91 358.734 125.247 358.653 125.643 358.536L125.687 357.326L125.643 355.082L128.393 354.884L128.327 356.864L128.393 360.318C126.633 360.905 125.012 361.198 123.531 361.198C121.331 361.198 119.674 360.597 118.559 359.394C117.459 358.191 116.909 356.468 116.909 354.224C116.909 351.775 117.547 349.905 118.823 348.614C120.114 347.309 121.94 346.656 124.301 346.656ZM136.008 350.748C136.14 350.748 136.323 350.763 136.558 350.792V353.498L136.25 353.608C136 353.505 135.729 353.454 135.436 353.454C134.585 353.454 133.815 354.004 133.126 355.104V356.49L133.28 361H130.354L130.53 356.776L130.398 350.968L133.17 350.726L133.148 352.728H133.324C134.042 351.408 134.937 350.748 136.008 350.748ZM141.813 350.572C142.943 350.572 143.823 350.829 144.453 351.342C145.099 351.841 145.421 352.545 145.421 353.454C145.421 353.718 145.377 354.554 145.289 355.962C145.275 356.373 145.253 356.798 145.223 357.238C145.194 357.663 145.179 358.03 145.179 358.338C145.179 358.587 145.216 358.763 145.289 358.866C145.363 358.954 145.495 358.998 145.685 358.998C145.832 358.998 146.023 358.969 146.257 358.91L146.477 359.086L146.213 360.626C145.744 360.934 145.209 361.117 144.607 361.176C144.167 361.132 143.801 360.978 143.507 360.714C143.214 360.435 143.016 360.054 142.913 359.57H142.759C142.026 360.347 141.271 360.89 140.493 361.198C139.437 361.183 138.609 360.905 138.007 360.362C137.406 359.819 137.105 359.079 137.105 358.14C137.105 357.407 137.289 356.835 137.655 356.424C138.037 355.999 138.609 355.713 139.371 355.566L142.737 354.928V354.026C142.737 353.073 142.268 352.596 141.329 352.596C140.875 352.596 140.391 352.699 139.877 352.904C139.379 353.109 138.814 353.432 138.183 353.872L137.963 353.74L137.633 351.804C138.264 351.408 138.939 351.107 139.657 350.902C140.376 350.682 141.095 350.572 141.813 350.572ZM140.383 356.908C140.149 356.967 139.973 357.069 139.855 357.216C139.753 357.348 139.701 357.553 139.701 357.832C139.701 358.213 139.804 358.514 140.009 358.734C140.215 358.939 140.501 359.042 140.867 359.042C141.439 359.042 142.041 358.705 142.671 358.03L142.715 356.402L140.383 356.908ZM148.577 356.776L148.467 350.968L151.349 350.726L151.217 356.49L151.349 361H148.423L148.577 356.776ZM149.963 345.754C150.418 345.754 150.77 345.886 151.019 346.15C151.283 346.414 151.415 346.781 151.415 347.25C151.415 347.749 151.276 348.145 150.997 348.438C150.718 348.731 150.337 348.878 149.853 348.878C149.369 348.878 148.995 348.746 148.731 348.482C148.482 348.218 148.357 347.844 148.357 347.36C148.357 346.876 148.496 346.487 148.775 346.194C149.068 345.901 149.464 345.754 149.963 345.754ZM160.407 354.62C160.422 354.107 160.305 353.711 160.055 353.432C159.821 353.139 159.476 352.992 159.021 352.992C158.361 352.992 157.657 353.307 156.909 353.938V356.49L157.041 361H154.115L154.269 356.776L154.159 350.968L156.931 350.726V352.222H157.085C157.892 351.489 158.772 350.961 159.725 350.638C160.84 350.638 161.691 350.895 162.277 351.408C162.864 351.907 163.143 352.633 163.113 353.586L163.047 356.512L163.179 361H160.231L160.407 354.62ZM177.626 356.49L177.692 358.338C177.692 358.587 177.721 358.763 177.78 358.866C177.853 358.954 177.978 358.998 178.154 358.998C178.315 358.998 178.513 358.969 178.748 358.91L178.946 359.086L178.704 360.626C178.205 360.934 177.663 361.117 177.076 361.176C176.621 361.132 176.24 360.978 175.932 360.714C175.624 360.45 175.411 360.091 175.294 359.636H175.118C174.399 360.296 173.666 360.802 172.918 361.154C171.481 361.154 170.366 360.699 169.574 359.79C168.782 358.866 168.386 357.59 168.386 355.962C168.386 354.231 168.841 352.904 169.75 351.98C170.659 351.056 171.921 350.594 173.534 350.594C173.959 350.594 174.429 350.638 174.942 350.726L174.898 345.776L177.802 345.556L177.626 356.49ZM173.336 352.574C171.869 352.574 171.136 353.505 171.136 355.368C171.136 356.527 171.312 357.399 171.664 357.986C172.016 358.573 172.529 358.866 173.204 358.866C173.849 358.866 174.443 358.565 174.986 357.964L175.03 356.754L174.964 352.97C174.392 352.706 173.849 352.574 173.336 352.574ZM188.59 356.248L182.65 356.292C182.782 358.125 183.713 359.042 185.444 359.042C186.353 359.042 187.365 358.785 188.48 358.272L188.722 358.426L188.282 360.604C187.167 361.015 186.119 361.22 185.136 361.22C183.523 361.22 182.254 360.751 181.33 359.812C180.421 358.873 179.966 357.575 179.966 355.918C179.966 354.275 180.413 352.977 181.308 352.024C182.203 351.056 183.413 350.572 184.938 350.572C186.243 350.572 187.248 350.931 187.952 351.65C188.671 352.354 189.03 353.344 189.03 354.62C189.03 354.957 188.993 355.383 188.92 355.896L188.59 356.248ZM186.478 354.29C186.478 353.703 186.346 353.263 186.082 352.97C185.818 352.662 185.429 352.508 184.916 352.508C184.344 352.508 183.867 352.699 183.486 353.08C183.105 353.447 182.848 353.982 182.716 354.686L186.434 354.598L186.478 354.29ZM199.899 350.638C201.19 350.638 202.172 351.078 202.847 351.958C203.536 352.823 203.881 354.033 203.881 355.588C203.881 357.392 203.434 358.785 202.539 359.768C201.644 360.736 200.405 361.22 198.821 361.22C198.073 361.22 197.252 361.051 196.357 360.714L194.817 361.264L194.465 360.978L194.619 356.798L194.487 345.776L197.391 345.556L197.303 352.222H197.435C197.846 351.826 198.242 351.511 198.623 351.276C199.004 351.027 199.43 350.814 199.899 350.638ZM198.821 359.306C199.554 359.306 200.126 359.042 200.537 358.514C200.948 357.986 201.153 357.179 201.153 356.094C201.153 355.082 200.984 354.312 200.647 353.784C200.324 353.256 199.833 352.992 199.173 352.992C198.572 352.992 197.941 353.3 197.281 353.916L197.237 356.424L197.281 358.91C197.824 359.174 198.337 359.306 198.821 359.306ZM208.753 356.49L208.907 361H205.981L206.135 356.754L206.003 345.776L208.929 345.556L208.753 356.49ZM219.592 356.248L213.652 356.292C213.784 358.125 214.715 359.042 216.446 359.042C217.355 359.042 218.367 358.785 219.482 358.272L219.724 358.426L219.284 360.604C218.169 361.015 217.121 361.22 216.138 361.22C214.525 361.22 213.256 360.751 212.332 359.812C211.423 358.873 210.968 357.575 210.968 355.918C210.968 354.275 211.415 352.977 212.31 352.024C213.205 351.056 214.415 350.572 215.94 350.572C217.245 350.572 218.25 350.931 218.954 351.65C219.673 352.354 220.032 353.344 220.032 354.62C220.032 354.957 219.995 355.383 219.922 355.896L219.592 356.248ZM217.48 354.29C217.48 353.703 217.348 353.263 217.084 352.97C216.82 352.662 216.431 352.508 215.918 352.508C215.346 352.508 214.869 352.699 214.488 353.08C214.107 353.447 213.85 353.982 213.718 354.686L217.436 354.598L217.48 354.29ZM217.854 345.116L218.91 346.7L218.866 346.986C218.543 347.191 218.301 347.338 218.14 347.426C216.307 348.555 215.119 349.274 214.576 349.582L214.29 349.56L213.586 348.46C215.287 347.096 216.615 345.974 217.568 345.094L217.854 345.116Z" fill="#423FE1"/>
</g>
<g filter="url(#filter1_d)">
<path d="M111.991 124.342C110.292 123.493 107.391 123.988 106.152 124.342C77.488 134.162 71.1182 150.087 65.2793 159.376C59.4403 168.665 54.9284 192.5 54.9284 203.699C54.9284 215.664 54.9284 228 53.3359 234.486C51.4912 242 44.5775 264.477 53.3359 288.364C62.0944 312.251 78.8151 324.725 82.2654 324.725C85.7157 324.725 88.6351 323.929 91.2892 324.725C93.9433 325.521 92.6163 327.644 105.621 325.256C127.385 309.597 133.489 300.573 141.982 290.487C148.776 282.419 149.59 273.678 149.148 270.316C148.44 267.397 147.449 261.133 149.148 259.435C151.271 257.311 151.802 244.306 150.21 232.894C148.617 221.481 141.451 175.035 130.835 151.679C120.295 128.49 114.202 125.447 112.037 124.365L111.991 124.342Z" fill="#423FE1"/>
</g>
<path d="M109.9 127.5C100.4 127 91.8996 135 89.3995 141.5C86.8995 148 83.448 164.945 85.5 190C87.2608 211.5 84.5 228.472 84.5 246.5C84.5 260 81.1995 274.9 76.3995 288.5C71.5995 302.1 75.7329 314.833 78.3995 319.5C79.7328 320.5 83.2994 322.2 86.8995 321C91.3995 319.5 95.3995 323.5 98.3995 323C101.4 322.5 109.4 325 137.9 290.5C148.4 272.5 143.9 272.5 143.9 265.5C143.9 258.5 145.4 258 146.9 254C148.4 250 146.4 218 139.9 194C133.4 170 126.9 149 119.4 135C114.9 129 111.9 127.605 109.9 127.5Z" fill="#F15A38"/>
<path d="M119.107 142.023C118.107 138.856 114.807 132.323 109.607 131.523C103.107 130.523 96.6069 137.023 94.1069 140.523C91.6069 144.023 88.1803 157 89.5 184C90.893 212.5 88.5 266 84.6069 275C80.3125 284.928 76.6069 304.522 79.6069 311.022C82.6069 317.522 88.107 315.522 91.107 316.022C94.1069 316.522 119.107 311.022 141.107 262.522C143.907 252.522 143.94 245.356 143.607 243.022C143.774 231.023 139.107 194.023 119.107 142.023Z" fill="#FDB200"/>
<path d="M100.9 276C118.5 256 132.233 256.333 136.9 259C139.9 260.714 145.4 269 140.9 278.5C132.707 295.796 117.9 307.5 110.4 314.5C102.9 321.5 98.3995 320.5 97.8995 319C97.3995 317.5 95.8996 316.5 93.8996 315C91.8996 313.5 78.8996 301 100.9 276Z" fill="#1FA85B"/>
<g filter="url(#filter2_d)">
<line x1="173" y1="285.5" x2="116" y2="285.5" stroke="white" stroke-width="3"/>
</g>
<rect x="173" y="279" width="3" height="13" fill="#1FA85B"/>
<g filter="url(#filter3_d)">
<line x1="173" y1="218.5" x2="127" y2="218.5" stroke="white" stroke-width="3"/>
</g>
<rect x="173" y="201" width="3" height="35" fill="#FDB200"/>
<g filter="url(#filter4_d)">
<line x1="173" y1="151.5" x2="136" y2="151.5" stroke="white" stroke-width="3"/>
</g>
<rect x="173" y="145" width="3" height="13" fill="#423FE1"/>
<g filter="url(#filter5_d)">
<path d="M189.03 145.264C190.014 145.264 190.992 145.462 191.964 145.858L191.568 147.964L191.208 148.108C190.8 147.82 190.374 147.592 189.93 147.424C189.498 147.256 189.102 147.172 188.742 147.172C188.262 147.172 187.878 147.304 187.59 147.568C187.302 147.82 187.158 148.114 187.158 148.45C187.158 148.798 187.314 149.092 187.626 149.332C187.95 149.572 188.454 149.854 189.138 150.178C189.798 150.478 190.332 150.76 190.74 151.024C191.16 151.276 191.514 151.612 191.802 152.032C192.102 152.452 192.252 152.968 192.252 153.58C192.252 154.24 192.072 154.846 191.712 155.398C191.352 155.938 190.842 156.37 190.182 156.694C189.522 157.006 188.76 157.162 187.896 157.162C186.756 157.162 185.61 156.916 184.458 156.424L184.8 154.156L185.07 154.012C185.55 154.432 186.072 154.756 186.636 154.984C187.212 155.2 187.722 155.308 188.166 155.308C188.694 155.308 189.102 155.182 189.39 154.93C189.69 154.666 189.84 154.354 189.84 153.994C189.84 153.61 189.678 153.298 189.354 153.058C189.042 152.818 188.532 152.53 187.824 152.194C187.176 151.906 186.648 151.636 186.24 151.384C185.832 151.132 185.484 150.796 185.196 150.376C184.908 149.956 184.764 149.446 184.764 148.846C184.764 148.174 184.944 147.568 185.304 147.028C185.664 146.476 186.168 146.044 186.816 145.732C187.464 145.42 188.202 145.264 189.03 145.264ZM197.155 148.468C198.379 148.468 199.315 148.828 199.963 149.548C200.611 150.268 200.935 151.306 200.935 152.662C200.935 154.126 200.587 155.248 199.891 156.028C199.195 156.796 198.193 157.18 196.885 157.18C195.661 157.18 194.725 156.82 194.077 156.1C193.429 155.38 193.105 154.342 193.105 152.986C193.105 151.522 193.453 150.406 194.149 149.638C194.845 148.858 195.847 148.468 197.155 148.468ZM196.993 150.088C196.417 150.088 195.997 150.28 195.733 150.664C195.481 151.048 195.355 151.666 195.355 152.518C195.355 153.622 195.487 154.408 195.751 154.876C196.015 155.344 196.447 155.578 197.047 155.578C197.623 155.578 198.037 155.392 198.289 155.02C198.553 154.636 198.685 154.012 198.685 153.148C198.685 152.056 198.547 151.276 198.271 150.808C198.007 150.328 197.581 150.088 196.993 150.088ZM207.618 151.78C207.63 151.36 207.534 151.036 207.33 150.808C207.138 150.568 206.856 150.448 206.484 150.448C205.944 150.448 205.368 150.706 204.756 151.222V153.31L204.864 157H202.47L202.596 153.544L202.506 148.792L204.774 148.594V149.818H204.9C205.56 149.218 206.28 148.786 207.06 148.522C207.972 148.522 208.668 148.732 209.148 149.152C209.628 149.56 209.856 150.154 209.832 150.934L209.778 153.328L209.886 157H207.474L207.618 151.78ZM218.862 145.84V146.038C218.142 146.686 217.62 147.514 217.296 148.522C216.972 149.53 216.81 150.832 216.81 152.428C216.81 153.94 216.972 155.182 217.296 156.154C217.62 157.114 218.142 157.924 218.862 158.584V158.782L217.998 159.502H217.8C216.78 158.758 216.042 157.834 215.586 156.73C215.13 155.614 214.896 154.186 214.884 152.446C214.896 150.61 215.13 149.116 215.586 147.964C216.042 146.812 216.78 145.858 217.8 145.102H217.998L218.862 145.84ZM226.511 153.112L221.651 153.148C221.759 154.648 222.521 155.398 223.937 155.398C224.681 155.398 225.509 155.188 226.421 154.768L226.619 154.894L226.259 156.676C225.347 157.012 224.489 157.18 223.685 157.18C222.365 157.18 221.327 156.796 220.571 156.028C219.827 155.26 219.455 154.198 219.455 152.842C219.455 151.498 219.821 150.436 220.553 149.656C221.285 148.864 222.275 148.468 223.523 148.468C224.591 148.468 225.413 148.762 225.989 149.35C226.577 149.926 226.871 150.736 226.871 151.78C226.871 152.056 226.841 152.404 226.781 152.824L226.511 153.112ZM224.783 151.51C224.783 151.03 224.675 150.67 224.459 150.43C224.243 150.178 223.925 150.052 223.505 150.052C223.037 150.052 222.647 150.208 222.335 150.52C222.023 150.82 221.813 151.258 221.705 151.834L224.747 151.762L224.783 151.51ZM233.669 151.78C233.681 151.36 233.585 151.036 233.381 150.808C233.189 150.568 232.907 150.448 232.535 150.448C231.995 150.448 231.419 150.706 230.807 151.222V153.31L230.915 157H228.521L228.647 153.544L228.557 148.792L230.825 148.594V149.818H230.951C231.611 149.218 232.331 148.786 233.111 148.522C234.023 148.522 234.719 148.732 235.199 149.152C235.679 149.56 235.907 150.154 235.883 150.934L235.829 153.328L235.937 157H233.525L233.669 151.78ZM239.351 149.962L240.611 154.75H240.737L242.249 150.088L242.555 148.63H244.643L241.835 157H239.261L236.885 148.684L239.117 148.576L239.351 149.962ZM252.069 153.112L247.209 153.148C247.317 154.648 248.079 155.398 249.495 155.398C250.239 155.398 251.067 155.188 251.979 154.768L252.177 154.894L251.817 156.676C250.905 157.012 250.047 157.18 249.243 157.18C247.923 157.18 246.885 156.796 246.129 156.028C245.385 155.26 245.013 154.198 245.013 152.842C245.013 151.498 245.379 150.436 246.111 149.656C246.843 148.864 247.833 148.468 249.081 148.468C250.149 148.468 250.971 148.762 251.547 149.35C252.135 149.926 252.429 150.736 252.429 151.78C252.429 152.056 252.399 152.404 252.339 152.824L252.069 153.112ZM250.341 151.51C250.341 151.03 250.233 150.67 250.017 150.43C249.801 150.178 249.483 150.052 249.063 150.052C248.595 150.052 248.205 150.208 247.893 150.52C247.581 150.82 247.371 151.258 247.263 151.834L250.305 151.762L250.341 151.51ZM256.349 153.31L256.475 157H254.081L254.207 153.526L254.099 144.544L256.493 144.364L256.349 153.31ZM262.212 148.468C263.436 148.468 264.372 148.828 265.02 149.548C265.668 150.268 265.992 151.306 265.992 152.662C265.992 154.126 265.644 155.248 264.948 156.028C264.252 156.796 263.25 157.18 261.942 157.18C260.718 157.18 259.782 156.82 259.134 156.1C258.486 155.38 258.162 154.342 258.162 152.986C258.162 151.522 258.51 150.406 259.206 149.638C259.902 148.858 260.904 148.468 262.212 148.468ZM262.05 150.088C261.474 150.088 261.054 150.28 260.79 150.664C260.538 151.048 260.412 151.666 260.412 152.518C260.412 153.622 260.544 154.408 260.808 154.876C261.072 155.344 261.504 155.578 262.104 155.578C262.68 155.578 263.094 155.392 263.346 155.02C263.61 154.636 263.742 154.012 263.742 153.148C263.742 152.056 263.604 151.276 263.328 150.808C263.064 150.328 262.638 150.088 262.05 150.088ZM272.06 148.522C273.104 148.522 273.908 148.876 274.472 149.584C275.036 150.292 275.318 151.294 275.318 152.59C275.318 154.054 274.952 155.188 274.22 155.992C273.5 156.784 272.48 157.18 271.16 157.18C270.776 157.18 270.374 157.144 269.954 157.072L270.008 160.33H267.632L267.758 153.544L267.65 148.792L269.936 148.594L269.918 149.818H270.044C270.38 149.494 270.704 149.236 271.016 149.044C271.328 148.84 271.676 148.666 272.06 148.522ZM271.178 155.614C271.802 155.614 272.276 155.392 272.6 154.948C272.924 154.504 273.086 153.85 273.086 152.986C273.086 152.146 272.948 151.516 272.672 151.096C272.408 150.664 272.012 150.448 271.484 150.448C270.968 150.448 270.446 150.706 269.918 151.222L269.9 153.31L269.936 155.344C270.368 155.524 270.782 155.614 271.178 155.614ZM281.377 148.522C282.421 148.522 283.225 148.876 283.789 149.584C284.353 150.292 284.635 151.294 284.635 152.59C284.635 154.054 284.269 155.188 283.537 155.992C282.817 156.784 281.797 157.18 280.477 157.18C280.093 157.18 279.691 157.144 279.271 157.072L279.325 160.33H276.949L277.075 153.544L276.967 148.792L279.253 148.594L279.235 149.818H279.361C279.697 149.494 280.021 149.236 280.333 149.044C280.645 148.84 280.993 148.666 281.377 148.522ZM280.495 155.614C281.119 155.614 281.593 155.392 281.917 154.948C282.241 154.504 282.403 153.85 282.403 152.986C282.403 152.146 282.265 151.516 281.989 151.096C281.725 150.664 281.329 150.448 280.801 150.448C280.285 150.448 279.763 150.706 279.235 151.222L279.217 153.31L279.253 155.344C279.685 155.524 280.099 155.614 280.495 155.614ZM292.745 153.112L287.885 153.148C287.993 154.648 288.755 155.398 290.171 155.398C290.915 155.398 291.743 155.188 292.655 154.768L292.853 154.894L292.493 156.676C291.581 157.012 290.723 157.18 289.919 157.18C288.599 157.18 287.561 156.796 286.805 156.028C286.061 155.26 285.689 154.198 285.689 152.842C285.689 151.498 286.055 150.436 286.787 149.656C287.519 148.864 288.509 148.468 289.757 148.468C290.825 148.468 291.647 148.762 292.223 149.35C292.811 149.926 293.105 150.736 293.105 151.78C293.105 152.056 293.075 152.404 293.015 152.824L292.745 153.112ZM291.017 151.51C291.017 151.03 290.909 150.67 290.693 150.43C290.477 150.178 290.159 150.052 289.739 150.052C289.271 150.052 288.881 150.208 288.569 150.52C288.257 150.82 288.047 151.258 287.939 151.834L290.981 151.762L291.017 151.51ZM293.639 158.782V158.584C294.359 157.936 294.881 157.108 295.205 156.1C295.529 155.092 295.691 153.79 295.691 152.194C295.691 150.682 295.529 149.446 295.205 148.486C294.881 147.514 294.359 146.698 293.639 146.038V145.84L294.503 145.12H294.701C295.721 145.864 296.459 146.794 296.915 147.91C297.371 149.014 297.605 150.436 297.617 152.176C297.605 154.012 297.371 155.506 296.915 156.658C296.459 157.81 295.721 158.764 294.701 159.52H294.503L293.639 158.782Z" fill="#121212"/>
</g>
<g filter="url(#filter6_d)">
<path d="M194.512 213H192.028L191.74 211.488L191.434 210.408L189.166 210.354L187.168 210.408L186.862 211.362L186.556 213H184.144L188.068 201.408H190.966L194.512 213ZM190.912 208.518L189.544 203.694H189.382L187.798 208.518L189.346 208.554L190.912 208.518ZM205.812 213L205.956 207.78C205.956 206.892 205.578 206.448 204.822 206.448C204.282 206.448 203.718 206.688 203.13 207.168L203.076 209.328L203.184 213H200.79L200.934 207.78C200.946 207.348 200.85 207.018 200.646 206.79C200.454 206.562 200.172 206.448 199.8 206.448C199.272 206.448 198.69 206.7 198.054 207.204V209.31L198.162 213H195.786L195.912 209.544L195.822 204.792L198.072 204.594V205.818H198.198C198.858 205.218 199.584 204.786 200.376 204.522C201.72 204.522 202.578 204.972 202.95 205.872H203.058C203.742 205.236 204.522 204.786 205.398 204.522C206.31 204.522 207 204.732 207.468 205.152C207.948 205.56 208.176 206.154 208.152 206.934L208.098 209.328L208.206 213H205.812ZM213.599 204.468C214.523 204.468 215.243 204.678 215.759 205.098C216.287 205.506 216.551 206.082 216.551 206.826C216.551 207.042 216.515 207.726 216.443 208.878C216.431 209.214 216.413 209.562 216.389 209.922C216.365 210.27 216.353 210.57 216.353 210.822C216.353 211.026 216.383 211.17 216.443 211.254C216.503 211.326 216.611 211.362 216.767 211.362C216.887 211.362 217.043 211.338 217.235 211.29L217.415 211.434L217.199 212.694C216.815 212.946 216.377 213.096 215.885 213.144C215.525 213.108 215.225 212.982 214.985 212.766C214.745 212.538 214.583 212.226 214.499 211.83H214.373C213.773 212.466 213.155 212.91 212.519 213.162C211.655 213.15 210.977 212.922 210.485 212.478C209.993 212.034 209.747 211.428 209.747 210.66C209.747 210.06 209.897 209.592 210.197 209.256C210.509 208.908 210.977 208.674 211.601 208.554L214.355 208.032V207.294C214.355 206.514 213.971 206.124 213.203 206.124C212.831 206.124 212.435 206.208 212.015 206.376C211.607 206.544 211.145 206.808 210.629 207.168L210.449 207.06L210.179 205.476C210.695 205.152 211.247 204.906 211.835 204.738C212.423 204.558 213.011 204.468 213.599 204.468ZM212.429 209.652C212.237 209.7 212.093 209.784 211.997 209.904C211.913 210.012 211.871 210.18 211.871 210.408C211.871 210.72 211.955 210.966 212.123 211.146C212.291 211.314 212.525 211.398 212.825 211.398C213.293 211.398 213.785 211.122 214.301 210.57L214.337 209.238L212.429 209.652ZM224.014 207.78C224.026 207.36 223.93 207.036 223.726 206.808C223.534 206.568 223.252 206.448 222.88 206.448C222.34 206.448 221.764 206.706 221.152 207.222V209.31L221.26 213H218.866L218.992 209.544L218.902 204.792L221.17 204.594V205.818H221.296C221.956 205.218 222.676 204.786 223.456 204.522C224.368 204.522 225.064 204.732 225.544 205.152C226.024 205.56 226.252 206.154 226.228 206.934L226.174 209.328L226.282 213H223.87L224.014 207.78ZM235.377 209.31L235.431 210.822C235.431 211.026 235.455 211.17 235.503 211.254C235.563 211.326 235.665 211.362 235.809 211.362C235.941 211.362 236.103 211.338 236.295 211.29L236.457 211.434L236.259 212.694C235.851 212.946 235.407 213.096 234.927 213.144C234.555 213.108 234.243 212.982 233.991 212.766C233.739 212.55 233.565 212.256 233.469 211.884H233.325C232.737 212.424 232.137 212.838 231.525 213.126C230.349 213.126 229.437 212.754 228.789 212.01C228.141 211.254 227.817 210.21 227.817 208.878C227.817 207.462 228.189 206.376 228.933 205.62C229.677 204.864 230.709 204.486 232.029 204.486C232.377 204.486 232.761 204.522 233.181 204.594L233.145 200.544L235.521 200.364L235.377 209.31ZM231.867 206.106C230.667 206.106 230.067 206.868 230.067 208.392C230.067 209.34 230.211 210.054 230.499 210.534C230.787 211.014 231.207 211.254 231.759 211.254C232.287 211.254 232.773 211.008 233.217 210.516L233.253 209.526L233.199 206.43C232.731 206.214 232.287 206.106 231.867 206.106ZM244.348 209.112L239.488 209.148C239.596 210.648 240.358 211.398 241.774 211.398C242.518 211.398 243.346 211.188 244.258 210.768L244.456 210.894L244.096 212.676C243.184 213.012 242.326 213.18 241.522 213.18C240.202 213.18 239.164 212.796 238.408 212.028C237.664 211.26 237.292 210.198 237.292 208.842C237.292 207.498 237.658 206.436 238.39 205.656C239.122 204.864 240.112 204.468 241.36 204.468C242.428 204.468 243.25 204.762 243.826 205.35C244.414 205.926 244.708 206.736 244.708 207.78C244.708 208.056 244.678 208.404 244.618 208.824L244.348 209.112ZM242.62 207.51C242.62 207.03 242.512 206.67 242.296 206.43C242.08 206.178 241.762 206.052 241.342 206.052C240.874 206.052 240.484 206.208 240.172 206.52C239.86 206.82 239.65 207.258 239.542 207.834L242.584 207.762L242.62 207.51ZM253.438 200.328C253.93 200.328 254.452 200.382 255.004 200.49L254.842 202.272L254.68 202.38C254.116 202.14 253.624 202.02 253.204 202.02C252.46 202.02 252.082 202.446 252.07 203.298L252.052 204.702H254.086L254.158 204.828L254.05 206.142H252.016L251.962 209.31L252.088 213H249.694L249.838 209.526L249.802 206.142H248.542L248.452 206.016L248.578 204.702H249.784L249.766 203.712C249.766 202.632 250.084 201.798 250.72 201.21C251.368 200.622 252.274 200.328 253.438 200.328ZM258.195 204.468C259.119 204.468 259.839 204.678 260.355 205.098C260.883 205.506 261.147 206.082 261.147 206.826C261.147 207.042 261.111 207.726 261.039 208.878C261.027 209.214 261.009 209.562 260.985 209.922C260.961 210.27 260.949 210.57 260.949 210.822C260.949 211.026 260.979 211.17 261.039 211.254C261.099 211.326 261.207 211.362 261.363 211.362C261.483 211.362 261.639 211.338 261.831 211.29L262.011 211.434L261.795 212.694C261.411 212.946 260.973 213.096 260.481 213.144C260.121 213.108 259.821 212.982 259.581 212.766C259.341 212.538 259.179 212.226 259.095 211.83H258.969C258.369 212.466 257.751 212.91 257.115 213.162C256.251 213.15 255.573 212.922 255.081 212.478C254.589 212.034 254.343 211.428 254.343 210.66C254.343 210.06 254.493 209.592 254.793 209.256C255.105 208.908 255.573 208.674 256.197 208.554L258.951 208.032V207.294C258.951 206.514 258.567 206.124 257.799 206.124C257.427 206.124 257.031 206.208 256.611 206.376C256.203 206.544 255.741 206.808 255.225 207.168L255.045 207.06L254.775 205.476C255.291 205.152 255.843 204.906 256.431 204.738C257.019 204.558 257.607 204.468 258.195 204.468ZM257.025 209.652C256.833 209.7 256.689 209.784 256.593 209.904C256.509 210.012 256.467 210.18 256.467 210.408C256.467 210.72 256.551 210.966 256.719 211.146C256.887 211.314 257.121 211.398 257.421 211.398C257.889 211.398 258.381 211.122 258.897 210.57L258.933 209.238L257.025 209.652ZM268.087 204.612C268.195 204.612 268.345 204.624 268.537 204.648V206.862L268.285 206.952C268.081 206.868 267.859 206.826 267.619 206.826C266.923 206.826 266.293 207.276 265.729 208.176V209.31L265.855 213H263.461L263.605 209.544L263.497 204.792L265.765 204.594L265.747 206.232H265.891C266.479 205.152 267.211 204.612 268.087 204.612ZM269.881 209.544L269.791 204.792L272.149 204.594L272.041 209.31L272.149 213H269.755L269.881 209.544ZM271.015 200.526C271.387 200.526 271.675 200.634 271.879 200.85C272.095 201.066 272.203 201.366 272.203 201.75C272.203 202.158 272.089 202.482 271.861 202.722C271.633 202.962 271.321 203.082 270.925 203.082C270.529 203.082 270.223 202.974 270.007 202.758C269.803 202.542 269.701 202.236 269.701 201.84C269.701 201.444 269.815 201.126 270.043 200.886C270.283 200.646 270.607 200.526 271.015 200.526ZM279.56 207.78C279.572 207.36 279.476 207.036 279.272 206.808C279.08 206.568 278.798 206.448 278.426 206.448C277.886 206.448 277.31 206.706 276.698 207.222V209.31L276.806 213H274.412L274.538 209.544L274.448 204.792L276.716 204.594V205.818H276.842C277.502 205.218 278.222 204.786 279.002 204.522C279.914 204.522 280.61 204.732 281.09 205.152C281.57 205.56 281.798 206.154 281.774 206.934L281.72 209.328L281.828 213H279.416L279.56 207.78ZM290.42 209.112L285.56 209.148C285.668 210.648 286.43 211.398 287.846 211.398C288.59 211.398 289.418 211.188 290.33 210.768L290.528 210.894L290.168 212.676C289.256 213.012 288.398 213.18 287.594 213.18C286.274 213.18 285.236 212.796 284.48 212.028C283.736 211.26 283.364 210.198 283.364 208.842C283.364 207.498 283.73 206.436 284.462 205.656C285.194 204.864 286.184 204.468 287.432 204.468C288.5 204.468 289.322 204.762 289.898 205.35C290.486 205.926 290.78 206.736 290.78 207.78C290.78 208.056 290.75 208.404 290.69 208.824L290.42 209.112ZM288.692 207.51C288.692 207.03 288.584 206.67 288.368 206.43C288.152 206.178 287.834 206.052 287.414 206.052C286.946 206.052 286.556 206.208 286.244 206.52C285.932 206.82 285.722 207.258 285.614 207.834L288.656 207.762L288.692 207.51ZM300.422 211.434L300.206 212.694C299.762 212.982 299.306 213.132 298.838 213.144C298.49 213.084 298.202 212.946 297.974 212.73C297.746 212.514 297.572 212.202 297.452 211.794H297.29C296.606 212.466 295.898 212.904 295.166 213.108C294.254 213.108 293.558 212.904 293.078 212.496C292.61 212.076 292.382 211.476 292.394 210.696L292.43 208.572L292.34 204.792L294.662 204.594L294.608 209.904C294.596 210.324 294.68 210.642 294.86 210.858C295.04 211.074 295.31 211.182 295.67 211.182C296.198 211.182 296.72 210.948 297.236 210.48V204.792L299.522 204.594L299.36 210.822C299.36 211.014 299.39 211.152 299.45 211.236C299.522 211.32 299.63 211.362 299.774 211.362C299.906 211.362 300.068 211.338 300.26 211.29L300.422 211.434ZM304.642 204.486C305.458 204.486 306.226 204.624 306.946 204.9L306.622 206.664L306.334 206.754C305.986 206.526 305.638 206.352 305.29 206.232C304.942 206.112 304.636 206.052 304.372 206.052C304.084 206.052 303.856 206.13 303.688 206.286C303.52 206.43 303.436 206.61 303.436 206.826C303.436 207.078 303.544 207.282 303.76 207.438C303.988 207.594 304.342 207.768 304.822 207.96C305.302 208.152 305.698 208.338 306.01 208.518C306.322 208.698 306.586 208.95 306.802 209.274C307.03 209.586 307.144 209.976 307.144 210.444C307.144 210.924 307.018 211.374 306.766 211.794C306.526 212.202 306.154 212.538 305.65 212.802C305.146 213.054 304.528 213.18 303.796 213.18C302.932 213.18 302.038 213 301.114 212.64L301.384 210.768L301.618 210.624C301.99 210.936 302.404 211.188 302.86 211.38C303.316 211.56 303.718 211.65 304.066 211.65C304.39 211.65 304.642 211.572 304.822 211.416C305.002 211.248 305.092 211.05 305.092 210.822C305.092 210.57 304.978 210.366 304.75 210.21C304.534 210.054 304.186 209.88 303.706 209.688C303.214 209.472 302.812 209.28 302.5 209.112C302.188 208.932 301.918 208.68 301.69 208.356C301.474 208.032 301.366 207.63 301.366 207.15C301.366 206.37 301.66 205.734 302.248 205.242C302.836 204.738 303.634 204.486 304.642 204.486ZM315.223 209.112L310.363 209.148C310.471 210.648 311.233 211.398 312.649 211.398C313.393 211.398 314.221 211.188 315.133 210.768L315.331 210.894L314.971 212.676C314.059 213.012 313.201 213.18 312.397 213.18C311.077 213.18 310.039 212.796 309.283 212.028C308.539 211.26 308.167 210.198 308.167 208.842C308.167 207.498 308.533 206.436 309.265 205.656C309.997 204.864 310.987 204.468 312.235 204.468C313.303 204.468 314.125 204.762 314.701 205.35C315.289 205.926 315.583 206.736 315.583 207.78C315.583 208.056 315.553 208.404 315.493 208.824L315.223 209.112ZM313.495 207.51C313.495 207.03 313.387 206.67 313.171 206.43C312.955 206.178 312.637 206.052 312.217 206.052C311.749 206.052 311.359 206.208 311.047 206.52C310.735 206.82 310.525 207.258 310.417 207.834L313.459 207.762L313.495 207.51ZM189.238 224.84V225.038C188.518 225.686 187.996 226.514 187.672 227.522C187.348 228.53 187.186 229.832 187.186 231.428C187.186 232.94 187.348 234.182 187.672 235.154C187.996 236.114 188.518 236.924 189.238 237.584V237.782L188.374 238.502H188.176C187.156 237.758 186.418 236.834 185.962 235.73C185.506 234.614 185.272 233.186 185.26 231.446C185.272 229.61 185.506 228.116 185.962 226.964C186.418 225.812 187.156 224.858 188.176 224.102H188.374L189.238 224.84ZM199.821 236H197.337L197.049 234.488L196.743 233.408L194.475 233.354L192.477 233.408L192.171 234.362L191.865 236H189.453L193.377 224.408H196.275L199.821 236ZM196.221 231.518L194.853 226.694H194.691L193.107 231.518L194.655 231.554L196.221 231.518ZM203.698 232.31L203.824 236H201.43L201.556 232.526L201.448 223.544L203.842 223.364L203.698 232.31ZM210.604 227.522C211.66 227.522 212.464 227.882 213.016 228.602C213.58 229.31 213.862 230.3 213.862 231.572C213.862 233.048 213.496 234.188 212.764 234.992C212.032 235.784 211.018 236.18 209.722 236.18C209.11 236.18 208.438 236.042 207.706 235.766L206.446 236.216L206.158 235.982L206.284 232.562L206.176 223.544L208.552 223.364L208.48 228.818H208.588C208.924 228.494 209.248 228.236 209.56 228.044C209.872 227.84 210.22 227.666 210.604 227.522ZM209.722 234.614C210.322 234.614 210.79 234.398 211.126 233.966C211.462 233.534 211.63 232.874 211.63 231.986C211.63 231.158 211.492 230.528 211.216 230.096C210.952 229.664 210.55 229.448 210.01 229.448C209.518 229.448 209.002 229.7 208.462 230.204L208.426 232.256L208.462 234.29C208.906 234.506 209.326 234.614 209.722 234.614ZM223.5 234.434L223.284 235.694C222.84 235.982 222.384 236.132 221.916 236.144C221.568 236.084 221.28 235.946 221.052 235.73C220.824 235.514 220.65 235.202 220.53 234.794H220.368C219.684 235.466 218.976 235.904 218.244 236.108C217.332 236.108 216.636 235.904 216.156 235.496C215.688 235.076 215.46 234.476 215.472 233.696L215.508 231.572L215.418 227.792L217.74 227.594L217.686 232.904C217.674 233.324 217.758 233.642 217.938 233.858C218.118 234.074 218.388 234.182 218.748 234.182C219.276 234.182 219.798 233.948 220.314 233.48V227.792L222.6 227.594L222.438 233.822C222.438 234.014 222.468 234.152 222.528 234.236C222.6 234.32 222.708 234.362 222.852 234.362C222.984 234.362 223.146 234.338 223.338 234.29L223.5 234.434ZM234.833 236L234.977 230.78C234.977 229.892 234.599 229.448 233.843 229.448C233.303 229.448 232.739 229.688 232.151 230.168L232.097 232.328L232.205 236H229.811L229.955 230.78C229.967 230.348 229.871 230.018 229.667 229.79C229.475 229.562 229.193 229.448 228.821 229.448C228.293 229.448 227.711 229.7 227.075 230.204V232.31L227.183 236H224.807L224.933 232.544L224.843 227.792L227.093 227.594V228.818H227.219C227.879 228.218 228.605 227.786 229.397 227.522C230.741 227.522 231.599 227.972 231.971 228.872H232.079C232.763 228.236 233.543 227.786 234.419 227.522C235.331 227.522 236.021 227.732 236.489 228.152C236.969 228.56 237.197 229.154 237.173 229.934L237.119 232.328L237.227 236H234.833ZM245.807 232.112L240.947 232.148C241.055 233.648 241.817 234.398 243.233 234.398C243.977 234.398 244.805 234.188 245.717 233.768L245.915 233.894L245.555 235.676C244.643 236.012 243.785 236.18 242.981 236.18C241.661 236.18 240.623 235.796 239.867 235.028C239.123 234.26 238.751 233.198 238.751 231.842C238.751 230.498 239.117 229.436 239.849 228.656C240.581 227.864 241.571 227.468 242.819 227.468C243.887 227.468 244.709 227.762 245.285 228.35C245.873 228.926 246.167 229.736 246.167 230.78C246.167 231.056 246.137 231.404 246.077 231.824L245.807 232.112ZM244.079 230.51C244.079 230.03 243.971 229.67 243.755 229.43C243.539 229.178 243.221 229.052 242.801 229.052C242.333 229.052 241.943 229.208 241.631 229.52C241.319 229.82 241.109 230.258 241.001 230.834L244.043 230.762L244.079 230.51ZM252.965 230.78C252.977 230.36 252.881 230.036 252.677 229.808C252.485 229.568 252.203 229.448 251.831 229.448C251.291 229.448 250.715 229.706 250.103 230.222V232.31L250.211 236H247.817L247.943 232.544L247.853 227.792L250.121 227.594V228.818H250.247C250.907 228.218 251.627 227.786 252.407 227.522C253.319 227.522 254.015 227.732 254.495 228.152C254.975 228.56 255.203 229.154 255.179 229.934L255.125 232.328L255.233 236H252.821L252.965 230.78ZM256.228 237.782V237.584C256.948 236.936 257.47 236.108 257.794 235.1C258.118 234.092 258.28 232.79 258.28 231.194C258.28 229.682 258.118 228.446 257.794 227.486C257.47 226.514 256.948 225.698 256.228 225.038V224.84L257.092 224.12H257.29C258.31 224.864 259.048 225.794 259.504 226.91C259.96 228.014 260.194 229.436 260.206 231.176C260.194 233.012 259.96 234.506 259.504 235.658C259.048 236.81 258.31 237.764 257.29 238.52H257.092L256.228 237.782Z" fill="#121212"/>
</g>
<g filter="url(#filter7_d)">
<path d="M190.452 279.264C191.712 279.264 192.846 279.498 193.854 279.966L193.332 282.162L193.098 282.198C192.51 281.862 191.982 281.622 191.514 281.478C191.058 281.322 190.566 281.244 190.038 281.244C188.97 281.244 188.19 281.562 187.698 282.198C187.206 282.834 186.96 283.878 186.96 285.33C186.96 286.29 187.062 287.052 187.266 287.616C187.482 288.18 187.812 288.594 188.256 288.858C188.7 289.11 189.288 289.236 190.02 289.236C190.272 289.236 190.506 289.218 190.722 289.182C190.95 289.146 191.226 289.08 191.55 288.984L191.586 287.994L191.55 286.158L193.8 285.996L193.746 287.616L193.8 290.442C192.36 290.922 191.034 291.162 189.822 291.162C188.022 291.162 186.666 290.67 185.754 289.686C184.854 288.702 184.404 287.292 184.404 285.456C184.404 283.452 184.926 281.922 185.97 280.866C187.026 279.798 188.52 279.264 190.452 279.264ZM201.954 287.112L197.094 287.148C197.202 288.648 197.964 289.398 199.38 289.398C200.124 289.398 200.952 289.188 201.864 288.768L202.062 288.894L201.702 290.676C200.79 291.012 199.932 291.18 199.128 291.18C197.808 291.18 196.77 290.796 196.014 290.028C195.27 289.26 194.898 288.198 194.898 286.842C194.898 285.498 195.264 284.436 195.996 283.656C196.728 282.864 197.718 282.468 198.966 282.468C200.034 282.468 200.856 282.762 201.432 283.35C202.02 283.926 202.314 284.736 202.314 285.78C202.314 286.056 202.284 286.404 202.224 286.824L201.954 287.112ZM200.226 285.51C200.226 285.03 200.118 284.67 199.902 284.43C199.686 284.178 199.368 284.052 198.948 284.052C198.48 284.052 198.09 284.208 197.778 284.52C197.466 284.82 197.256 285.258 197.148 285.834L200.19 285.762L200.226 285.51ZM208.59 282.612C208.698 282.612 208.848 282.624 209.04 282.648V284.862L208.788 284.952C208.584 284.868 208.362 284.826 208.122 284.826C207.426 284.826 206.796 285.276 206.232 286.176V287.31L206.358 291H203.964L204.108 287.544L204 282.792L206.268 282.594L206.25 284.232H206.394C206.982 283.152 207.714 282.612 208.59 282.612ZM220.248 291L220.392 285.78C220.392 284.892 220.014 284.448 219.258 284.448C218.718 284.448 218.154 284.688 217.566 285.168L217.512 287.328L217.62 291H215.226L215.37 285.78C215.382 285.348 215.286 285.018 215.082 284.79C214.89 284.562 214.608 284.448 214.236 284.448C213.708 284.448 213.126 284.7 212.49 285.204V287.31L212.598 291H210.222L210.348 287.544L210.258 282.792L212.508 282.594V283.818H212.634C213.294 283.218 214.02 282.786 214.812 282.522C216.156 282.522 217.014 282.972 217.386 283.872H217.494C218.178 283.236 218.958 282.786 219.834 282.522C220.746 282.522 221.436 282.732 221.904 283.152C222.384 283.56 222.612 284.154 222.588 284.934L222.534 287.328L222.642 291H220.248ZM231.222 287.112L226.362 287.148C226.47 288.648 227.232 289.398 228.648 289.398C229.392 289.398 230.22 289.188 231.132 288.768L231.33 288.894L230.97 290.676C230.058 291.012 229.2 291.18 228.396 291.18C227.076 291.18 226.038 290.796 225.282 290.028C224.538 289.26 224.166 288.198 224.166 286.842C224.166 285.498 224.532 284.436 225.264 283.656C225.996 282.864 226.986 282.468 228.234 282.468C229.302 282.468 230.124 282.762 230.7 283.35C231.288 283.926 231.582 284.736 231.582 285.78C231.582 286.056 231.552 286.404 231.492 286.824L231.222 287.112ZM229.494 285.51C229.494 285.03 229.386 284.67 229.17 284.43C228.954 284.178 228.636 284.052 228.216 284.052C227.748 284.052 227.358 284.208 227.046 284.52C226.734 284.82 226.524 285.258 226.416 285.834L229.458 285.762L229.494 285.51Z" fill="#121212"/>
</g>
<g filter="url(#filter8_d)">
<path d="M126.726 112.75C122.834 109.575 122.345 103.774 122.586 101.27C122.718 99.9044 123.302 98.8351 124.218 97.5171C125.666 95.4331 131.327 92.2952 132.763 88.6C134.497 84.1367 136.839 80.4865 138.569 78.561C140.644 76.2505 144.662 77.3885 145.781 76.3416C146.9 75.2947 150.639 73.3461 159.902 71.4961C171.479 69.1837 188.632 70.9429 199.798 71.4722C210.964 72.0015 223.125 83.1921 211.831 96.0631C200.538 108.934 185.104 110.325 162.963 115.46C140.822 120.594 131.591 116.718 126.726 112.75Z" fill="#423FE1"/>
</g>
<path d="M130.391 107.478C125.21 109.448 122.345 103.774 122.586 101.27C122.718 99.9045 123.302 98.8351 124.218 97.5171C125.666 95.4332 131.327 92.2953 132.763 88.6001C134.497 84.1367 136.839 80.4865 138.569 78.5611C140.644 76.2505 144.662 77.3885 145.781 76.3417C146.9 75.2948 150.639 73.3462 159.901 71.4962C171.479 69.1838 178.99 69.9091 190.156 70.4384C201.322 70.9676 216.88 76.4531 209.931 81.6438C205.864 84.6815 192.464 84.5539 170.323 89.6884C148.182 94.8228 140.754 103.539 130.391 107.478Z" fill="#F15A38"/>
<path d="M129.989 105.244C124.808 107.213 122.345 103.774 122.586 101.27C122.718 99.9044 123.302 98.835 124.218 97.517C125.666 95.4331 131.327 92.2952 132.763 88.6C134.497 84.1366 136.839 80.4864 138.569 78.561C140.644 76.2504 144.662 77.3884 145.781 76.3416C146.9 75.2947 150.639 73.3461 159.901 71.4961C171.479 69.1837 178.99 69.909 190.156 70.4382C201.322 70.9675 216.942 78.3073 208.613 80.7275C201.983 82.654 189.524 82.3147 167.383 87.4492C145.242 92.5836 140.352 101.305 129.989 105.244Z" fill="#FDB200"/>
<path d="M125.938 100.667C124.64 99.6091 126.759 95.83 127.981 94.0727C128.762 92.8556 130.318 92.9606 131.538 92.0493C132.758 91.138 132.964 89.7172 134.287 88.0954C135.249 86.9155 137.236 85.2586 140.587 84.656C143.939 84.0534 146.271 85.4792 146.369 87.3067C146.467 89.1342 141.788 93.8965 135.384 98.0463C128.98 102.196 127.559 101.99 125.938 100.667Z" fill="#1FA85B"/>
<g filter="url(#filter9_d)">
<path d="M108.85 103.738C113.51 105.612 118.826 103.239 120.901 101.818C122.033 101.043 122.688 100.015 123.399 98.5766C124.524 96.3016 124.538 89.8297 127.08 86.7875C130.15 83.1128 132.215 79.2991 133.066 76.8546C134.086 73.9213 131.149 70.9528 131.526 69.4676C131.902 67.9824 131.802 63.7666 128.948 54.763C125.381 43.5086 115.555 29.3386 109.698 19.8171C103.842 10.2957 88.1692 5.05297 82.3541 21.1586C76.5391 37.2642 82.7754 51.4501 88.974 73.3171C95.1726 95.1841 103.025 101.395 108.85 103.738Z" fill="#423FE1"/>
</g>
<path d="M111.695 97.9824C112.473 103.471 118.826 103.239 120.901 101.818C122.033 101.043 122.688 100.016 123.399 98.5767C124.524 96.3017 124.538 89.8299 127.08 86.7876C130.15 83.113 132.215 79.2992 133.066 76.8548C134.086 73.9214 131.149 70.9529 131.526 69.4677C131.902 67.9825 131.802 63.7667 128.948 54.7632C125.381 43.5087 121.118 37.2822 115.261 27.7607C109.404 18.2392 97.0865 7.26641 95.8979 15.8583C95.2023 20.8864 101.786 32.5582 107.985 54.4252C114.184 76.2922 110.139 87.0061 111.695 97.9824Z" fill="#F15A38"/>
<path d="M113.846 97.255C114.624 102.743 118.826 103.239 120.901 101.818C122.033 101.043 122.688 100.015 123.399 98.5766C124.524 96.3016 124.538 89.8298 127.08 86.7875C130.15 83.1129 132.215 79.2992 133.066 76.8547C134.086 73.9213 131.149 70.9528 131.526 69.4676C131.902 67.9824 131.802 63.7667 128.948 54.7631C125.381 43.5086 121.118 37.2821 115.261 27.7606C109.404 18.2392 95.4329 8.10755 97.3368 16.5698C98.8522 23.3054 105.167 34.0507 111.366 55.9177C117.564 77.7847 112.29 86.2787 113.846 97.255Z" fill="#FDB200"/>
<path d="M119.81 98.5924C121.363 99.2173 123.649 95.5365 124.598 93.618C125.286 92.3461 124.442 91.0345 124.651 89.5261C124.86 88.0176 126.004 87.1511 126.786 85.2095C127.354 83.7967 127.845 81.2566 126.754 78.0311C125.663 74.8056 123.288 73.4522 121.64 74.2492C119.993 75.0461 118.083 81.4434 117.542 89.055C117.002 96.6667 117.868 97.8114 119.81 98.5924Z" fill="#1FA85B"/>
<g filter="url(#filter10_d)">
<path d="M253.252 13.9147C255.2 12.4956 259.301 10.9856 261.03 13.4196C262.107 18.0537 262.688 28.0233 253.892 35.6141C242.897 45.1026 220.356 62.2645 208.49 59.0882C196.624 55.9119 185.463 48.5277 193.869 46.8362C202.275 45.1446 250.817 15.6887 253.252 13.9147Z" fill="#423FE1"/>
<path d="M235.645 1.62151C246.266 -2.57004 253.744 2.47374 257.02 6.73655C257.571 8.5517 255.902 10.7484 254.51 11.5185C202.923 42.9914 196.304 45.0622 190.96 43.7835C188.368 43.1632 188.382 41.8198 190.012 34.1301C212.861 4.92221 222.369 6.86096 235.645 1.62151Z" fill="#423FE1"/>
</g>
</g>
<defs>
<filter id="filter0_d" x="115.909" y="345.094" width="104.123" height="17.17" filterUnits="userSpaceOnUse" color-interpolation-filters="sRGB">
<feFlood flood-opacity="0" result="BackgroundImageFix"/>
<feColorMatrix in="SourceAlpha" type="matrix" values="0 0 0 0 0 0 0 0 0 0 0 0 0 0 0 0 0 0 127 0"/>
<feOffset dx="-1" dy="1"/>
<feColorMatrix type="matrix" values="0 0 0 0 1 0 0 0 0 1 0 0 0 0 1 0 0 0 1 0"/>
<feBlend mode="normal" in2="BackgroundImageFix" result="effect1_dropShadow"/>
<feBlend mode="normal" in="SourceGraphic" in2="effect1_dropShadow" result="shape"/>
</filter>
<filter id="filter1_d" x="46" y="123.873" width="105.136" height="204.484" filterUnits="userSpaceOnUse" color-interpolation-filters="sRGB">
<feFlood flood-opacity="0" result="BackgroundImageFix"/>
<feColorMatrix in="SourceAlpha" type="matrix" values="0 0 0 0 0 0 0 0 0 0 0 0 0 0 0 0 0 0 127 0"/>
<feOffset dx="-3" dy="2"/>
<feColorMatrix type="matrix" values="0 0 0 0 0.0705882 0 0 0 0 0.0705882 0 0 0 0 0.0705882 0 0 0 1 0"/>
<feBlend mode="normal" in2="BackgroundImageFix" result="effect1_dropShadow"/>
<feBlend mode="normal" in="SourceGraphic" in2="effect1_dropShadow" result="shape"/>
</filter>
<filter id="filter2_d" x="114" y="284" width="59" height="5" filterUnits="userSpaceOnUse" color-interpolation-filters="sRGB">
<feFlood flood-opacity="0" result="BackgroundImageFix"/>
<feColorMatrix in="SourceAlpha" type="matrix" values="0 0 0 0 0 0 0 0 0 0 0 0 0 0 0 0 0 0 127 0"/>
<feOffset dx="-2" dy="2"/>
<feColorMatrix type="matrix" values="0 0 0 0 0 0 0 0 0 0 0 0 0 0 0 0 0 0 1 0"/>
<feBlend mode="normal" in2="BackgroundImageFix" result="effect1_dropShadow"/>
<feBlend mode="normal" in="SourceGraphic" in2="effect1_dropShadow" result="shape"/>
</filter>
<filter id="filter3_d" x="125" y="217" width="48" height="5" filterUnits="userSpaceOnUse" color-interpolation-filters="sRGB">
<feFlood flood-opacity="0" result="BackgroundImageFix"/>
<feColorMatrix in="SourceAlpha" type="matrix" values="0 0 0 0 0 0 0 0 0 0 0 0 0 0 0 0 0 0 127 0"/>
<feOffset dx="-2" dy="2"/>
<feColorMatrix type="matrix" values="0 0 0 0 0 0 0 0 0 0 0 0 0 0 0 0 0 0 1 0"/>
<feBlend mode="normal" in2="BackgroundImageFix" result="effect1_dropShadow"/>
<feBlend mode="normal" in="SourceGraphic" in2="effect1_dropShadow" result="shape"/>
</filter>
<filter id="filter4_d" x="134" y="150" width="39" height="5" filterUnits="userSpaceOnUse" color-interpolation-filters="sRGB">
<feFlood flood-opacity="0" result="BackgroundImageFix"/>
<feColorMatrix in="SourceAlpha" type="matrix" values="0 0 0 0 0 0 0 0 0 0 0 0 0 0 0 0 0 0 127 0"/>
<feOffset dx="-2" dy="2"/>
<feColorMatrix type="matrix" values="0 0 0 0 0 0 0 0 0 0 0 0 0 0 0 0 0 0 1 0"/>
<feBlend mode="normal" in2="BackgroundImageFix" result="effect1_dropShadow"/>
<feBlend mode="normal" in="SourceGraphic" in2="effect1_dropShadow" result="shape"/>
</filter>
<filter id="filter5_d" x="183.458" y="144.364" width="114.16" height="16.966" filterUnits="userSpaceOnUse" color-interpolation-filters="sRGB">
<feFlood flood-opacity="0" result="BackgroundImageFix"/>
<feColorMatrix in="SourceAlpha" type="matrix" values="0 0 0 0 0 0 0 0 0 0 0 0 0 0 0 0 0 0 127 0"/>
<feOffset dx="-1" dy="1"/>
<feColorMatrix type="matrix" values="0 0 0 0 1 0 0 0 0 1 0 0 0 0 1 0 0 0 1 0"/>
<feBlend mode="normal" in2="BackgroundImageFix" result="effect1_dropShadow"/>
<feBlend mode="normal" in="SourceGraphic" in2="effect1_dropShadow" result="shape"/>
</filter>
<filter id="filter6_d" x="183.144" y="200.328" width="132.439" height="39.192" filterUnits="userSpaceOnUse" color-interpolation-filters="sRGB">
<feFlood flood-opacity="0" result="BackgroundImageFix"/>
<feColorMatrix in="SourceAlpha" type="matrix" values="0 0 0 0 0 0 0 0 0 0 0 0 0 0 0 0 0 0 127 0"/>
<feOffset dx="-1" dy="1"/>
<feColorMatrix type="matrix" values="0 0 0 0 1 0 0 0 0 1 0 0 0 0 1 0 0 0 1 0"/>
<feBlend mode="normal" in2="BackgroundImageFix" result="effect1_dropShadow"/>
<feBlend mode="normal" in="SourceGraphic" in2="effect1_dropShadow" result="shape"/>
</filter>
<filter id="filter7_d" x="183.404" y="279.264" width="48.1781" height="12.916" filterUnits="userSpaceOnUse" color-interpolation-filters="sRGB">
<feFlood flood-opacity="0" result="BackgroundImageFix"/>
<feColorMatrix in="SourceAlpha" type="matrix" values="0 0 0 0 0 0 0 0 0 0 0 0 0 0 0 0 0 0 127 0"/>
<feOffset dx="-1" dy="1"/>
<feColorMatrix type="matrix" values="0 0 0 0 1 0 0 0 0 1 0 0 0 0 1 0 0 0 1 0"/>
<feBlend mode="normal" in2="BackgroundImageFix" result="effect1_dropShadow"/>
<feBlend mode="normal" in="SourceGraphic" in2="effect1_dropShadow" result="shape"/>
</filter>
<filter id="filter8_d" x="111.308" y="42.4197" width="110.704" height="103.273" filterUnits="userSpaceOnUse" color-interpolation-filters="sRGB">
<feFlood flood-opacity="0" result="BackgroundImageFix"/>
<feColorMatrix in="SourceAlpha" type="matrix" values="0 0 0 0 0 0 0 0 0 0 0 0 0 0 0 0 0 0 127 0"/>
<feOffset dx="-3" dy="2"/>
<feColorMatrix type="matrix" values="0 0 0 0 0.0705882 0 0 0 0 0.0705882 0 0 0 0 0.0705882 0 0 0 1 0"/>
<feBlend mode="normal" in2="BackgroundImageFix" result="effect1_dropShadow"/>
<feBlend mode="normal" in="SourceGraphic" in2="effect1_dropShadow" result="shape"/>
</filter>
<filter id="filter9_d" x="67.7589" y="9.08484" width="73.643" height="99.7208" filterUnits="userSpaceOnUse" color-interpolation-filters="sRGB">
<feFlood flood-opacity="0" result="BackgroundImageFix"/>
<feColorMatrix in="SourceAlpha" type="matrix" values="0 0 0 0 0 0 0 0 0 0 0 0 0 0 0 0 0 0 127 0"/>
<feOffset dx="-3" dy="2"/>
<feColorMatrix type="matrix" values="0 0 0 0 0.0705882 0 0 0 0 0.0705882 0 0 0 0 0.0705882 0 0 0 1 0"/>
<feBlend mode="normal" in2="BackgroundImageFix" result="effect1_dropShadow"/>
<feBlend mode="normal" in="SourceGraphic" in2="effect1_dropShadow" result="shape"/>
</filter>
<filter id="filter10_d" x="180.105" y="-16.3042" width="88.5056" height="92.9543" filterUnits="userSpaceOnUse" color-interpolation-filters="sRGB">
<feFlood flood-opacity="0" result="BackgroundImageFix"/>
<feColorMatrix in="SourceAlpha" type="matrix" values="0 0 0 0 0 0 0 0 0 0 0 0 0 0 0 0 0 0 127 0"/>
<feOffset dx="-3" dy="2"/>
<feColorMatrix type="matrix" values="0 0 0 0 0.0705882 0 0 0 0 0.0705882 0 0 0 0 0.0705882 0 0 0 1 0"/>
<feBlend mode="normal" in2="BackgroundImageFix" result="effect1_dropShadow"/>
<feBlend mode="normal" in="SourceGraphic" in2="effect1_dropShadow" result="shape"/>
</filter>
</defs>
</svg>
