<svg width="224" height="168" viewBox="0 0 224 168" fill="none" xmlns="http://www.w3.org/2000/svg">
<g filter="url(#filter0_d)">
<path d="M106.025 122.595C107.23 121.793 108.745 120.296 109.47 118.365C111.017 117.397 112.137 115.795 112.916 114.144C113.466 112.979 113.847 111.789 114.088 110.78C114.225 110.205 114.317 109.689 114.37 109.269C113.219 109.958 111.002 112.13 109.892 115.879C109.843 114.357 109.225 112.682 107.694 110.935C102.687 115.099 104.634 116.487 106.025 122.595Z" fill="#1FA85B"/>
<path d="M106.859 123.428C111.032 124.26 119.877 123.761 121.88 115.099C116.039 113.434 112.701 115.932 106.859 123.428Z" fill="#1FA85B"/>
<path d="M108.528 94.2782C109.526 95.5039 110.66 97.1059 111.624 98.8251C114.153 103.336 115.514 108.655 110.197 110.102C109.122 109.795 108.357 109.291 107.831 108.631C106.303 106.712 106.785 103.478 107.491 99.946C107.784 98.4784 108.115 96.9595 108.357 95.4624C108.421 95.0657 108.479 94.6705 108.528 94.2782Z" fill="#1FA85B"/>
<path d="M123.482 97.3666C123.512 97.1596 123.534 96.9625 123.549 96.7767C120.489 97.6095 114.203 101.107 113.535 108.436C119.782 107.303 122.446 102.072 123.274 98.4839C129.155 98.7109 135.874 92.5097 138.57 89.2811C134.946 90.0562 127.226 92.7066 123.482 97.3666Z" fill="#1FA85B"/>
<path d="M124.025 92.5451C124.485 89.2144 123.183 85.2178 121.88 82.6184C118.401 84.1068 114.625 87.6639 113.728 91.3532C113.392 92.7331 113.46 94.1314 114.096 95.4469C114.614 96.5187 115.51 97.5354 116.873 98.4424C120.772 98.183 122.773 96.4845 123.616 94.2119C123.578 94.5042 123.555 94.8039 123.549 95.111C128.89 95.111 132.45 88.4483 133.563 85.1169C130.777 85.8218 125.613 88.1969 124.025 92.5451Z" fill="#1FA85B"/>
<path d="M127.981 75.389C127.291 73.4013 126.196 71.4924 125.218 70.1258C122.993 72.9019 119.711 79.6202 124.384 84.2841C127.054 83.5572 128.261 82.0006 128.581 80.127C129.686 80.0373 130.654 79.7591 131.5 79.3398C130.151 80.7949 128.859 82.6846 127.722 85.1169C136.4 85.7832 141.352 78.7318 142.743 75.1228C140.946 74.6338 137.692 74.7191 134.365 76.8959C136.284 74.3145 136.901 70.7715 136.901 68.4601C136.814 68.468 136.724 68.4779 136.632 68.4899C140.807 66.6876 142.958 58.8933 143.577 54.3018C138.554 56.8083 135.252 58.9655 133.358 60.9316C132.533 58.8313 131.125 56.999 130.283 55.256C130.775 55.3003 131.31 55.2641 131.894 55.1347C131.894 48.9271 127.444 44.775 125.218 43.4749C124.969 47.4476 125.7 54.7071 130.155 55.2426C127.096 60.004 122.593 69.8078 128.556 71.7915C130.992 71.6224 132.271 70.3201 132.801 68.4601C133.577 68.7672 134.307 68.8929 134.992 68.8661C132.597 69.6381 129.594 71.5491 127.981 75.389Z" fill="#1FA85B"/>
<path d="M118.542 70.9586C120.768 73.6655 122.866 80.1199 121.88 82.6184C115.204 79.9533 116.873 73.7348 118.542 70.9586Z" fill="#1FA85B"/>
<path d="M132.938 42.6593C131.459 48.2508 131.065 54.1388 136.067 57.6332C139.533 56.7683 141.218 54.5934 141.761 51.8033C144.982 53.1358 148.208 43.4749 149.419 38.4778C144.933 42.2659 142.754 45.3272 141.843 47.5927C141.685 46.2504 141.378 44.857 140.971 43.4631C141.212 43.5064 141.475 43.5114 141.761 43.4749C146.985 42.8086 143.479 30.427 141.074 24.3195C140.028 27.8972 138.798 33.3479 138.691 37.5254C137.839 35.7053 136.92 34.0317 136.067 32.648C135.446 35.1267 134.132 38.4124 133.156 41.8617C134.04 37.2913 129.658 30.2752 126.887 26.8181C127.722 40.1435 126.053 44.3077 131.894 44.3077C132.374 43.8287 132.715 43.2732 132.938 42.6593Z" fill="#1FA85B"/>
<path d="M145.246 37.645C148.579 37.645 150.525 30.4494 151.085 26.8349C155.163 25.8046 156.682 16.7577 156.929 11.8269C153.035 15.9911 146.081 24.8193 149.419 26.8181C150.006 26.9647 150.552 26.9648 151.058 26.8415C148.271 29.0759 143.25 34.3253 145.246 37.645Z" fill="#1FA85B"/>
<path d="M145.246 24.3195C151.254 24.3195 148.862 8.77318 146.915 1C145.037 5.77022 142.573 13.4678 142.338 18.7034C141.044 16.2915 139.151 13.6253 137.736 11.8269C138.014 16.2688 139.405 24.9858 142.743 24.3195C143.154 24.2374 143.435 24.0446 143.604 23.7625C144.029 24.1228 144.57 24.3195 145.246 24.3195Z" fill="#1FA85B"/>
<path d="M132.801 17.6568C135.837 20.7106 140.907 27.4843 136.901 30.1494C132.896 32.8145 132.499 22.9315 132.801 17.6568Z" fill="#1FA85B"/>
<path d="M99.3489 100.941C101.574 103.648 104.523 115.599 101.852 118.431C92.673 115.099 97.6799 103.717 99.3489 100.941Z" fill="#1FA85B"/>
<path d="M110.197 65.1287C115.847 78.5615 121.046 77.0547 113.463 84.874C110.114 88.3263 107.694 77.0547 110.197 65.1287Z" fill="#1FA85B"/>
<path d="M120.211 51.8033C126.053 58.466 125.886 68.2935 121.88 70.9586C117.875 73.6237 114.109 67.6273 120.211 51.8033Z" fill="#1FA85B"/>
<path d="M106.787 109.859C102.781 112.524 99.3489 98.4424 101.852 90.9468C104.208 92.5139 106.325 96.2019 107.491 99.946C106.785 103.478 106.303 106.712 107.831 108.631C107.573 109.147 107.228 109.565 106.787 109.859Z" fill="#1FA85B"/>
<path d="M114.088 110.78C116.779 107.794 121.654 103.956 128.452 103.956C123.654 112.935 116.7 114.519 112.916 114.144C113.466 112.979 113.847 111.789 114.088 110.78Z" fill="#1FA85B"/>
<path d="M101.267 121.435L102.284 119.151L104.72 114.47C103.93 116.561 105.1 118.535 106.025 122.595C106.136 122.521 106.249 122.441 106.364 122.356L105.843 123.464C104.601 126.253 103.518 129.046 102.411 131.903C101.794 133.494 101.17 135.105 100.506 136.745C97.941 143.086 96.5643 149.603 95.0967 156.55L95.0499 156.771C94.2732 160.447 93.3146 164.08 92.3745 167.642L92.1277 168.578L86.8315 169.234C86.9123 168.927 87.447 166.694 87.5277 166.388C88.4735 162.804 89.401 159.289 90.1507 155.74L90.2361 155.336C91.6762 148.518 93.1312 141.628 95.8633 134.875C96.4678 133.38 97.0662 131.837 97.6723 130.275L97.6726 130.274C98.8134 127.333 99.9812 124.322 101.267 121.435Z" fill="#1FA85B"/>
<path d="M113.728 91.3532C113.392 92.7331 113.46 94.1314 114.096 95.4469C113.974 96.8508 113.524 97.9474 112.701 98.4951C112.338 98.7367 111.978 98.841 111.624 98.8251C110.66 97.1059 109.526 95.5039 108.528 94.2782C108.479 94.6705 108.421 95.0657 108.357 95.4624C106.236 91.2846 104.504 84.1257 103.521 79.3398C108.695 79.8561 112.521 86.0696 113.728 91.3532Z" fill="#1FA85B"/>
</g>
<g filter="url(#filter1_d)">
<path d="M89.5187 131.089C90.2158 130.683 90.6444 129.911 90.8704 128.964C93.0618 128.554 93.2261 121.171 92.8159 117.07C91.5035 118.383 90.2664 120.625 89.8119 121.582C89.7215 121.427 89.6288 121.289 89.5348 121.171C88.5798 121.744 87.8971 122.53 87.451 123.222C88.598 120.859 88.7481 119.559 88.5891 118.711C90.2715 117.754 93.7182 115.183 94.0463 112.558C94.3745 109.934 95.5502 104.356 96.0971 101.895C95.6204 103.672 93.9077 107.637 90.8704 109.277C90.1891 109.645 89.6117 110.075 89.1246 110.535C89.7065 109.569 90.9314 107.227 91.1753 105.586C92.9526 104.492 96.5072 99.926 96.5072 90.4106C95.0922 92.5332 93.854 93.8166 92.8159 94.8531C92.7228 94.424 92.5749 93.8807 92.371 93.2817C95.6174 90.8208 98.5579 88.4183 98.9681 81.3875C98.8712 81.4574 98.0476 81.5268 97.2305 81.5957C96.4251 81.6635 95.6261 81.7308 95.5358 81.7976C95.7083 81.1631 95.9132 80.7672 96.1253 80.3571C96.5713 79.495 97.0495 78.5707 97.3275 75.2353C97.0236 75.5128 96.5572 75.8023 96.0304 76.1292C94.8982 76.8318 93.4877 77.7073 92.8159 79.007C92.6694 77.9322 92.4078 76.7784 92.0903 75.6454C92.9906 75.0602 93.4857 74.0257 93.7067 72.7744C98.9508 71.7901 100.766 63.0677 101.019 58.8295C99.3431 60.7435 95.4402 64.8997 93.2339 66.2121C92.9802 65.1206 92.6816 64.1236 92.4058 63.3411C92.2319 63.5665 92.0304 63.8439 91.8144 64.1614C91.7649 63.72 91.7258 63.2522 91.6855 62.7699C91.5896 61.6224 91.4869 60.3926 91.221 59.2397C91.4792 60.3334 92.6518 62.2747 95.2768 61.2904C97.8375 60.3301 98.1499 55.8724 96.604 51.0368C101.603 49.7243 101.904 40.373 101.429 35.8614C100.64 36.8879 99.5271 38.5167 98.4904 40.373C98.9772 38.5957 99.4262 34.1388 97.3275 30.5295C94.8666 34.631 94.3826 37.502 94.4195 39.1426C94.0492 37.0979 93.3855 35.1341 92.8159 33.8107C91.6289 35.3851 89.6111 39.6612 91.0355 44.1702C89.6831 42.6331 88.1689 41.6437 87.1516 41.1933C87.3991 42.4237 87.5998 44.8846 86.4223 44.8846C85.8389 50.7907 90.1682 52.9493 92.4058 53.2904C91.5985 54.5265 90.882 56.1353 90.6855 57.5991C90.4865 57.1564 90.2437 56.7421 89.9449 56.3686C89.6466 55.9958 89.3645 55.6637 89.0897 55.3401C87.8529 53.8841 86.7646 52.6028 85.0232 48.5759C85.183 50.4943 85.0313 52.1012 84.8838 53.6637C84.6529 56.1097 84.4322 58.447 85.4333 61.7005C86.7458 65.966 89.7149 65.9387 91.0355 65.3918C90.0746 67.0238 89.1246 69.1098 89.1246 70.7996C88.5331 69.8719 87.8373 68.9176 87.1516 68.2628C86.8621 67.9865 86.5516 67.7218 86.2295 67.4472C84.6392 66.0914 82.7652 64.4937 81.742 60.0599C81.742 64.9817 81.7549 72.3643 83.389 78.1063C83.2531 77.9302 83.1144 77.7518 82.973 77.5697C81.9141 76.2066 80.7012 74.6454 79.3058 72.4039C80.6133 74.5168 80.5603 76.1261 80.4728 78.7789C80.4255 80.2167 80.368 81.9611 80.5116 84.2585C80.8397 89.5083 84.4479 90.2739 86.211 90.0005C85.0712 91.7835 84.5354 93.5897 84.3939 94.5121C82.2902 92.6213 79.7796 90.7371 77.2304 89.5904C79.1991 103.043 84.3396 103.846 86.6637 102.566C86.5751 102.649 86.4862 102.733 86.3974 102.816C85.239 103.905 84.0926 104.983 83.613 106.406C82.8526 104.902 80.2655 101.813 76 101.485C76.6562 112.64 81.8829 115.156 84.4142 115.019C82.4311 117.798 82.6992 120.179 83.2022 121.171C81.3558 119.376 80.491 119.121 78.0507 119.121C80.0194 126.011 83.0258 126.914 84.8981 126.914C84.4578 128.35 84.3786 129.428 84.5226 130.225H84.5144L85.0457 133.468C85.5934 136.819 86.1487 140.216 86.9169 143.616C87.9073 147.999 89.064 152.383 90.2785 156.648C90.7736 158.386 91.2874 160.046 91.7906 161.672C92.8641 165.14 93.8892 168.451 94.5797 172.034L95.0453 174.451L99.4125 171.103C98.6699 167.249 97.5135 163.509 96.4007 159.91C95.9171 158.346 95.4417 156.808 95.0121 155.3C93.8146 151.095 92.6827 146.802 91.7176 142.531C90.9836 139.283 90.4512 136.027 89.8985 132.647L89.7694 131.858L89.5187 131.089Z" fill="#1FA85B"/>
</g>
<defs>
<filter id="filter0_d" x="83.8315" y="1" width="73.0974" height="170.234" filterUnits="userSpaceOnUse" color-interpolation-filters="sRGB">
<feFlood flood-opacity="0" result="BackgroundImageFix"/>
<feColorMatrix in="SourceAlpha" type="matrix" values="0 0 0 0 0 0 0 0 0 0 0 0 0 0 0 0 0 0 127 0"/>
<feOffset dx="-3" dy="2"/>
<feColorMatrix type="matrix" values="0 0 0 0 1 0 0 0 0 1 0 0 0 0 1 0 0 0 1 0"/>
<feBlend mode="normal" in2="BackgroundImageFix" result="effect1_dropShadow"/>
<feBlend mode="normal" in="SourceGraphic" in2="effect1_dropShadow" result="shape"/>
</filter>
<filter id="filter1_d" x="73" y="30.5295" width="28.5894" height="145.921" filterUnits="userSpaceOnUse" color-interpolation-filters="sRGB">
<feFlood flood-opacity="0" result="BackgroundImageFix"/>
<feColorMatrix in="SourceAlpha" type="matrix" values="0 0 0 0 0 0 0 0 0 0 0 0 0 0 0 0 0 0 127 0"/>
<feOffset dx="-3" dy="2"/>
<feColorMatrix type="matrix" values="0 0 0 0 1 0 0 0 0 1 0 0 0 0 1 0 0 0 1 0"/>
<feBlend mode="normal" in2="BackgroundImageFix" result="effect1_dropShadow"/>
<feBlend mode="normal" in="SourceGraphic" in2="effect1_dropShadow" result="shape"/>
</filter>
</defs>
</svg>
