<svg width="256" height="255" viewBox="0 0 256 255" fill="none" xmlns="http://www.w3.org/2000/svg">
<path d="M30.1567 88.976C23.4144 85.5926 13.3008 76.2883 17.5148 67.8297C28.7521 57.9615 55.4406 41.6084 89.1525 55.142C131.292 72.059 211.358 110.122 219.786 148.186C228.214 186.249 224 228.541 207.144 207.395C190.288 186.249 38.5847 93.2053 30.1567 88.976Z" fill="#FDB200"/>
<path d="M21.7288 156.644C-5.24074 132.96 -2.15048 104.483 4.87283 88.976C9.08681 84.7468 17.5719 86.1975 21.7166 88.976C183.403 187.606 198.716 203.166 202.93 220.083C204.974 228.289 201.244 230.233 177.646 237C63.8686 215.854 55.4406 186.249 21.7288 156.644Z" fill="#FDB200"/>
<path d="M46.1567 72.976C39.4144 69.5926 29.3008 60.2883 33.5148 51.8297C44.7521 41.9615 71.4406 25.6084 105.153 39.142C147.292 56.059 227.358 94.1223 235.786 132.186C244.214 170.249 240 212.541 223.144 191.395C206.288 170.249 54.5847 77.2053 46.1567 72.976Z" fill="#423FE1"/>
<path d="M37.7288 140.644C10.7593 116.96 13.8495 88.4833 20.8728 72.976C25.0868 68.7468 33.5719 70.1975 37.7166 72.976C199.403 171.606 214.716 187.166 218.93 204.083C220.974 212.289 217.244 214.233 193.646 221C79.8686 199.854 71.4406 170.249 37.7288 140.644Z" fill="#423FE1"/>
</svg>
