<svg width="672" height="636" viewBox="0 0 672 636" fill="none" xmlns="http://www.w3.org/2000/svg">
<mask id="mask0" mask-type="alpha" maskUnits="userSpaceOnUse" x="0" y="309" width="672" height="315">
<rect y="309" width="672" height="315" fill="#C4C4C4"/>
</mask>
<g mask="url(#mask0)">
<g filter="url(#filter0_d)">
<path d="M106.317 531.054C104.123 529.594 101.364 526.868 100.043 523.351C90.8842 515.731 87.0499 510.535 93.7668 515.663C92.765 513.541 92.0722 511.374 91.6331 509.536C88.5439 512.776 87.1455 503.829 87.0499 503.065C90.5206 503.065 96.0035 504.416 98.6901 508.294C99.8055 509.905 100.439 511.951 100.246 514.516C100.149 515.815 99.8394 517.247 99.2738 518.823C99.3186 517.45 99.6172 516.008 100.246 514.516C100.887 512.996 101.87 511.424 103.278 509.819C105.388 511.574 106.82 513.058 107.743 514.441C110.81 519.033 108.264 522.505 106.317 531.054Z" fill="#1FA85B"/>
<path d="M106.937 532.571C99.3377 534.088 83.2278 533.178 79.5802 517.403C90.2189 514.369 103.897 516.257 106.937 532.571Z" fill="#1FA85B"/>
<path d="M101.758 479.483C99.9407 481.715 97.8765 484.633 96.1211 487.764C91.5195 495.972 89.0396 505.647 98.6901 508.294C98.6995 508.297 98.709 508.3 98.7185 508.302C100.678 507.744 102.07 506.825 103.028 505.622C105.81 502.129 104.932 496.238 103.648 489.805C103.114 487.133 102.51 484.366 102.07 481.64C101.953 480.917 101.848 480.197 101.758 479.483Z" fill="#1FA85B"/>
<path d="M74.5231 485.108C74.47 484.731 74.4297 484.372 74.4015 484.033C79.9741 485.55 91.4234 491.921 92.6392 505.269C81.2628 503.204 76.411 493.677 74.9035 487.143C64.1923 487.556 51.9547 476.262 47.0449 470.382C53.6453 471.794 67.7043 476.621 74.5231 485.108Z" fill="#1FA85B"/>
<path d="M73.5348 476.327C72.6976 470.261 75.0694 462.982 77.4411 458.248C83.7785 460.958 90.6552 467.437 92.2885 474.156C92.8994 476.669 93.7668 483.384 92.7717 485.885C91.8278 487.837 91.0266 491.278 88.5439 492.93C81.4435 492.458 75.8146 483.501 74.2798 479.362C74.3498 479.895 74.3912 480.44 74.4015 481C64.6747 481 58.1902 468.865 56.1638 462.798C61.2379 464.082 70.6422 468.407 73.5348 476.327Z" fill="#1FA85B"/>
<path d="M66.3305 445.081C67.5863 441.461 69.5806 437.985 71.3619 435.496C75.4147 440.552 82.0457 459.463 73.5348 467.958C68.6711 466.634 65.8208 457.123 65.2375 453.71C63.2255 453.547 61.4626 453.04 59.9218 452.277C62.3776 454.927 64.7311 458.368 66.8024 462.798C50.9964 464.012 41.9789 451.169 39.4458 444.597C42.7179 443.706 48.6446 443.861 54.7034 447.826C51.2083 443.124 50.0845 436.672 50.0845 432.462C50.2434 432.477 50.4071 432.495 50.5753 432.516C42.9706 429.234 39.0534 415.039 37.926 406.676C47.0739 411.241 53.0884 415.17 56.5371 418.751C58.0395 414.926 60.604 411.589 62.1378 408.414C61.2424 408.495 60.2664 408.429 59.2034 408.193C59.2034 396.888 67.309 389.326 71.3619 386.958C71.815 394.193 70.485 407.415 62.3699 408.39C67.9418 417.061 76.1425 434.917 65.2826 438.529C60.8459 438.221 58.5166 435.85 57.5511 432.462C56.1379 433.021 54.8089 433.25 53.5611 433.202C57.9237 434.607 63.393 438.088 66.3305 445.081Z" fill="#1FA85B"/>
<path d="M83.5204 437.013C79.4675 441.942 75.6462 453.697 77.4411 458.248C89.5996 453.394 86.56 442.069 83.5204 437.013Z" fill="#1FA85B"/>
<path d="M57.3028 385.473C59.9952 395.656 60.7138 406.38 51.6043 412.744C45.291 411.168 42.2217 407.208 41.2329 402.126C35.3674 404.553 29.4919 386.958 27.2874 377.857C35.4569 384.756 39.4244 390.332 41.0837 394.458C41.3725 392.013 41.9304 389.475 42.6724 386.937C42.2337 387.015 41.7547 387.025 41.2329 386.958C31.7199 385.745 38.1042 363.195 42.4855 352.072C44.3897 358.587 46.6306 368.514 46.8248 376.123C48.3772 372.808 50.0504 369.76 51.6043 367.24C52.7352 371.754 55.1282 377.738 56.905 384.02C55.2952 375.696 63.2752 362.918 68.3223 356.622C66.8024 380.891 69.8421 388.475 59.2034 388.475C58.3293 387.603 57.7083 386.591 57.3028 385.473Z" fill="#1FA85B"/>
<path d="M34.8864 376.34C28.8166 376.34 25.2719 363.236 24.2525 356.653C16.8262 354.776 14.059 338.3 13.6091 329.32C20.7015 336.904 33.3666 352.982 27.2874 356.622C26.2174 356.889 25.2234 356.889 24.3011 356.665C29.3781 360.734 38.5212 370.294 34.8864 376.34Z" fill="#1FA85B"/>
<path d="M34.8864 352.072C23.9438 352.072 28.3006 323.758 31.8468 309.601C35.2666 318.289 39.7548 332.308 40.1832 341.843C42.5399 337.451 45.9862 332.595 48.5647 329.32C48.0581 337.409 45.5251 353.285 39.4458 352.072C38.6962 351.922 38.1854 351.571 37.8763 351.057C37.1035 351.713 36.1174 352.072 34.8864 352.072Z" fill="#1FA85B"/>
<path d="M57.5511 339.937C52.0226 345.499 42.7894 357.835 50.0845 362.689C57.3796 367.543 58.1019 349.544 57.5511 339.937Z" fill="#1FA85B"/>
<path d="M116.259 492.93C113.95 495.739 109.667 501.318 108.189 508.088C107.746 510.113 107.555 512.245 107.743 514.441C108.03 517.789 109.197 521.286 111.7 524.783C128.418 518.716 119.299 497.986 116.259 492.93Z" fill="#1FA85B"/>
<path d="M98.7185 426.395C88.4297 450.859 78.9609 448.115 92.7717 462.356C98.8694 468.643 103.278 448.115 98.7185 426.395Z" fill="#1FA85B"/>
<path d="M80.4807 402.126C69.8421 414.26 70.146 432.159 77.4411 437.013C84.7362 441.866 91.5947 430.945 80.4807 402.126Z" fill="#1FA85B"/>
<path d="M104.93 507.86C106.053 508.607 107.151 508.631 108.189 508.088C113.893 505.103 117.774 484.966 113.917 473.416C109.627 476.27 105.77 482.986 103.648 489.805C104.932 496.238 105.81 502.129 103.028 505.622C103.497 506.563 104.126 507.325 104.93 507.86Z" fill="#1FA85B"/>
<path d="M91.6331 509.536C86.7317 504.098 77.8531 497.108 65.4726 497.108C74.2114 513.461 86.8756 516.346 93.7668 515.663C92.765 513.541 92.0722 511.374 91.6331 509.536Z" fill="#1FA85B"/>
<path d="M114.982 528.941L113.131 524.783L108.695 516.257C110.132 520.065 108.001 523.661 106.317 531.054C106.116 530.92 105.909 530.775 105.699 530.62L106.649 532.637C108.912 537.717 110.883 542.804 112.9 548.007C114.023 550.904 115.16 553.838 116.368 556.826C121.04 568.374 123.547 580.242 126.22 592.894L126.305 593.298C127.72 599.993 129.466 606.609 131.178 613.096L131.627 614.8L141.273 615.995C141.126 615.436 140.152 611.369 140.005 610.813C138.283 604.284 136.594 597.883 135.228 591.42L135.073 590.683C132.45 578.266 129.8 565.719 124.824 553.419C123.723 550.697 122.633 547.887 121.53 545.042L121.529 545.04C119.451 539.684 117.324 534.2 114.982 528.941Z" fill="#1FA85B"/>
<path d="M92.2885 474.156C92.8994 476.669 93.7668 483.384 92.7717 485.885C92.9945 488.442 92.6597 486.165 94.159 487.163C94.8201 487.603 95.4749 487.793 96.1211 487.764C97.8765 484.633 99.9407 481.715 101.758 479.483C101.848 480.197 101.953 480.917 102.07 481.64C105.932 474.031 109.088 460.993 110.877 452.277C101.455 453.217 94.4866 464.533 92.2885 474.156Z" fill="#1FA85B"/>
<path d="M100.246 514.516C100.887 512.996 101.87 511.424 103.278 509.819C105.388 511.574 106.82 513.058 107.743 514.441C107.555 512.245 107.746 510.113 108.189 508.088C107.151 508.631 106.053 508.607 104.93 507.86C104.126 507.325 103.497 506.563 103.028 505.622C102.07 506.825 100.678 507.744 98.7185 508.302C98.709 508.3 98.6995 508.297 98.6901 508.294C99.8055 509.905 100.439 511.951 100.246 514.516Z" fill="#1FA85B"/>
</g>
<g filter="url(#filter1_d)">
<path d="M136.379 546.525C135.11 545.785 134.329 544.379 133.917 542.655C129.926 541.908 129.627 528.462 130.374 520.992C132.764 523.383 135.017 527.466 135.845 529.209C136.01 528.927 136.179 528.676 136.35 528.462C138.089 529.506 139.333 530.937 140.145 532.197C138.056 527.892 137.783 525.526 138.072 523.98C135.008 522.237 128.731 517.556 128.133 512.776C127.536 507.995 125.394 497.836 124.398 493.355C125.267 496.591 128.386 503.812 133.917 506.8C135.158 507.47 136.21 508.253 137.097 509.09C136.037 507.331 133.806 503.065 133.362 500.077C130.125 498.085 123.651 489.769 123.651 472.439C126.229 476.305 128.483 478.642 130.374 480.53C130.544 479.749 130.813 478.759 131.184 477.668C125.272 473.186 119.917 468.811 119.17 456.006C119.346 456.133 120.846 456.26 122.334 456.385C123.801 456.509 125.256 456.631 125.421 456.753C125.106 455.597 124.733 454.876 124.347 454.13C123.535 452.559 122.664 450.876 122.157 444.801C122.711 445.307 123.56 445.834 124.52 446.429C126.582 447.709 129.151 449.303 130.374 451.671C130.641 449.713 131.117 447.612 131.696 445.548C130.056 444.483 129.154 442.598 128.752 440.32C119.201 438.527 115.894 422.641 115.435 414.923C118.487 418.408 125.595 425.978 129.613 428.368C130.075 426.38 130.619 424.564 131.121 423.139C131.438 423.55 131.805 424.055 132.198 424.633C132.288 423.829 132.359 422.977 132.433 422.099C132.607 420.009 132.795 417.769 133.279 415.67C132.809 417.662 130.673 421.197 125.892 419.404C121.229 417.656 120.66 409.537 123.475 400.73C114.371 398.34 113.823 381.309 114.688 373.092C116.124 374.962 118.151 377.928 120.04 381.309C119.153 378.072 118.335 369.955 122.157 363.382C126.639 370.851 127.521 376.08 127.454 379.068C128.128 375.344 129.337 371.768 130.374 369.357C132.536 372.225 136.211 380.013 133.617 388.224C136.08 385.425 138.838 383.623 140.69 382.803C140.239 385.044 139.874 389.526 142.018 389.526C143.081 400.282 135.196 404.213 131.121 404.835C132.591 407.086 133.896 410.016 134.254 412.682C134.617 411.875 135.059 411.121 135.603 410.441C136.146 409.762 136.66 409.157 137.161 408.568C139.413 405.916 141.395 403.582 144.567 396.248C144.275 399.742 144.552 402.669 144.82 405.514C145.241 409.969 145.643 414.226 143.82 420.151C141.429 427.92 136.022 427.87 133.617 426.874C135.367 429.846 137.097 433.645 137.097 436.723C138.174 435.033 139.441 433.295 140.69 432.103C141.217 431.6 141.783 431.118 142.37 430.617C145.266 428.148 148.679 425.239 150.542 417.164C150.542 426.127 150.519 439.573 147.543 450.03C147.79 449.71 148.043 449.384 148.3 449.053C150.229 446.571 152.438 443.727 154.979 439.645C152.598 443.493 152.695 446.424 152.854 451.255C152.94 453.874 153.045 457.051 152.783 461.235C152.186 470.796 145.614 472.19 142.403 471.692C144.479 474.94 145.455 478.229 145.713 479.909C149.544 476.465 154.116 473.034 158.759 470.945C155.174 495.446 145.812 496.908 141.579 494.576C141.74 494.729 141.902 494.881 142.064 495.033C144.174 497.016 146.261 498.978 147.135 501.571C148.52 498.832 153.231 493.205 161 492.608C159.805 512.925 150.286 517.507 145.676 517.258C149.287 522.318 148.799 526.654 147.883 528.462C151.246 525.192 152.821 524.727 157.265 524.727C153.68 537.276 148.204 538.92 144.794 538.92C145.596 541.537 145.741 543.5 145.478 544.951H145.493L144.526 550.857C143.528 556.96 142.517 563.147 141.118 569.339C139.314 577.322 137.207 585.305 134.995 593.073C134.094 596.239 133.158 599.262 132.242 602.222C130.286 608.539 128.419 614.569 127.162 621.096L126.314 625.496L118.36 619.4C119.713 612.381 121.819 605.569 123.845 599.014C124.726 596.166 125.592 593.365 126.374 590.618C128.555 582.959 130.617 575.142 132.374 567.363C133.711 561.447 134.681 555.517 135.687 549.362L135.923 547.924L136.379 546.525Z" fill="#1FA85B"/>
</g>
<g filter="url(#filter2_d)">
<path d="M253.114 455.638C266.585 436.689 280.519 434.584 285.802 435.9C286.528 436.081 287.783 436.295 287.783 437.874C287.783 439.848 274.906 450.703 265.991 467.48C257.859 482.784 252.123 492.482 250.142 494.127C245.519 489.192 239.642 474.586 253.114 455.638Z" fill="#423FE1"/>
<path d="M269.953 464.52C273.25 458.772 284.811 444.453 288.773 440.834C290.094 439.519 292.736 438.071 292.736 442.808C291.943 467.283 284.481 479.981 280.849 483.271C274.245 488.534 258.463 497.285 252.123 494.127C261.038 483.271 265.991 471.428 269.953 464.52Z" fill="#423FE1"/>
<path d="M326.414 460.572C329.159 462.623 331.448 464.624 333.348 466.551C325.424 441.878 340.282 429.049 342.263 426.088C344.244 423.128 360.093 415.232 361.083 419.18C362.129 423.347 371.98 438.918 364.055 457.669C357.716 472.67 346.886 477.078 342.263 477.407C341.832 477.299 341.155 476.947 340.3 476.246C342.354 480.845 342.113 484.39 341.273 486.231C336.32 488.534 322.65 491.363 307.594 484.258C292.538 477.152 291.415 463.533 292.736 457.612C296.368 453.006 308.188 447.151 326.414 460.572Z" fill="#423FE1"/>
<path d="M330.376 536.563C316.113 518.404 320.471 503.337 324.433 498.074C333.15 508.747 353.159 538.049 362.074 551.366C357.451 553.998 344.64 554.722 330.376 536.563Z" fill="#423FE1"/>
<path d="M363.065 549.392L326.414 497.087C333.348 494.784 349.791 494.916 360.093 513.864C370.395 532.813 366.366 545.445 363.065 549.392Z" fill="#423FE1"/>
<path d="M275.896 508.93C274.311 508.14 271.934 505.969 272.925 503.995C275.566 501.693 281.84 497.877 289.764 501.035C299.669 504.982 318.49 513.864 320.471 522.746C322.452 531.628 321.462 541.497 317.499 536.563C313.537 531.628 277.877 509.917 275.896 508.93Z" fill="#423FE1"/>
<path d="M273.915 524.72C267.576 519.194 268.302 512.548 269.953 508.93C270.944 507.943 272.938 508.282 273.912 508.93C311.919 531.945 315.518 535.576 316.509 539.524C316.989 541.438 316.113 541.892 310.566 543.471C283.821 538.537 281.84 531.628 273.915 524.72Z" fill="#423FE1"/>
<path d="M372.97 489.192C361.083 472.612 363.395 459.914 366.036 455.638C369.998 457.217 392.121 489.192 402.687 504.982L400.705 506.956C399.715 507.943 387.828 509.917 372.97 489.192Z" fill="#423FE1"/>
<path d="M394.762 469.454C384.46 453.664 371.98 453.006 367.027 454.651C369.008 455.638 401.696 500.048 403.677 503.995C407.639 493.14 407.639 489.192 394.762 469.454Z" fill="#423FE1"/>
<path fill-rule="evenodd" clip-rule="evenodd" d="M333.348 438.576C340.282 426.733 338.301 406.008 327.405 397.126C326.506 396.394 326.291 396.347 325.424 396.139C325.424 396.139 324.346 396.003 324.186 396.665C324.039 397.27 322.712 440.102 322.485 447.458C322.464 448.149 323.443 448.445 323.443 448.445C326.039 448.019 329.141 445.761 333.348 438.576ZM319.48 448.445C306.603 443.51 307.594 428.707 307.594 424.759C307.594 421.43 312.942 398.158 321.462 396.139C321.462 396.139 322.382 396.204 322.417 396.665C322.449 397.088 320.784 440.338 320.509 447.458C320.459 448.755 319.48 448.445 319.48 448.445Z" fill="#423FE1"/>
</g>
<g filter="url(#filter3_d)">
<mask id="mask1" mask-type="alpha" maskUnits="userSpaceOnUse" x="479" y="359" width="185" height="250">
<path d="M515.192 605.966C505.657 603.959 493.238 596.766 488.22 593.421C488.22 591.539 489.475 592.794 489.475 589.657C489.475 587.148 489.893 586.521 490.102 586.521C491.565 586.73 493.865 586.521 491.356 584.012C488.847 581.503 488.22 576.694 488.22 574.604V546.378L488.847 508.743L489.475 501.216C489.475 499.753 489.349 496.324 488.847 494.317C488.346 492.31 488.22 479.681 488.22 473.618C488.429 464.418 488.847 443.761 488.847 434.729C488.847 423.438 486.338 414.03 486.338 410.894C486.338 408.385 484.248 406.085 483.202 405.248C482.993 405.039 482.7 403.743 483.202 400.23C482.575 394.585 483.202 398.349 480.693 392.076C478.686 387.058 479.439 380.786 480.066 378.277C480.902 377.023 482.951 373.635 484.457 370.123C484.958 366.61 486.338 365.732 486.966 365.732C497.629 364.687 521.589 362.22 532.127 360.714C545.299 358.833 577.288 359.46 587.324 359.46C595.353 359.46 601.124 360.714 603.005 361.342C604.051 361.969 607.898 363.349 614.923 363.85C636.876 363.85 638.758 364.478 639.385 364.478C640.013 364.478 641.267 365.732 642.522 365.732C643.776 365.732 647.54 366.359 647.54 368.241C647.54 370.123 635.622 375.768 635.622 376.395C635.622 377.023 640.64 378.904 641.894 380.159C643.149 381.413 642.522 383.295 642.522 383.922C642.522 384.549 645.031 385.804 645.658 386.431C646.285 387.058 648.167 390.822 648.167 391.449C649.421 391.449 650.676 393.958 651.303 393.958C651.93 393.958 655.694 395.213 656.321 401.485C657.575 435.356 657.575 488.044 657.575 492.435V505.607C656.948 506.234 655.945 507.614 656.948 508.116C657.952 508.618 658.203 512.089 658.203 513.761C658.621 530.07 659.708 564.191 660.712 570.213C661.715 576.234 661.13 583.594 660.712 586.521C660.712 587.148 661.213 588.779 663.221 590.285C665.102 595.93 663.221 595.303 661.339 595.93C659.833 596.432 657.366 596.557 656.321 596.557C655.903 596.557 654.816 596.808 653.812 597.812C631.733 601.324 568.089 605.966 539.027 607.847C537.145 608.057 533.382 608.349 533.382 607.847C533.382 607.346 532.545 607.22 532.127 607.22C528.573 607.429 521.339 607.722 520.837 607.22C520.209 606.593 518.328 605.966 515.192 605.966Z" fill="#F94B55"/>
</mask>
<g mask="url(#mask1)">
<path d="M515.192 605.966C505.657 603.959 493.238 596.766 488.22 593.421C488.22 591.539 489.475 592.794 489.475 589.657C489.475 587.148 489.893 586.521 490.102 586.521C491.565 586.73 493.865 586.521 491.356 584.012C488.847 581.503 488.22 576.694 488.22 574.604V546.378L488.847 508.743L489.475 501.216C489.475 499.753 489.349 496.324 488.847 494.317C488.346 492.31 488.22 479.681 488.22 473.618C488.429 464.418 488.847 443.761 488.847 434.729C488.847 423.438 486.338 414.03 486.338 410.894C486.338 408.385 484.248 406.085 483.202 405.248C482.993 405.039 482.7 403.743 483.202 400.23C482.575 394.585 483.202 398.349 480.693 392.076C478.686 387.058 479.439 380.786 480.066 378.277C480.902 377.023 482.951 373.635 484.457 370.123C484.958 366.61 486.338 365.732 486.966 365.732C497.629 364.687 521.589 362.22 532.127 360.714C545.299 358.833 577.288 359.46 587.324 359.46C595.353 359.46 601.124 360.714 603.005 361.342C604.051 361.969 607.898 363.349 614.923 363.85C636.876 363.85 638.758 364.478 639.385 364.478C640.013 364.478 641.267 365.732 642.522 365.732C643.776 365.732 647.54 366.359 647.54 368.241C647.54 370.123 635.622 375.768 635.622 376.395C635.622 377.023 640.64 378.904 641.894 380.159C643.149 381.413 642.522 383.295 642.522 383.922C642.522 384.549 645.031 385.804 645.658 386.431C646.285 387.058 648.167 390.822 648.167 391.449C649.421 391.449 650.676 393.958 651.303 393.958C651.93 393.958 655.694 395.213 656.321 401.485C657.575 435.356 657.575 488.044 657.575 492.435V505.607C656.948 506.234 655.945 507.614 656.948 508.116C657.952 508.618 658.203 512.089 658.203 513.761C658.621 530.07 659.708 564.191 660.712 570.213C661.715 576.234 661.13 583.594 660.712 586.521C660.712 587.148 661.213 588.779 663.221 590.285C665.102 595.93 663.221 595.303 661.339 595.93C659.833 596.432 657.366 596.557 656.321 596.557C655.903 596.557 654.816 596.808 653.812 597.812C631.733 601.324 568.089 605.966 539.027 607.847C537.145 608.057 533.382 608.349 533.382 607.847C533.382 607.346 532.545 607.22 532.127 607.22C528.573 607.429 521.339 607.722 520.837 607.22C520.209 606.593 518.328 605.966 515.192 605.966Z" fill="#F15A38"/>
<path d="M488.8 429.61C492.354 433.165 502.097 440.775 512.635 442.783C522.671 441.528 520.789 439.646 553.406 439.019C586.022 438.392 602.958 444.037 631.184 441.528C650.992 439.767 657.446 436.912 658.168 435.25L658.155 434.628C658.258 434.808 658.269 435.017 658.168 435.25L659.41 494.844C653.555 496.934 635.951 500.74 617.384 499.234C594.176 497.353 568.46 498.607 550.897 498.607C536.847 498.607 519.953 499.234 512.635 499.862C506.363 498.816 492.061 490.829 487.545 484.808C483.029 478.786 486.5 445.501 488.8 429.61Z" fill="white"/>
<path d="M568.347 459.978C568.347 459.978 563.833 459.355 560.93 459.282C558.075 459.21 553.637 459.593 553.637 459.593V463.055L559.049 462.996L559.146 479.934L562.838 480.031V463.095L568.347 463.44V459.978Z" fill="#F15A38"/>
<path d="M575.107 461.124L570.376 460.752V464.215L571.53 464.245V480.258L575.107 480.785V461.124Z" fill="#F15A38"/>
<path d="M585.999 467.798C584.586 467.761 583.316 468.131 582.48 468.831L582.422 468.829L582.884 464.34L590.412 465.072V461.524L580.23 461.01L579.221 472.006L582.163 472.083C582.797 471.118 583.893 470.599 585.162 470.632C587.181 470.685 588.451 472.046 588.451 474.181C588.451 476.46 587.095 477.81 584.903 477.752C583.143 477.706 581.701 476.889 580.576 475.215L578.125 477.575C579.596 479.748 581.815 481.155 584.757 481.232C589.257 481.35 591.654 479.439 591.654 475.14C591.654 471.303 589.72 467.895 585.999 467.798Z" fill="#F15A38"/>
<path d="M601.011 461.122C596.252 460.997 593.599 463.309 593.599 469.829C593.599 476.35 596.252 481.339 601.011 481.463C605.742 481.587 608.424 479.247 608.424 472.727C608.424 466.206 605.77 461.246 601.011 461.122ZM601.011 464.469C603.348 464.53 604.732 468.331 604.732 472.63C604.732 476.929 603.348 478.177 601.011 478.116C598.646 478.054 597.262 474.224 597.262 469.925C597.262 465.626 598.646 464.407 601.011 464.469Z" fill="#F15A38"/>
<path d="M506.077 377.968C508.464 380.388 512.218 384.968 517.557 392.917C515.469 395.434 510.311 401.256 503.16 408.509C512.457 395.224 508.979 382.613 506.077 377.968Z" fill="white"/>
<path d="M539.606 375.04C534.993 375.271 529.319 374.98 523.925 374.497C528.525 375.515 534.877 381.361 539.606 380.686C543.997 380.058 545.058 377.092 547.133 375.04C546.772 375.449 547.804 374.413 547.133 375.04C544.471 375.01 541.907 374.925 539.606 375.04Z" fill="white"/>
<path d="M635.574 376.295C633.274 375.668 622.402 374.413 618.012 376.295C614.248 377.549 613.412 379.849 612.994 380.058C619.893 378.804 635.574 378.804 635.574 376.295Z" fill="white"/>
<path d="M500.09 374.413C496.954 376.922 491.936 381.313 489.427 373.159C494.445 373.786 495.346 375.963 500.09 374.413Z" fill="white"/>
<path d="M489.427 373.159C488.31 369.528 485.873 368.768 484.409 368.141L481.9 374.413C482.318 374.622 486.918 370.148 489.427 373.159Z" fill="white"/>
<path d="M547.133 375.04C556.083 375.144 566.134 378.948 570.968 379.431C574.038 379.738 588.523 380.045 593.035 377.856C573.166 377.746 553.981 372.483 547.133 375.04Z" fill="white"/>
</g>
</g>
</g>
<path d="M50.5104 190.336C48.1437 190.336 45.9191 189.981 43.8364 189.271C41.8011 188.561 39.2214 187.212 36.0974 185.224C32.9734 183.236 28.5004 180.112 22.6784 175.852C18.8444 175.852 15.4364 174.929 12.4544 173.083C9.47239 171.237 7.15305 168.657 5.49639 165.344C3.83972 161.983 3.01139 158.173 3.01139 153.913C3.01139 149.274 4.02905 145.062 6.06439 141.275C8.14705 137.441 10.9634 134.435 14.5134 132.258C18.1107 130.033 22.0631 128.921 26.3704 128.921C30.2991 128.921 33.7781 129.844 36.8074 131.69C39.8367 133.536 42.2034 136.116 43.9074 139.429C45.6114 142.742 46.4634 146.529 46.4634 150.789C46.4634 154.67 45.7297 158.291 44.2624 161.652C42.7951 164.965 40.7361 167.782 38.0854 170.101C35.4347 172.42 32.4291 174.053 29.0684 175V175.355C34.0857 178.763 38.2511 181.177 41.5644 182.597C44.9251 184.017 48.0254 184.727 50.8654 184.727C52.2381 184.727 53.5161 184.609 54.6994 184.372C55.9301 184.183 56.5454 184.064 56.5454 184.017L56.8294 184.23L57.2554 185.508C56.9714 185.745 56.3797 186.242 55.4804 186.999C54.5811 187.804 53.6344 188.561 52.6404 189.271C51.6464 189.981 50.9364 190.336 50.5104 190.336ZM24.8794 172.231C27.8614 172.231 30.5121 171.45 32.8314 169.888C35.1507 168.326 36.9494 166.149 38.2274 163.356C39.5054 160.563 40.1444 157.368 40.1444 153.771C40.1444 149.748 39.4581 146.198 38.0854 143.121C36.7127 139.997 34.7957 137.559 32.3344 135.808C29.9204 134.057 27.1277 133.181 23.9564 133.181C21.0691 133.181 18.4894 133.962 16.2174 135.524C13.9927 137.086 12.2414 139.263 10.9634 142.056C9.73272 144.849 9.11739 148.044 9.11739 151.641C9.11739 155.664 9.78005 159.238 11.1054 162.362C12.4307 165.439 14.2767 167.853 16.6434 169.604C19.0574 171.355 21.8027 172.231 24.8794 172.231ZM56.0672 150.363C56.0672 147.807 55.1916 146.529 53.4402 146.529C53.1089 146.529 52.7539 146.576 52.3752 146.671C51.9966 146.718 51.7599 146.766 51.6652 146.813L51.9492 144.186C53.7952 143.902 55.7832 143.523 57.9132 143.05C60.0432 142.529 61.4396 142.198 62.1022 142.056L62.5282 142.908C62.0549 144.139 61.6289 146.931 61.2502 151.286C60.8716 155.641 60.6822 159.877 60.6822 163.995C60.6822 168.634 62.5756 170.953 66.3622 170.953C67.7822 170.953 69.1076 170.622 70.3382 169.959C71.5689 169.249 73.1072 168.231 74.9532 166.906V150.434C74.9532 149.014 74.6929 148.02 74.1722 147.452C73.6516 146.884 72.7286 146.6 71.4032 146.6L69.6992 146.671L69.9832 144.115C72.0659 143.831 74.2432 143.452 76.5152 142.979C78.7872 142.506 80.2546 142.198 80.9172 142.056L81.3432 142.908C80.9172 143.997 80.5386 146.955 80.2072 151.783C79.9232 156.611 79.7812 161.865 79.7812 167.545C79.7812 168.586 80.0416 169.391 80.5622 169.959C81.0829 170.527 81.7929 170.811 82.6922 170.811C83.3549 170.811 83.9939 170.693 84.6092 170.456C85.2719 170.172 85.7926 169.888 86.1712 169.604C86.5972 169.32 86.8576 169.131 86.9522 169.036L87.9462 170.172C87.7569 170.456 87.3072 171.048 86.5972 171.947C85.9346 172.846 85.1299 173.722 84.1832 174.574C83.2839 175.426 82.4792 175.852 81.7692 175.852C77.9352 175.852 75.8289 173.935 75.4502 170.101L75.0952 169.959C72.8232 171.71 70.7642 173.13 68.9182 174.219C67.1196 175.308 65.8889 175.852 65.2262 175.852C62.1969 175.852 59.8539 175.142 58.1972 173.722C56.5879 172.302 55.7832 170.267 55.7832 167.616L56.0672 150.363ZM105.555 175.852C102.621 175.852 100.017 175.213 97.7454 173.935C95.4734 172.61 93.722 170.764 92.4914 168.397C91.2607 165.983 90.6454 163.238 90.6454 160.161C90.6454 156.99 91.3554 154.008 92.7754 151.215C94.2427 148.422 96.1834 146.198 98.5974 144.541C101.011 142.884 103.591 142.056 106.336 142.056C109.792 142.056 112.419 142.932 114.217 144.683C116.016 146.434 116.915 148.99 116.915 152.351C116.915 153.724 116.773 154.883 116.489 155.83L115.566 156.682H95.9704C95.923 161.273 96.8224 164.823 98.6684 167.332C100.562 169.793 103.189 171.024 106.549 171.024C109.2 171.024 112.087 170.29 115.211 168.823L115.637 168.965L116.418 171.024C114.714 172.255 112.821 173.367 110.738 174.361C108.703 175.355 106.975 175.852 105.555 175.852ZM109.105 153.416C109.815 153.321 110.289 153.156 110.525 152.919C110.762 152.682 110.88 152.209 110.88 151.499C110.88 149.606 110.36 148.162 109.318 147.168C108.324 146.174 106.881 145.677 104.987 145.677C102.763 145.677 100.846 146.434 99.2364 147.949C97.6744 149.464 96.6804 151.499 96.2544 154.055L109.105 153.416ZM146.131 175.852C144.616 175.852 143.22 175.734 141.942 175.497C140.711 175.308 139.741 175.095 139.031 174.858C138.321 174.621 137.871 174.456 137.682 174.361L137.469 173.864C137.611 173.154 137.776 171.687 137.966 169.462C138.155 167.237 138.273 165.533 138.321 164.35L140.806 163.995C140.806 167.119 141.326 169.32 142.368 170.598C143.409 171.876 145.184 172.515 147.693 172.515C149.491 172.515 151.006 172.113 152.237 171.308C153.467 170.503 154.083 169.509 154.083 168.326C154.083 167.143 153.515 166.078 152.379 165.131C151.29 164.137 149.113 162.764 145.847 161.013C143.149 159.64 141.184 158.244 139.954 156.824C138.723 155.404 138.108 153.842 138.108 152.138C138.108 150.245 138.676 148.541 139.812 147.026C140.948 145.464 142.51 144.257 144.498 143.405C146.486 142.506 148.71 142.056 151.172 142.056C152.308 142.056 153.396 142.151 154.438 142.34C155.479 142.482 156.331 142.648 156.994 142.837C157.656 143.026 158.082 143.145 158.272 143.192L158.414 143.547C158.319 144.02 158.106 145.109 157.775 146.813C157.443 148.47 157.207 150.268 157.065 152.209L154.438 152.422C154.438 152.28 154.461 151.996 154.509 151.57C154.556 151.144 154.58 150.742 154.58 150.363C154.58 148.659 154.106 147.428 153.16 146.671C152.26 145.866 150.793 145.464 148.758 145.464C147.148 145.464 145.776 145.843 144.64 146.6C143.551 147.357 143.007 148.28 143.007 149.369C143.007 150.505 143.48 151.57 144.427 152.564C145.421 153.558 147.006 154.623 149.184 155.759C153.018 157.794 155.621 159.522 156.994 160.942C158.414 162.315 159.124 163.9 159.124 165.699C159.124 167.498 158.532 169.178 157.349 170.74C156.165 172.302 154.556 173.556 152.521 174.503C150.533 175.402 148.403 175.852 146.131 175.852ZM165.964 172.941C167.384 172.562 168.402 172.018 169.017 171.308C169.632 170.551 169.94 169.557 169.94 168.326V150.292C169.94 147.736 169.064 146.458 167.313 146.458C166.982 146.458 166.627 146.505 166.248 146.6C165.869 146.647 165.633 146.695 165.538 146.742L165.822 144.115C167.81 143.831 169.845 143.452 171.928 142.979C174.058 142.506 175.431 142.198 176.046 142.056L176.401 142.908C175.975 143.902 175.596 146.955 175.265 152.067C174.934 157.132 174.768 162.457 174.768 168.042C174.768 169.415 174.957 170.432 175.336 171.095C175.715 171.71 176.354 172.018 177.253 172.018C177.774 172.018 178.271 171.994 178.744 171.947C179.217 171.9 179.549 171.876 179.738 171.876L179.88 172.16L179.312 175.213C178.886 175.166 178.081 175.118 176.898 175.071C175.715 175.024 174.413 175 172.993 175C171.762 175 170.342 175.118 168.733 175.355C167.171 175.592 166.153 175.757 165.68 175.852L165.964 172.941ZM171.928 133.678C170.839 133.678 169.987 133.323 169.372 132.613C168.757 131.903 168.449 131.051 168.449 130.057C168.449 128.921 168.851 127.951 169.656 127.146C170.461 126.294 171.455 125.868 172.638 125.868C173.727 125.868 174.579 126.223 175.194 126.933C175.809 127.643 176.117 128.495 176.117 129.489C176.117 130.625 175.715 131.619 174.91 132.471C174.105 133.276 173.111 133.678 171.928 133.678ZM216.319 144.967C215.42 145.109 213.385 145.322 210.213 145.606L209.929 145.961C211.823 148.044 212.769 150.458 212.769 153.203C212.769 155.475 212.13 157.581 210.852 159.522C209.622 161.463 207.941 163.001 205.811 164.137C203.681 165.226 201.338 165.77 198.782 165.77C197.41 165.77 196.084 165.581 194.806 165.202C193.718 165.817 192.937 166.385 192.463 166.906C191.99 167.427 191.753 167.947 191.753 168.468C191.753 169.557 192.487 170.314 193.954 170.74C195.422 171.166 197.717 171.568 200.841 171.947C203.918 172.326 206.403 172.728 208.296 173.154C210.19 173.533 211.823 174.243 213.195 175.284C214.568 176.325 215.254 177.769 215.254 179.615C215.254 181.698 214.402 183.709 212.698 185.65C211.042 187.591 208.841 189.153 206.095 190.336C203.397 191.567 200.605 192.182 197.717 192.182C194.357 192.182 191.706 191.33 189.765 189.626C187.872 187.969 186.925 185.674 186.925 182.739C187.588 181.887 188.535 180.893 189.765 179.757C191.043 178.621 192.44 177.485 193.954 176.349V175.923C191.493 175.497 189.6 174.692 188.274 173.509C186.949 172.326 186.263 170.811 186.215 168.965C188.061 167.214 190.049 165.699 192.179 164.421V164.137C190.523 163.19 189.221 161.936 188.274 160.374C187.375 158.765 186.925 156.966 186.925 154.978C186.925 152.659 187.517 150.529 188.7 148.588C189.931 146.6 191.54 145.014 193.528 143.831C195.564 142.648 197.765 142.056 200.131 142.056C201.22 142.056 202.569 142.198 204.178 142.482C205.362 142.719 206.332 142.837 207.089 142.837C209.219 142.6 212.485 141.89 216.887 140.707L217.1 140.991L216.319 144.967ZM200.415 162.646C202.593 162.646 204.297 161.96 205.527 160.587C206.805 159.214 207.444 157.321 207.444 154.907C207.444 152.162 206.687 149.937 205.172 148.233C203.658 146.529 201.693 145.677 199.279 145.677C197.102 145.677 195.374 146.387 194.096 147.807C192.866 149.227 192.25 151.144 192.25 153.558C192.25 156.256 193.008 158.457 194.522 160.161C196.037 161.818 198.001 162.646 200.415 162.646ZM197.007 176.491C195.587 177.485 194.499 178.574 193.741 179.757C192.984 180.988 192.605 182.195 192.605 183.378C192.605 184.987 193.292 186.265 194.664 187.212C196.037 188.206 197.859 188.703 200.131 188.703C201.93 188.703 203.634 188.372 205.243 187.709C206.9 187.094 208.225 186.242 209.219 185.153C210.213 184.064 210.71 182.905 210.71 181.674C210.71 180.727 210.355 179.97 209.645 179.402C208.935 178.834 207.61 178.337 205.669 177.911C203.776 177.485 200.889 177.012 197.007 176.491ZM241.381 172.941C242.801 172.562 243.818 172.018 244.434 171.308C245.049 170.551 245.357 169.557 245.357 168.326L245.641 154.268C245.641 151.901 245.12 150.079 244.079 148.801C243.085 147.523 241.641 146.884 239.748 146.884C238.233 146.884 236.695 147.286 235.133 148.091C233.571 148.848 232.198 149.677 231.015 150.576C230.589 160.374 230.376 166.196 230.376 168.042C230.376 169.509 230.565 170.551 230.944 171.166C231.322 171.734 231.985 172.018 232.932 172.018C233.452 172.018 233.949 171.994 234.423 171.947C234.896 171.9 235.227 171.876 235.417 171.876L235.559 172.16L234.92 175.213C234.494 175.166 233.665 175.118 232.435 175.071C231.204 175.024 229.879 175 228.459 175C227.228 175 225.855 175.047 224.341 175.142C222.873 175.284 221.903 175.379 221.43 175.426L221.785 172.515C223.157 172.278 224.128 171.852 224.696 171.237C225.264 170.622 225.548 169.651 225.548 168.326V151.002C225.548 149.393 225.287 148.28 224.767 147.665C224.246 147.002 223.347 146.671 222.069 146.671H221.288L221.075 146.387L221.288 144.044C223.323 143.713 225.335 143.334 227.323 142.908C229.358 142.435 230.66 142.127 231.228 141.985L231.654 142.553C231.559 142.837 231.417 143.452 231.228 144.399C231.038 145.298 230.92 146.245 230.873 147.239L231.015 147.452C236.411 143.855 239.89 142.056 241.452 142.056C244.434 142.056 246.8 142.884 248.552 144.541C250.303 146.198 251.179 148.422 251.179 151.215C251.179 151.688 251.037 153.866 250.753 157.747C250.374 162.67 250.185 166.101 250.185 168.042C250.185 169.415 250.374 170.432 250.753 171.095C251.131 171.71 251.77 172.018 252.67 172.018C253.19 172.018 253.687 171.994 254.161 171.947C254.634 171.9 254.965 171.876 255.155 171.876L255.297 172.16L254.729 175.213C254.303 175.166 253.498 175.118 252.315 175.071C251.131 175.024 249.83 175 248.41 175C247.179 175 245.759 175.118 244.15 175.355C242.588 175.592 241.57 175.757 241.097 175.852L241.381 172.941ZM260.469 172.941C261.889 172.562 262.907 172.018 263.522 171.308C264.137 170.551 264.445 169.557 264.445 168.326V150.292C264.445 147.736 263.569 146.458 261.818 146.458C261.487 146.458 261.132 146.505 260.753 146.6C260.374 146.647 260.138 146.695 260.043 146.742L260.327 144.115C262.315 143.831 264.35 143.452 266.433 142.979C268.563 142.506 269.936 142.198 270.551 142.056L270.906 142.908C270.48 143.902 270.101 146.955 269.77 152.067C269.439 157.132 269.273 162.457 269.273 168.042C269.273 169.415 269.462 170.432 269.841 171.095C270.22 171.71 270.859 172.018 271.758 172.018C272.279 172.018 272.776 171.994 273.249 171.947C273.722 171.9 274.054 171.876 274.243 171.876L274.385 172.16L273.817 175.213C273.391 175.166 272.586 175.118 271.403 175.071C270.22 175.024 268.918 175 267.498 175C266.267 175 264.847 175.118 263.238 175.355C261.676 175.592 260.658 175.757 260.185 175.852L260.469 172.941ZM266.433 133.678C265.344 133.678 264.492 133.323 263.877 132.613C263.262 131.903 262.954 131.051 262.954 130.057C262.954 128.921 263.356 127.951 264.161 127.146C264.966 126.294 265.96 125.868 267.143 125.868C268.232 125.868 269.084 126.223 269.699 126.933C270.314 127.643 270.622 128.495 270.622 129.489C270.622 130.625 270.22 131.619 269.415 132.471C268.61 133.276 267.616 133.678 266.433 133.678ZM302.162 172.941C303.345 172.61 304.197 172.231 304.718 171.805C305.286 171.379 305.665 170.74 305.854 169.888C306.043 168.989 306.138 167.616 306.138 165.77V150.292C306.138 149.156 306.02 148.328 305.783 147.807C305.546 147.286 305.097 146.931 304.434 146.742C303.771 146.553 302.706 146.458 301.239 146.458H289.879C289.879 148.825 289.832 152.422 289.737 157.25C289.642 162.078 289.595 165.675 289.595 168.042C289.595 170.645 290.755 171.947 293.074 171.947C294.305 171.947 295.299 171.947 296.056 171.947C296.813 171.9 297.287 171.876 297.476 171.876L297.618 172.16L297.121 175.142C296.458 175.142 295.251 175.118 293.5 175.071C291.749 175.024 290.021 175 288.317 175C286.66 175 285.027 175.024 283.418 175.071C281.856 175.166 280.838 175.237 280.365 175.284L280.72 172.515C281.856 172.373 282.708 172.113 283.276 171.734C283.844 171.308 284.223 170.669 284.412 169.817C284.649 168.918 284.767 167.64 284.767 165.983V149.298C284.672 148.162 284.317 147.381 283.702 146.955C283.134 146.529 281.998 146.292 280.294 146.245L280.01 145.819L280.507 143.405L284.767 142.624C284.767 138.506 285.477 134.932 286.897 131.903C288.317 128.826 290.352 126.46 293.003 124.803C295.654 123.146 298.778 122.318 302.375 122.318C303.984 122.318 305.475 122.507 306.848 122.886C308.268 123.217 309.925 123.833 311.818 124.732L311.96 125.371C311.818 125.655 311.51 126.294 311.037 127.288C310.611 128.282 310.185 129.418 309.759 130.696L308.978 130.909C308.978 130.814 308.481 130.388 307.487 129.631C306.493 128.874 305.262 128.164 303.795 127.501C302.328 126.838 300.742 126.507 299.038 126.507C296.056 126.507 293.808 127.596 292.293 129.773C290.826 131.903 290.068 135.193 290.021 139.642L289.95 142.908C298.565 142.908 304.032 142.861 306.351 142.766C308.718 142.671 310.682 142.435 312.244 142.056L312.599 142.908C312.173 143.902 311.794 146.955 311.463 152.067C311.132 157.179 310.966 162.504 310.966 168.042C310.966 169.462 311.155 170.48 311.534 171.095C311.913 171.71 312.552 172.018 313.451 172.018C313.972 172.018 314.469 171.994 314.942 171.947C315.415 171.9 315.747 171.876 315.936 171.876L316.078 172.16L315.51 175.213C315.084 175.166 314.279 175.118 313.096 175.071C311.913 175.024 310.611 175 309.191 175C307.96 175 306.54 175.118 304.931 175.355C303.369 175.592 302.351 175.757 301.878 175.852L302.162 172.941ZM336.236 175.852C333.301 175.852 330.698 175.213 328.426 173.935C326.154 172.61 324.403 170.764 323.172 168.397C321.941 165.983 321.326 163.238 321.326 160.161C321.326 156.99 322.036 154.008 323.456 151.215C324.923 148.422 326.864 146.198 329.278 144.541C331.692 142.884 334.272 142.056 337.017 142.056C340.472 142.056 343.099 142.932 344.898 144.683C346.697 146.434 347.596 148.99 347.596 152.351C347.596 153.724 347.454 154.883 347.17 155.83L346.247 156.682H326.651C326.604 161.273 327.503 164.823 329.349 167.332C331.242 169.793 333.869 171.024 337.23 171.024C339.881 171.024 342.768 170.29 345.892 168.823L346.318 168.965L347.099 171.024C345.395 172.255 343.502 173.367 341.419 174.361C339.384 175.355 337.656 175.852 336.236 175.852ZM339.786 153.416C340.496 153.321 340.969 153.156 341.206 152.919C341.443 152.682 341.561 152.209 341.561 151.499C341.561 149.606 341.04 148.162 339.999 147.168C339.005 146.174 337.561 145.677 335.668 145.677C333.443 145.677 331.526 146.434 329.917 147.949C328.355 149.464 327.361 151.499 326.935 154.055L339.786 153.416ZM373.812 172.941C375.232 172.562 376.25 172.018 376.865 171.308C377.481 170.551 377.788 169.557 377.788 168.326L378.072 154.268C378.072 151.901 377.552 150.079 376.51 148.801C375.516 147.523 374.073 146.884 372.179 146.884C370.665 146.884 369.126 147.286 367.564 148.091C366.002 148.848 364.63 149.677 363.446 150.576C363.02 160.374 362.807 166.196 362.807 168.042C362.807 169.509 362.997 170.551 363.375 171.166C363.754 171.734 364.417 172.018 365.363 172.018C365.884 172.018 366.381 171.994 366.854 171.947C367.328 171.9 367.659 171.876 367.848 171.876L367.99 172.16L367.351 175.213C366.925 175.166 366.097 175.118 364.866 175.071C363.636 175.024 362.31 175 360.89 175C359.66 175 358.287 175.047 356.772 175.142C355.305 175.284 354.335 175.379 353.861 175.426L354.216 172.515C355.589 172.278 356.559 171.852 357.127 171.237C357.695 170.622 357.979 169.651 357.979 168.326V151.002C357.979 149.393 357.719 148.28 357.198 147.665C356.678 147.002 355.778 146.671 354.5 146.671H353.719L353.506 146.387L353.719 144.044C355.755 143.713 357.766 143.334 359.754 142.908C361.79 142.435 363.091 142.127 363.659 141.985L364.085 142.553C363.991 142.837 363.849 143.452 363.659 144.399C363.47 145.298 363.352 146.245 363.304 147.239L363.446 147.452C368.842 143.855 372.321 142.056 373.883 142.056C376.865 142.056 379.232 142.884 380.983 144.541C382.735 146.198 383.61 148.422 383.61 151.215C383.61 151.688 383.468 153.866 383.184 157.747C382.806 162.67 382.616 166.101 382.616 168.042C382.616 169.415 382.806 170.432 383.184 171.095C383.563 171.71 384.202 172.018 385.101 172.018C385.622 172.018 386.119 171.994 386.592 171.947C387.066 171.9 387.397 171.876 387.586 171.876L387.728 172.16L387.16 175.213C386.734 175.166 385.93 175.118 384.746 175.071C383.563 175.024 382.261 175 380.841 175C379.611 175 378.191 175.118 376.581 175.355C375.019 175.592 374.002 175.757 373.528 175.852L373.812 172.941ZM404.119 175.852C400.9 175.852 398.628 175.213 397.303 173.935C395.977 172.61 395.315 170.385 395.315 167.261V149.795C395.315 148.517 395.031 147.618 394.463 147.097C393.895 146.576 392.83 146.292 391.268 146.245L390.984 145.819L391.339 143.689C392.711 143.026 394.037 142.222 395.315 141.275C396.64 140.281 397.705 139.429 398.51 138.719C399.362 137.962 399.906 137.465 400.143 137.228L401.563 137.796C401.515 138.033 401.444 138.601 401.35 139.5C401.255 140.399 401.137 141.606 400.995 143.121L411.432 142.908L411.645 143.121L411.006 146.884L400.711 146.671C400.379 151.878 400.214 157.794 400.214 164.421C400.214 166.835 400.616 168.539 401.421 169.533C402.273 170.527 403.716 171.024 405.752 171.024C406.462 171.024 407.172 170.929 407.882 170.74C408.592 170.551 409.183 170.361 409.657 170.172C410.13 169.935 410.438 169.793 410.58 169.746L411.29 171.592C411.006 171.829 410.39 172.278 409.444 172.941C408.544 173.604 407.55 174.266 406.462 174.929C405.42 175.544 404.639 175.852 404.119 175.852ZM429.204 172.941C430.53 172.562 431.453 172.089 431.973 171.521C432.541 170.953 432.873 170.267 432.967 169.462C433.109 168.657 433.18 167.308 433.18 165.415V130.554C433.18 129.087 433.015 128.093 432.683 127.572C432.352 127.051 431.666 126.791 430.624 126.791C430.388 126.791 429.843 126.838 428.991 126.933L428.778 126.791L429.062 124.377C433.038 123.809 436.541 123.123 439.57 122.318L439.996 123.241C439.476 124.046 439.002 129.11 438.576 138.435C438.198 147.76 438.008 157.629 438.008 168.042C438.008 169.462 438.198 170.48 438.576 171.095C438.955 171.71 439.594 172.018 440.493 172.018L442.978 171.876L443.12 172.16L442.552 175.213C439.428 175.071 437.322 175 436.233 175C434.624 175 432.186 175.284 428.92 175.852L429.204 172.941ZM461.803 175.852C458.869 175.852 456.265 175.213 453.993 173.935C451.721 172.61 449.97 170.764 448.739 168.397C447.509 165.983 446.893 163.238 446.893 160.161C446.893 156.99 447.603 154.008 449.023 151.215C450.491 148.422 452.431 146.198 454.845 144.541C457.259 142.884 459.839 142.056 462.584 142.056C466.04 142.056 468.667 142.932 470.465 144.683C472.264 146.434 473.163 148.99 473.163 152.351C473.163 153.724 473.021 154.883 472.737 155.83L471.814 156.682H452.218C452.171 161.273 453.07 164.823 454.916 167.332C456.81 169.793 459.437 171.024 462.797 171.024C465.448 171.024 468.335 170.29 471.459 168.823L471.885 168.965L472.666 171.024C470.962 172.255 469.069 173.367 466.986 174.361C464.951 175.355 463.223 175.852 461.803 175.852ZM465.353 153.416C466.063 153.321 466.537 153.156 466.773 152.919C467.01 152.682 467.128 152.209 467.128 151.499C467.128 149.606 466.608 148.162 465.566 147.168C464.572 146.174 463.129 145.677 461.235 145.677C459.011 145.677 457.094 146.434 455.484 147.949C453.922 149.464 452.928 151.499 452.502 154.055L465.353 153.416ZM488.304 175.852C486.789 175.852 485.393 175.734 484.115 175.497C482.884 175.308 481.914 175.095 481.204 174.858C480.494 174.621 480.044 174.456 479.855 174.361L479.642 173.864C479.784 173.154 479.949 171.687 480.139 169.462C480.328 167.237 480.446 165.533 480.494 164.35L482.979 163.995C482.979 167.119 483.499 169.32 484.541 170.598C485.582 171.876 487.357 172.515 489.866 172.515C491.664 172.515 493.179 172.113 494.41 171.308C495.64 170.503 496.256 169.509 496.256 168.326C496.256 167.143 495.688 166.078 494.552 165.131C493.463 164.137 491.286 162.764 488.02 161.013C485.322 159.64 483.357 158.244 482.127 156.824C480.896 155.404 480.281 153.842 480.281 152.138C480.281 150.245 480.849 148.541 481.985 147.026C483.121 145.464 484.683 144.257 486.671 143.405C488.659 142.506 490.883 142.056 493.345 142.056C494.481 142.056 495.569 142.151 496.611 142.34C497.652 142.482 498.504 142.648 499.167 142.837C499.829 143.026 500.255 143.145 500.445 143.192L500.587 143.547C500.492 144.02 500.279 145.109 499.948 146.813C499.616 148.47 499.38 150.268 499.238 152.209L496.611 152.422C496.611 152.28 496.634 151.996 496.682 151.57C496.729 151.144 496.753 150.742 496.753 150.363C496.753 148.659 496.279 147.428 495.333 146.671C494.433 145.866 492.966 145.464 490.931 145.464C489.321 145.464 487.949 145.843 486.813 146.6C485.724 147.357 485.18 148.28 485.18 149.369C485.18 150.505 485.653 151.57 486.6 152.564C487.594 153.558 489.179 154.623 491.357 155.759C495.191 157.794 497.794 159.522 499.167 160.942C500.587 162.315 501.297 163.9 501.297 165.699C501.297 167.498 500.705 169.178 499.522 170.74C498.338 172.302 496.729 173.556 494.694 174.503C492.706 175.402 490.576 175.852 488.304 175.852ZM533.43 175.852C530.212 175.852 527.94 175.213 526.614 173.935C525.289 172.61 524.626 170.385 524.626 167.261V149.795C524.626 148.517 524.342 147.618 523.774 147.097C523.206 146.576 522.141 146.292 520.579 146.245L520.295 145.819L520.65 143.689C522.023 143.026 523.348 142.222 524.626 141.275C525.952 140.281 527.017 139.429 527.821 138.719C528.673 137.962 529.218 137.465 529.454 137.228L530.874 137.796C530.827 138.033 530.756 138.601 530.661 139.5C530.567 140.399 530.448 141.606 530.306 143.121L540.743 142.908L540.956 143.121L540.317 146.884L530.022 146.671C529.691 151.878 529.525 157.794 529.525 164.421C529.525 166.835 529.928 168.539 530.732 169.533C531.584 170.527 533.028 171.024 535.063 171.024C535.773 171.024 536.483 170.929 537.193 170.74C537.903 170.551 538.495 170.361 538.968 170.172C539.442 169.935 539.749 169.793 539.891 169.746L540.601 171.592C540.317 171.829 539.702 172.278 538.755 172.941C537.856 173.604 536.862 174.266 535.773 174.929C534.732 175.544 533.951 175.852 533.43 175.852ZM544.796 192.111C544.417 192.111 543.802 191.543 542.95 190.407C542.098 189.318 541.672 188.537 541.672 188.064L542.027 187.567C544.677 187.567 547.139 186.455 549.411 184.23C551.73 182.053 553.718 178.976 555.375 175C551.73 163.451 548.795 154.741 546.571 148.872C546.145 147.689 545.529 146.837 544.725 146.316C543.967 145.795 542.973 145.511 541.743 145.464L541.601 145.18L542.027 142.837L547.92 142.908C549.671 142.908 551.399 142.837 553.103 142.695C554.854 142.553 555.966 142.458 556.44 142.411L556.582 142.766L556.156 144.967C554.546 145.014 553.458 145.18 552.89 145.464C552.369 145.701 552.109 146.15 552.109 146.813C552.109 147.57 552.558 149.535 553.458 152.706C554.404 155.877 555.375 159.049 556.369 162.22C557.363 165.344 558.025 167.379 558.357 168.326H558.641C564.084 155.309 566.806 148.233 566.806 147.097C566.806 145.866 565.906 145.251 564.108 145.251H560.842L560.7 144.967L561.126 142.624C561.552 142.671 562.498 142.742 563.966 142.837C565.433 142.884 566.9 142.908 568.368 142.908L574.403 142.837L573.906 145.464C572.864 145.653 572.06 146.032 571.492 146.6C570.971 147.121 570.45 148.091 569.93 149.511L560.913 171.095C558.451 177.059 556.44 181.485 554.878 184.372C553.316 187.259 551.777 189.271 550.263 190.407C548.748 191.59 546.926 192.158 544.796 192.111ZM577.476 189.058C578.518 188.916 579.275 188.703 579.748 188.419C580.269 188.135 580.624 187.662 580.813 186.999C581.003 186.336 581.097 185.319 581.097 183.946C581.097 181.958 581.121 180.254 581.168 178.834L581.239 172.16V151.002C581.239 149.393 580.979 148.28 580.458 147.665C579.938 147.002 579.038 146.671 577.76 146.671H576.979L576.766 146.387L576.979 144.044C579.015 143.713 581.026 143.334 583.014 142.908C585.05 142.435 586.351 142.127 586.919 141.985L587.345 142.553C587.298 142.79 587.18 143.31 586.99 144.115C586.848 144.872 586.73 145.63 586.635 146.387L586.919 146.884C591.369 143.807 594.114 142.269 595.155 142.269C597.853 142.269 600.244 142.908 602.326 144.186C604.409 145.417 606.018 147.168 607.154 149.44C608.29 151.712 608.858 154.315 608.858 157.25C608.858 160.611 608.054 163.711 606.444 166.551C604.835 169.391 602.681 171.663 599.983 173.367C597.285 175.024 594.351 175.852 591.179 175.852C590.138 175.852 589.097 175.805 588.055 175.71C587.061 175.663 586.375 175.615 585.996 175.568L586.067 182.881C586.067 185.058 586.28 186.526 586.706 187.283C587.18 188.088 588.079 188.49 589.404 188.49L591.818 188.419L591.96 188.632L591.392 191.33H584.647C582.943 191.33 581.358 191.401 579.89 191.543C578.47 191.685 577.547 191.78 577.121 191.827L577.476 189.058ZM593.167 171.947C596.339 171.947 598.824 170.882 600.622 168.752C602.468 166.575 603.391 163.616 603.391 159.877C603.391 157.51 602.965 155.357 602.113 153.416C601.309 151.475 600.173 149.937 598.705 148.801C597.285 147.665 595.723 147.097 594.019 147.097C593.073 147.097 591.913 147.428 590.54 148.091C589.168 148.706 587.866 149.535 586.635 150.576C586.257 156.777 586.067 163.451 586.067 170.598C587.014 170.977 588.126 171.308 589.404 171.592C590.73 171.829 591.984 171.947 593.167 171.947ZM628.903 175.852C625.968 175.852 623.365 175.213 621.093 173.935C618.821 172.61 617.07 170.764 615.839 168.397C614.608 165.983 613.993 163.238 613.993 160.161C613.993 156.99 614.703 154.008 616.123 151.215C617.59 148.422 619.531 146.198 621.945 144.541C624.359 142.884 626.939 142.056 629.684 142.056C633.139 142.056 635.766 142.932 637.565 144.683C639.364 146.434 640.263 148.99 640.263 152.351C640.263 153.724 640.121 154.883 639.837 155.83L638.914 156.682H619.318C619.271 161.273 620.17 164.823 622.016 167.332C623.909 169.793 626.536 171.024 629.897 171.024C632.548 171.024 635.435 170.29 638.559 168.823L638.985 168.965L639.766 171.024C638.062 172.255 636.169 173.367 634.086 174.361C632.051 175.355 630.323 175.852 628.903 175.852ZM632.453 153.416C633.163 153.321 633.636 153.156 633.873 152.919C634.11 152.682 634.228 152.209 634.228 151.499C634.228 149.606 633.707 148.162 632.666 147.168C631.672 146.174 630.228 145.677 628.335 145.677C626.11 145.677 624.193 146.434 622.584 147.949C621.022 149.464 620.028 151.499 619.602 154.055L632.453 153.416ZM655.403 175.852C653.889 175.852 652.492 175.734 651.214 175.497C649.984 175.308 649.013 175.095 648.303 174.858C647.593 174.621 647.144 174.456 646.954 174.361L646.741 173.864C646.883 173.154 647.049 171.687 647.238 169.462C647.428 167.237 647.546 165.533 647.593 164.35L650.078 163.995C650.078 167.119 650.599 169.32 651.64 170.598C652.682 171.876 654.457 172.515 656.965 172.515C658.764 172.515 660.279 172.113 661.509 171.308C662.74 170.503 663.355 169.509 663.355 168.326C663.355 167.143 662.787 166.078 661.651 165.131C660.563 164.137 658.385 162.764 655.119 161.013C652.421 159.64 650.457 158.244 649.226 156.824C647.996 155.404 647.38 153.842 647.38 152.138C647.38 150.245 647.948 148.541 649.084 147.026C650.22 145.464 651.782 144.257 653.77 143.405C655.758 142.506 657.983 142.056 660.444 142.056C661.58 142.056 662.669 142.151 663.71 142.34C664.752 142.482 665.604 142.648 666.266 142.837C666.929 143.026 667.355 143.145 667.544 143.192L667.686 143.547C667.592 144.02 667.379 145.109 667.047 146.813C666.716 148.47 666.479 150.268 666.337 152.209L663.71 152.422C663.71 152.28 663.734 151.996 663.781 151.57C663.829 151.144 663.852 150.742 663.852 150.363C663.852 148.659 663.379 147.428 662.432 146.671C661.533 145.866 660.066 145.464 658.03 145.464C656.421 145.464 655.048 145.843 653.912 146.6C652.824 147.357 652.279 148.28 652.279 149.369C652.279 150.505 652.753 151.57 653.699 152.564C654.693 153.558 656.279 154.623 658.456 155.759C662.29 157.794 664.894 159.522 666.266 160.942C667.686 162.315 668.396 163.9 668.396 165.699C668.396 167.498 667.805 169.178 666.621 170.74C665.438 172.302 663.829 173.556 661.793 174.503C659.805 175.402 657.675 175.852 655.403 175.852ZM127.562 263.852C123.87 263.852 121.764 262.172 121.243 258.811L120.746 258.598C115.824 261.959 112.865 263.639 111.871 263.639C109.173 263.639 106.783 263.024 104.7 261.793C102.618 260.515 101.008 258.74 99.8723 256.468C98.7363 254.196 98.1683 251.593 98.1683 248.658C98.1683 245.297 98.9493 242.197 100.511 239.357C102.121 236.517 104.274 234.269 106.972 232.612C109.718 230.908 112.676 230.056 115.847 230.056C117.362 230.056 118.995 230.151 120.746 230.34V218.554C120.746 215.998 119.871 214.72 118.119 214.72C117.788 214.72 117.433 214.767 117.054 214.862C116.676 214.909 116.439 214.957 116.344 215.004L116.628 212.377C118.664 212.093 120.77 211.714 122.947 211.241C125.125 210.768 126.521 210.46 127.136 210.318L127.562 211.241C127.042 212.046 126.568 217.039 126.142 226.222C125.764 235.405 125.574 245.179 125.574 255.545C125.574 256.586 125.835 257.391 126.355 257.959C126.876 258.527 127.586 258.811 128.485 258.811C129.148 258.811 129.787 258.693 130.402 258.456C131.065 258.172 131.586 257.888 131.964 257.604C132.39 257.32 132.651 257.131 132.745 257.036L133.739 258.172C133.597 258.409 133.242 258.929 132.674 259.734C132.106 260.491 131.349 261.296 130.402 262.148C129.503 263 128.556 263.568 127.562 263.852ZM113.007 259.024C114.001 259.024 115.066 258.74 116.202 258.172C117.386 257.604 118.38 257.036 119.184 256.468C119.989 255.853 120.51 255.45 120.746 255.261V235.807C120.604 235.712 120.249 235.547 119.681 235.31C119.113 235.026 118.309 234.766 117.267 234.529C116.273 234.292 115.137 234.174 113.859 234.174C110.688 234.174 108.179 235.263 106.333 237.44C104.535 239.57 103.635 242.505 103.635 246.244C103.635 248.611 104.038 250.764 104.842 252.705C105.694 254.646 106.83 256.184 108.25 257.32C109.718 258.456 111.303 259.024 113.007 259.024ZM151.213 263.852C148.278 263.852 145.675 263.213 143.403 261.935C141.131 260.61 139.38 258.764 138.149 256.397C136.918 253.983 136.303 251.238 136.303 248.161C136.303 244.99 137.013 242.008 138.433 239.215C139.9 236.422 141.841 234.198 144.255 232.541C146.669 230.884 149.249 230.056 151.994 230.056C155.449 230.056 158.076 230.932 159.875 232.683C161.674 234.434 162.573 236.99 162.573 240.351C162.573 241.724 162.431 242.883 162.147 243.83L161.224 244.682H141.628C141.581 249.273 142.48 252.823 144.326 255.332C146.219 257.793 148.846 259.024 152.207 259.024C154.858 259.024 157.745 258.29 160.869 256.823L161.295 256.965L162.076 259.024C160.372 260.255 158.479 261.367 156.396 262.361C154.361 263.355 152.633 263.852 151.213 263.852ZM154.763 241.416C155.473 241.321 155.946 241.156 156.183 240.919C156.42 240.682 156.538 240.209 156.538 239.499C156.538 237.606 156.017 236.162 154.976 235.168C153.982 234.174 152.538 233.677 150.645 233.677C148.42 233.677 146.503 234.434 144.894 235.949C143.332 237.464 142.338 239.499 141.912 242.055L154.763 241.416ZM183.268 260.515C185.966 260.136 187.315 258.74 187.315 256.326V237.156C187.268 236.02 186.937 235.286 186.321 234.955C185.753 234.576 184.594 234.34 182.842 234.245L182.558 233.819L183.055 231.405L187.315 230.624V230.34C187.315 226.269 187.978 222.719 189.303 219.69C190.676 216.661 192.569 214.341 194.983 212.732C197.445 211.123 200.332 210.318 203.645 210.318C205.065 210.318 206.367 210.413 207.55 210.602C208.781 210.791 209.728 211.004 210.39 211.241C211.1 211.43 211.55 211.572 211.739 211.667L211.881 212.306C211.739 212.543 211.432 213.111 210.958 214.01C210.532 214.862 210.106 215.832 209.68 216.921L208.899 217.134C208.71 216.992 208.237 216.708 207.479 216.282C206.769 215.856 205.799 215.454 204.568 215.075C203.385 214.696 202.107 214.507 200.734 214.507C198.036 214.507 196.025 215.596 194.699 217.773C193.374 219.903 192.664 223.193 192.569 227.642L192.498 231.121C194.96 231.121 197.066 231.097 198.817 231.05C200.569 231.003 201.728 230.955 202.296 230.908L202.509 231.121L201.799 234.884C201.279 234.837 200.166 234.789 198.462 234.742C196.806 234.695 194.794 234.671 192.427 234.671L192.143 256.042C192.143 257.367 192.427 258.361 192.995 259.024C193.611 259.639 194.534 259.947 195.764 259.947C196.9 259.947 197.823 259.923 198.533 259.876C199.291 259.829 199.788 259.805 200.024 259.805L200.166 260.089L199.669 263.142C199.007 263.142 197.8 263.118 196.048 263.071C194.297 263.024 192.569 263 190.865 263C189.209 263 187.576 263.024 185.966 263.071C184.404 263.166 183.387 263.237 182.913 263.284L183.268 260.515ZM228.802 263.852C224.968 263.852 222.861 261.935 222.483 258.101L222.199 258.03C220.495 259.734 218.933 261.083 217.513 262.077C216.14 263.071 215.099 263.568 214.389 263.568C211.738 263.568 209.561 262.74 207.857 261.083C206.153 259.426 205.301 257.32 205.301 254.764C205.301 253.391 205.632 252.184 206.295 251.143C207.005 250.102 207.928 249.415 209.064 249.084L222.554 245.392L222.625 242.268C222.625 239.901 222.08 238.055 220.992 236.73C219.903 235.405 218.365 234.742 216.377 234.742C215.051 234.742 213.655 235.05 212.188 235.665C210.72 236.28 209.277 237.156 207.857 238.292L207.502 238.079L206.65 235.026C208.874 233.748 211.099 232.612 213.324 231.618C215.596 230.577 217.229 230.056 218.223 230.056C221.299 230.056 223.713 230.861 225.465 232.47C227.216 234.079 228.092 236.328 228.092 239.215C228.092 240.256 227.926 242.386 227.595 245.605C227.074 250.812 226.814 254.125 226.814 255.545C226.814 256.586 227.074 257.391 227.595 257.959C228.115 258.527 228.825 258.811 229.725 258.811C230.482 258.811 231.263 258.645 232.068 258.314C232.872 257.935 233.511 257.509 233.985 257.036L234.979 258.172C234.269 259.355 233.346 260.515 232.21 261.651C231.121 262.74 229.985 263.473 228.802 263.852ZM215.596 258.74C216.495 258.74 217.536 258.432 218.72 257.817C219.95 257.154 221.063 256.326 222.057 255.332L222.412 248.09L212.756 251.001C211.383 251.427 210.697 252.421 210.697 253.983C210.697 255.356 211.146 256.492 212.046 257.391C212.992 258.29 214.176 258.74 215.596 258.74ZM239.652 260.444C241.072 260.302 242.019 259.852 242.492 259.095C242.965 258.29 243.202 256.776 243.202 254.551V238.931C243.202 237.369 242.989 236.257 242.563 235.594C242.137 234.931 241.451 234.6 240.504 234.6C240.125 234.6 239.794 234.624 239.51 234.671C239.273 234.718 239.108 234.766 239.013 234.813L238.658 234.316L238.871 232.115C240.67 231.784 242.563 231.381 244.551 230.908C246.586 230.435 247.888 230.127 248.456 229.985L248.953 230.411C248.858 230.837 248.716 231.831 248.527 233.393C248.338 234.908 248.267 236.351 248.314 237.724L248.598 237.937C250.018 235.712 251.675 233.89 253.568 232.47C255.509 231.05 257.189 230.34 258.609 230.34C259.272 230.34 259.769 230.387 260.1 230.482C260.479 230.529 260.715 230.577 260.81 230.624L261.023 230.908C260.928 231.571 260.715 232.991 260.384 235.168C260.1 237.298 259.934 239.262 259.887 241.061L257.118 241.274C257.118 239.333 256.976 238.055 256.692 237.44C256.455 236.777 255.958 236.446 255.201 236.446C254.16 236.446 253.047 236.896 251.864 237.795C250.681 238.647 249.592 239.807 248.598 241.274C248.551 242.647 248.456 244.919 248.314 248.09C248.172 251.261 248.077 253.817 248.03 255.758C248.03 257.367 248.267 258.456 248.74 259.024C249.213 259.592 250.113 259.876 251.438 259.876C252.053 259.876 252.669 259.852 253.284 259.805C253.899 259.758 254.325 259.734 254.562 259.734L254.633 260.018L253.994 263.142C253.521 263.142 252.574 263.118 251.154 263.071C249.734 263.024 248.267 263 246.752 263C245.001 263 243.415 263.024 241.995 263.071C240.575 263.166 239.676 263.237 239.297 263.284L239.652 260.444ZM266.051 260.941C267.471 260.562 268.488 260.018 269.104 259.308C269.719 258.551 270.027 257.557 270.027 256.326V238.292C270.027 235.736 269.151 234.458 267.4 234.458C267.068 234.458 266.713 234.505 266.335 234.6C265.956 234.647 265.719 234.695 265.625 234.742L265.909 232.115C267.897 231.831 269.932 231.452 272.015 230.979C274.145 230.506 275.517 230.198 276.133 230.056L276.488 230.908C276.062 231.902 275.683 234.955 275.352 240.067C275.02 245.132 274.855 250.457 274.855 256.042C274.855 257.415 275.044 258.432 275.423 259.095C275.801 259.71 276.44 260.018 277.34 260.018C277.86 260.018 278.357 259.994 278.831 259.947C279.304 259.9 279.635 259.876 279.825 259.876L279.967 260.16L279.399 263.213C278.973 263.166 278.168 263.118 276.985 263.071C275.801 263.024 274.5 263 273.08 263C271.849 263 270.429 263.118 268.82 263.355C267.258 263.592 266.24 263.757 265.767 263.852L266.051 260.941ZM272.015 221.678C270.926 221.678 270.074 221.323 269.459 220.613C268.843 219.903 268.536 219.051 268.536 218.057C268.536 216.921 268.938 215.951 269.743 215.146C270.547 214.294 271.541 213.868 272.725 213.868C273.813 213.868 274.665 214.223 275.281 214.933C275.896 215.643 276.204 216.495 276.204 217.489C276.204 218.625 275.801 219.619 274.997 220.471C274.192 221.276 273.198 221.678 272.015 221.678ZM305.898 260.941C307.318 260.562 308.335 260.018 308.951 259.308C309.566 258.551 309.874 257.557 309.874 256.326L310.158 242.268C310.158 239.901 309.637 238.079 308.596 236.801C307.602 235.523 306.158 234.884 304.265 234.884C302.75 234.884 301.212 235.286 299.65 236.091C298.088 236.848 296.715 237.677 295.532 238.576C295.106 248.374 294.893 254.196 294.893 256.042C294.893 257.509 295.082 258.551 295.461 259.166C295.839 259.734 296.502 260.018 297.449 260.018C297.969 260.018 298.466 259.994 298.94 259.947C299.413 259.9 299.744 259.876 299.934 259.876L300.076 260.16L299.437 263.213C299.011 263.166 298.182 263.118 296.952 263.071C295.721 263.024 294.396 263 292.976 263C291.745 263 290.372 263.047 288.858 263.142C287.39 263.284 286.42 263.379 285.947 263.426L286.302 260.515C287.674 260.278 288.645 259.852 289.213 259.237C289.781 258.622 290.065 257.651 290.065 256.326V239.002C290.065 237.393 289.804 236.28 289.284 235.665C288.763 235.002 287.864 234.671 286.586 234.671H285.805L285.592 234.387L285.805 232.044C287.84 231.713 289.852 231.334 291.84 230.908C293.875 230.435 295.177 230.127 295.745 229.985L296.171 230.553C296.076 230.837 295.934 231.452 295.745 232.399C295.555 233.298 295.437 234.245 295.39 235.239L295.532 235.452C300.928 231.855 304.407 230.056 305.969 230.056C308.951 230.056 311.317 230.884 313.069 232.541C314.82 234.198 315.696 236.422 315.696 239.215C315.696 239.688 315.554 241.866 315.27 245.747C314.891 250.67 314.702 254.101 314.702 256.042C314.702 257.415 314.891 258.432 315.27 259.095C315.648 259.71 316.287 260.018 317.187 260.018C317.707 260.018 318.204 259.994 318.678 259.947C319.151 259.9 319.482 259.876 319.672 259.876L319.814 260.16L319.246 263.213C318.82 263.166 318.015 263.118 316.832 263.071C315.648 263.024 314.347 263 312.927 263C311.696 263 310.276 263.118 308.667 263.355C307.105 263.592 306.087 263.757 305.614 263.852L305.898 260.941ZM339.044 263.852C336.109 263.852 333.506 263.213 331.234 261.935C328.962 260.61 327.211 258.764 325.98 256.397C324.749 253.983 324.134 251.238 324.134 248.161C324.134 244.99 324.844 242.008 326.264 239.215C327.731 236.422 329.672 234.198 332.086 232.541C334.5 230.884 337.08 230.056 339.825 230.056C343.28 230.056 345.907 230.932 347.706 232.683C349.505 234.434 350.404 236.99 350.404 240.351C350.404 241.724 350.262 242.883 349.978 243.83L349.055 244.682H329.459C329.412 249.273 330.311 252.823 332.157 255.332C334.05 257.793 336.677 259.024 340.038 259.024C342.689 259.024 345.576 258.29 348.7 256.823L349.126 256.965L349.907 259.024C348.203 260.255 346.31 261.367 344.227 262.361C342.192 263.355 340.464 263.852 339.044 263.852ZM342.594 241.416C343.304 241.321 343.777 241.156 344.014 240.919C344.251 240.682 344.369 240.209 344.369 239.499C344.369 237.606 343.848 236.162 342.807 235.168C341.813 234.174 340.369 233.677 338.476 233.677C336.251 233.677 334.334 234.434 332.725 235.949C331.163 237.464 330.169 239.499 329.743 242.055L342.594 241.416ZM399.429 263.852C395.737 263.852 393.63 262.172 393.11 258.811L392.613 258.598C387.69 261.959 384.732 263.639 383.738 263.639C381.04 263.639 378.649 263.024 376.567 261.793C374.484 260.515 372.875 258.74 371.739 256.468C370.603 254.196 370.035 251.593 370.035 248.658C370.035 245.297 370.816 242.197 372.378 239.357C373.987 236.517 376.141 234.269 378.839 232.612C381.584 230.908 384.542 230.056 387.714 230.056C389.228 230.056 390.861 230.151 392.613 230.34V218.554C392.613 215.998 391.737 214.72 389.986 214.72C389.654 214.72 389.299 214.767 388.921 214.862C388.542 214.909 388.305 214.957 388.211 215.004L388.495 212.377C390.53 212.093 392.636 211.714 394.814 211.241C396.991 210.768 398.387 210.46 399.003 210.318L399.429 211.241C398.908 212.046 398.435 217.039 398.009 226.222C397.63 235.405 397.441 245.179 397.441 255.545C397.441 256.586 397.701 257.391 398.222 257.959C398.742 258.527 399.452 258.811 400.352 258.811C401.014 258.811 401.653 258.693 402.269 258.456C402.931 258.172 403.452 257.888 403.831 257.604C404.257 257.32 404.517 257.131 404.612 257.036L405.606 258.172C405.464 258.409 405.109 258.929 404.541 259.734C403.973 260.491 403.215 261.296 402.269 262.148C401.369 263 400.423 263.568 399.429 263.852ZM384.874 259.024C385.868 259.024 386.933 258.74 388.069 258.172C389.252 257.604 390.246 257.036 391.051 256.468C391.855 255.853 392.376 255.45 392.613 255.261V235.807C392.471 235.712 392.116 235.547 391.548 235.31C390.98 235.026 390.175 234.766 389.134 234.529C388.14 234.292 387.004 234.174 385.726 234.174C382.554 234.174 380.046 235.263 378.2 237.44C376.401 239.57 375.502 242.505 375.502 246.244C375.502 248.611 375.904 250.764 376.709 252.705C377.561 254.646 378.697 256.184 380.117 257.32C381.584 258.456 383.17 259.024 384.874 259.024ZM423.079 263.852C420.145 263.852 417.541 263.213 415.269 261.935C412.997 260.61 411.246 258.764 410.015 256.397C408.785 253.983 408.169 251.238 408.169 248.161C408.169 244.99 408.879 242.008 410.299 239.215C411.767 236.422 413.707 234.198 416.121 232.541C418.535 230.884 421.115 230.056 423.86 230.056C427.316 230.056 429.943 230.932 431.741 232.683C433.54 234.434 434.439 236.99 434.439 240.351C434.439 241.724 434.297 242.883 434.013 243.83L433.09 244.682H413.494C413.447 249.273 414.346 252.823 416.192 255.332C418.086 257.793 420.713 259.024 424.073 259.024C426.724 259.024 429.611 258.29 432.735 256.823L433.161 256.965L433.942 259.024C432.238 260.255 430.345 261.367 428.262 262.361C426.227 263.355 424.499 263.852 423.079 263.852ZM426.629 241.416C427.339 241.321 427.813 241.156 428.049 240.919C428.286 240.682 428.404 240.209 428.404 239.499C428.404 237.606 427.884 236.162 426.842 235.168C425.848 234.174 424.405 233.677 422.511 233.677C420.287 233.677 418.37 234.434 416.76 235.949C415.198 237.464 414.204 239.499 413.778 242.055L426.629 241.416ZM467.347 263.852C465.359 263.852 463.323 263.71 461.241 263.426C459.205 263.189 458.188 263.047 458.188 263L457.549 262.432V218.554C457.549 215.998 456.673 214.72 454.922 214.72C454.543 214.72 454.212 214.744 453.928 214.791C453.644 214.838 453.454 214.886 453.36 214.933L453.147 214.72L453.431 212.377C455.466 212.093 457.572 211.714 459.75 211.241C461.927 210.768 463.323 210.46 463.939 210.318L464.365 211.241C464.033 211.714 463.726 214.128 463.442 218.483C463.158 222.79 462.921 228.305 462.732 235.026C464.862 233.511 466.684 232.304 468.199 231.405C469.761 230.506 470.802 230.056 471.323 230.056C473.973 230.056 476.34 230.695 478.423 231.973C480.505 233.251 482.115 235.05 483.251 237.369C484.434 239.641 485.026 242.268 485.026 245.25C485.026 248.658 484.221 251.782 482.612 254.622C481.05 257.462 478.92 259.71 476.222 261.367C473.524 263.024 470.565 263.852 467.347 263.852ZM469.335 259.947C472.506 259.947 474.991 258.882 476.79 256.752C478.636 254.575 479.559 251.616 479.559 247.877C479.559 245.51 479.133 243.333 478.281 241.345C477.476 239.357 476.34 237.795 474.873 236.659C473.453 235.476 471.891 234.884 470.187 234.884C469.24 234.884 468.033 235.263 466.566 236.02C465.098 236.73 463.773 237.629 462.59 238.718L462.377 258.456C463.229 258.882 464.317 259.237 465.643 259.521C466.968 259.805 468.199 259.947 469.335 259.947ZM489.769 260.941C491.095 260.562 492.018 260.089 492.538 259.521C493.106 258.953 493.438 258.267 493.532 257.462C493.674 256.657 493.745 255.308 493.745 253.415V218.554C493.745 217.087 493.58 216.093 493.248 215.572C492.917 215.051 492.231 214.791 491.189 214.791C490.953 214.791 490.408 214.838 489.556 214.933L489.343 214.791L489.627 212.377C493.603 211.809 497.106 211.123 500.135 210.318L500.561 211.241C500.041 212.046 499.567 217.11 499.141 226.435C498.763 235.76 498.573 245.629 498.573 256.042C498.573 257.462 498.763 258.48 499.141 259.095C499.52 259.71 500.159 260.018 501.058 260.018L503.543 259.876L503.685 260.16L503.117 263.213C499.993 263.071 497.887 263 496.798 263C495.189 263 492.751 263.284 489.485 263.852L489.769 260.941ZM522.368 263.852C519.434 263.852 516.83 263.213 514.558 261.935C512.286 260.61 510.535 258.764 509.304 256.397C508.074 253.983 507.458 251.238 507.458 248.161C507.458 244.99 508.168 242.008 509.588 239.215C511.056 236.422 512.996 234.198 515.41 232.541C517.824 230.884 520.404 230.056 523.149 230.056C526.605 230.056 529.232 230.932 531.03 232.683C532.829 234.434 533.728 236.99 533.728 240.351C533.728 241.724 533.586 242.883 533.302 243.83L532.379 244.682H512.783C512.736 249.273 513.635 252.823 515.481 255.332C517.375 257.793 520.002 259.024 523.362 259.024C526.013 259.024 528.9 258.29 532.024 256.823L532.45 256.965L533.231 259.024C531.527 260.255 529.634 261.367 527.551 262.361C525.516 263.355 523.788 263.852 522.368 263.852ZM525.918 241.416C526.628 241.321 527.102 241.156 527.338 240.919C527.575 240.682 527.693 240.209 527.693 239.499C527.693 237.606 527.173 236.162 526.131 235.168C525.137 234.174 523.694 233.677 521.8 233.677C519.576 233.677 517.659 234.434 516.049 235.949C514.487 237.464 513.493 239.499 513.067 242.055L525.918 241.416ZM518.605 225.867L517.185 224.518C519.315 222.199 521.469 219.761 523.646 217.205C525.824 214.649 527.22 212.992 527.835 212.235L528.545 212.377L531.243 215.288L531.172 216.069C530.462 216.59 528.924 217.82 526.557 219.761C524.191 221.654 521.753 223.737 519.244 226.009L518.605 225.867ZM558.471 248.587L556.767 240.067L556.98 239.073L565.429 233.677C568.127 231.831 569.476 229.796 569.476 227.571C569.476 224.778 568.198 222.648 565.642 221.181C563.086 219.666 559.559 218.791 555.063 218.554L554.921 217.773L557.264 214.01L558.258 213.726C561.145 213.821 563.796 214.389 566.21 215.43C568.671 216.471 570.612 217.868 572.032 219.619C573.452 221.37 574.162 223.311 574.162 225.441C574.162 227.476 573.759 229.228 572.955 230.695C572.15 232.162 571.156 233.393 569.973 234.387C568.837 235.334 567.275 236.446 565.287 237.724C563.961 238.576 562.991 239.239 562.376 239.712L562.163 240.351L563.654 247.096L563.441 247.664L559.11 248.871L558.471 248.587ZM560.956 263.852C559.678 263.852 558.684 263.473 557.974 262.716C557.311 261.911 556.98 260.941 556.98 259.805C556.98 258.574 557.382 257.533 558.187 256.681C558.991 255.829 560.056 255.403 561.382 255.403C562.66 255.403 563.654 255.805 564.364 256.61C565.074 257.367 565.429 258.314 565.429 259.45C565.429 260.681 565.003 261.722 564.151 262.574C563.346 263.426 562.281 263.852 560.956 263.852Z" fill="#121212"/>
<g filter="url(#filter4_d)">
<path d="M115.596 23H74.7963V32.6H90.0763V79H100.316V32.6H115.596V23ZM158.826 60.76H153.466V25H143.626L117.706 61.88V69.72H144.106V79H153.466V69.72H158.826V60.76ZM127.946 60.76L143.786 38.2H144.106V60.76H127.946ZM183.151 43.4C179.231 43.4 175.711 44.52 173.391 46.52H173.231L174.511 34.04H195.391V25H167.151L164.351 55.56H172.511C174.271 52.84 177.311 51.32 180.831 51.32C186.431 51.32 189.951 55 189.951 60.92C189.951 67.24 186.191 71.08 180.111 71.08C175.231 71.08 171.231 68.92 168.111 64.36L161.311 71.08C165.391 77 171.951 80.2 180.111 80.2C192.591 80.2 200.191 72.92 200.191 61C200.191 50.36 193.471 43.4 183.151 43.4ZM217.163 67.88H206.123V79H210.603L206.283 91.24H210.763L217.163 79V67.88ZM282.315 23H241.515V32.6H256.795V79H267.035V32.6H282.315V23ZM305.384 80.2C317.064 80.2 325.224 72.36 325.224 61.08C325.224 50.2 318.184 42.84 308.024 42.84C304.104 42.84 301.224 44.12 298.104 47.16L297.864 47L317.224 24.6H305.224L295.224 36.52C288.024 45 285.064 51.96 285.064 60.12C285.064 72.36 292.904 80.2 305.384 80.2ZM305.144 71.08C299.144 71.08 295.224 67.16 295.224 61.16C295.224 55.24 299.144 51.24 305.064 51.24C311.064 51.24 314.984 55.16 314.984 61.16C314.984 67.08 311.064 71.08 305.144 71.08ZM348.619 43.4C344.699 43.4 341.179 44.52 338.859 46.52H338.699L339.979 34.04H360.859V25H332.619L329.819 55.56H337.979C339.739 52.84 342.779 51.32 346.299 51.32C351.899 51.32 355.419 55 355.419 60.92C355.419 67.24 351.659 71.08 345.579 71.08C340.699 71.08 336.699 68.92 333.579 64.36L326.779 71.08C330.859 77 337.419 80.2 345.579 80.2C358.059 80.2 365.659 72.92 365.659 61C365.659 50.36 358.939 43.4 348.619 43.4ZM382.632 67.88H371.592V79H376.072L371.752 91.24H376.232L382.632 79V67.88ZM447.784 23H406.984V32.6H422.264V79H432.504V32.6H447.784V23ZM466.533 25H453.413V34.6H456.613V79H466.533V25ZM492.627 25H479.507V34.6H482.707V79H492.627V25ZM521.899 23.8C508.699 23.8 501.339 33.88 501.339 51.96C501.339 70.04 508.699 80.2 521.899 80.2C535.019 80.2 542.459 70.04 542.459 51.96C542.459 33.88 535.099 23.8 521.899 23.8ZM521.899 33.08C528.379 33.08 532.219 40.04 532.219 51.96C532.219 63.88 528.379 70.92 521.899 70.92C515.339 70.92 511.499 63.88 511.499 51.96C511.499 40.04 515.339 33.08 521.899 33.08ZM557.319 67.88H546.199V79H557.319V67.88ZM576.148 67.88H565.028V79H576.148V67.88ZM594.976 67.88H583.856V79H594.976V67.88Z" fill="#121212"/>
</g>
<defs>
<filter id="filter0_d" x="10.6091" y="309.601" width="130.664" height="308.394" filterUnits="userSpaceOnUse" color-interpolation-filters="sRGB">
<feFlood flood-opacity="0" result="BackgroundImageFix"/>
<feColorMatrix in="SourceAlpha" type="matrix" values="0 0 0 0 0 0 0 0 0 0 0 0 0 0 0 0 0 0 127 0"/>
<feOffset dx="-3" dy="2"/>
<feColorMatrix type="matrix" values="0 0 0 0 1 0 0 0 0 1 0 0 0 0 1 0 0 0 1 0"/>
<feBlend mode="normal" in2="BackgroundImageFix" result="effect1_dropShadow"/>
<feBlend mode="normal" in="SourceGraphic" in2="effect1_dropShadow" result="shape"/>
</filter>
<filter id="filter1_d" x="111.396" y="363.382" width="49.6043" height="264.115" filterUnits="userSpaceOnUse" color-interpolation-filters="sRGB">
<feFlood flood-opacity="0" result="BackgroundImageFix"/>
<feColorMatrix in="SourceAlpha" type="matrix" values="0 0 0 0 0 0 0 0 0 0 0 0 0 0 0 0 0 0 127 0"/>
<feOffset dx="-3" dy="2"/>
<feColorMatrix type="matrix" values="0 0 0 0 1 0 0 0 0 1 0 0 0 0 1 0 0 0 1 0"/>
<feBlend mode="normal" in2="BackgroundImageFix" result="effect1_dropShadow"/>
<feBlend mode="normal" in="SourceGraphic" in2="effect1_dropShadow" result="shape"/>
</filter>
<filter id="filter2_d" x="241.8" y="395.998" width="164.2" height="158.763" filterUnits="userSpaceOnUse" color-interpolation-filters="sRGB">
<feFlood flood-opacity="0" result="BackgroundImageFix"/>
<feColorMatrix in="SourceAlpha" type="matrix" values="0 0 0 0 0 0 0 0 0 0 0 0 0 0 0 0 0 0 127 0"/>
<feOffset dx="-3" dy="2"/>
<feColorMatrix type="matrix" values="0 0 0 0 1 0 0 0 0 1 0 0 0 0 1 0 0 0 1 0"/>
<feBlend mode="normal" in2="BackgroundImageFix" result="effect1_dropShadow"/>
<feBlend mode="normal" in="SourceGraphic" in2="effect1_dropShadow" result="shape"/>
</filter>
<filter id="filter3_d" x="475.391" y="359.359" width="188.609" height="251.765" filterUnits="userSpaceOnUse" color-interpolation-filters="sRGB">
<feFlood flood-opacity="0" result="BackgroundImageFix"/>
<feColorMatrix in="SourceAlpha" type="matrix" values="0 0 0 0 0 0 0 0 0 0 0 0 0 0 0 0 0 0 127 0"/>
<feOffset dx="-4" dy="3"/>
<feColorMatrix type="matrix" values="0 0 0 0 1 0 0 0 0 1 0 0 0 0 1 0 0 0 1 0"/>
<feBlend mode="normal" in2="BackgroundImageFix" result="effect1_dropShadow"/>
<feBlend mode="normal" in="SourceGraphic" in2="effect1_dropShadow" result="shape"/>
</filter>
<filter id="filter4_d" x="69.7963" y="23" width="525.179" height="72.24" filterUnits="userSpaceOnUse" color-interpolation-filters="sRGB">
<feFlood flood-opacity="0" result="BackgroundImageFix"/>
<feColorMatrix in="SourceAlpha" type="matrix" values="0 0 0 0 0 0 0 0 0 0 0 0 0 0 0 0 0 0 127 0"/>
<feOffset dx="-5" dy="4"/>
<feColorMatrix type="matrix" values="0 0 0 0 1 0 0 0 0 1 0 0 0 0 1 0 0 0 1 0"/>
<feBlend mode="normal" in2="BackgroundImageFix" result="effect1_dropShadow"/>
<feBlend mode="normal" in="SourceGraphic" in2="effect1_dropShadow" result="shape"/>
</filter>
</defs>
</svg>
