<svg width="672" height="663" viewBox="0 0 672 663" fill="none" xmlns="http://www.w3.org/2000/svg">
<mask id="mask0" mask-type="alpha" maskUnits="userSpaceOnUse" x="0" y="333" width="672" height="315">
<rect y="333" width="672" height="315" fill="#C4C4C4"/>
</mask>
<g mask="url(#mask0)">
<g filter="url(#filter0_d)">
<path d="M106.317 555.054C104.123 553.594 101.364 550.868 100.043 547.351C90.8842 539.731 87.0499 534.535 93.7668 539.663C92.765 537.541 92.0722 535.374 91.6331 533.536C88.5439 536.776 87.1456 527.829 87.0499 527.065C90.5206 527.065 96.0035 528.416 98.6901 532.294C99.8055 533.905 100.439 535.951 100.246 538.516C100.149 539.815 99.8394 541.247 99.2738 542.823C99.3186 541.45 99.6172 540.008 100.246 538.516C100.887 536.996 101.87 535.424 103.278 533.819C105.388 535.574 106.82 537.058 107.743 538.441C110.81 543.033 108.264 546.505 106.317 555.054Z" fill="#1FA85B"/>
<path d="M106.937 556.571C99.3377 558.088 83.2278 557.178 79.5802 541.403C90.2189 538.369 103.897 540.257 106.937 556.571Z" fill="#1FA85B"/>
<path d="M101.758 503.483C99.9407 505.715 97.8765 508.633 96.1211 511.764C91.5195 519.972 89.0396 529.647 98.6901 532.294C98.6995 532.297 98.709 532.3 98.7185 532.302C100.678 531.744 102.07 530.825 103.028 529.622C105.81 526.129 104.932 520.238 103.648 513.805C103.114 511.133 102.51 508.366 102.07 505.64C101.953 504.917 101.848 504.197 101.758 503.483Z" fill="#1FA85B"/>
<path d="M74.5231 509.108C74.47 508.731 74.4297 508.372 74.4015 508.033C79.9741 509.55 91.4234 515.921 92.6392 529.269C81.2628 527.204 76.411 517.677 74.9035 511.143C64.1923 511.556 51.9547 500.262 47.0449 494.382C53.6453 495.794 67.7043 500.621 74.5231 509.108Z" fill="#1FA85B"/>
<path d="M73.5348 500.327C72.6976 494.261 75.0694 486.982 77.4411 482.248C83.7785 484.958 90.6552 491.437 92.2885 498.156C92.8994 500.669 93.7668 507.384 92.7717 509.885C91.8278 511.837 91.0266 515.278 88.5439 516.93C81.4435 516.458 75.8146 507.501 74.2798 503.362C74.3498 503.895 74.3912 504.44 74.4015 505C64.6747 505 58.1902 492.865 56.1638 486.798C61.2379 488.082 70.6422 492.407 73.5348 500.327Z" fill="#1FA85B"/>
<path d="M66.3305 469.081C67.5863 465.461 69.5806 461.985 71.3619 459.496C75.4147 464.552 82.0457 483.463 73.5348 491.958C68.6711 490.634 65.8208 481.123 65.2375 477.71C63.2255 477.547 61.4626 477.04 59.9218 476.277C62.3776 478.927 64.7311 482.368 66.8024 486.798C50.9964 488.012 41.9789 475.169 39.4458 468.597C42.7179 467.706 48.6446 467.861 54.7034 471.826C51.2083 467.124 50.0845 460.672 50.0845 456.462C50.2434 456.477 50.4071 456.495 50.5753 456.516C42.9706 453.234 39.0534 439.039 37.926 430.676C47.0739 435.241 53.0884 439.17 56.5371 442.751C58.0395 438.926 60.604 435.589 62.1378 432.414C61.2424 432.495 60.2664 432.429 59.2034 432.193C59.2034 420.888 67.309 413.326 71.3619 410.958C71.815 418.193 70.485 431.415 62.3699 432.39C67.9418 441.061 76.1425 458.917 65.2826 462.529C60.8459 462.221 58.5166 459.85 57.5511 456.462C56.1379 457.021 54.8089 457.25 53.5611 457.202C57.9237 458.607 63.393 462.088 66.3305 469.081Z" fill="#1FA85B"/>
<path d="M83.5204 461.013C79.4675 465.942 75.6462 477.697 77.4411 482.248C89.5996 477.394 86.56 466.069 83.5204 461.013Z" fill="#1FA85B"/>
<path d="M57.3028 409.473C59.9952 419.656 60.7138 430.38 51.6043 436.744C45.291 435.168 42.2217 431.208 41.2329 426.126C35.3674 428.553 29.4919 410.958 27.2874 401.857C35.4569 408.756 39.4244 414.332 41.0837 418.458C41.3725 416.013 41.9304 413.475 42.6724 410.937C42.2337 411.015 41.7547 411.025 41.2329 410.958C31.7199 409.745 38.1042 387.195 42.4855 376.072C44.3897 382.587 46.6306 392.514 46.8248 400.123C48.3772 396.808 50.0504 393.76 51.6043 391.24C52.7352 395.754 55.1282 401.738 56.905 408.02C55.2952 399.696 63.2752 386.918 68.3223 380.622C66.8024 404.891 69.8421 412.475 59.2034 412.475C58.3293 411.603 57.7083 410.591 57.3028 409.473Z" fill="#1FA85B"/>
<path d="M34.8864 400.34C28.8166 400.34 25.2719 387.236 24.2525 380.653C16.8262 378.776 14.059 362.3 13.6091 353.32C20.7015 360.904 33.3666 376.982 27.2874 380.622C26.2174 380.889 25.2234 380.889 24.3011 380.665C29.3781 384.734 38.5212 394.294 34.8864 400.34Z" fill="#1FA85B"/>
<path d="M34.8864 376.072C23.9438 376.072 28.3006 347.758 31.8468 333.601C35.2666 342.289 39.7548 356.308 40.1832 365.843C42.5399 361.451 45.9862 356.595 48.5647 353.32C48.0581 361.409 45.5251 377.285 39.4458 376.072C38.6962 375.922 38.1854 375.571 37.8763 375.057C37.1035 375.713 36.1174 376.072 34.8864 376.072Z" fill="#1FA85B"/>
<path d="M57.5511 363.937C52.0226 369.499 42.7894 381.835 50.0845 386.689C57.3796 391.543 58.1019 373.544 57.5511 363.937Z" fill="#1FA85B"/>
<path d="M116.259 516.93C113.95 519.739 109.667 525.318 108.189 532.088C107.746 534.113 107.555 536.245 107.743 538.441C108.03 541.789 109.197 545.286 111.7 548.783C128.418 542.716 119.299 521.986 116.259 516.93Z" fill="#1FA85B"/>
<path d="M98.7185 450.395C88.4296 474.859 78.9609 472.115 92.7717 486.356C98.8694 492.643 103.278 472.115 98.7185 450.395Z" fill="#1FA85B"/>
<path d="M80.4807 426.126C69.8421 438.26 70.146 456.159 77.4411 461.013C84.7362 465.866 91.5947 454.945 80.4807 426.126Z" fill="#1FA85B"/>
<path d="M104.93 531.86C106.053 532.607 107.151 532.631 108.189 532.088C113.893 529.103 117.774 508.966 113.917 497.416C109.627 500.27 105.77 506.986 103.648 513.805C104.932 520.238 105.81 526.129 103.028 529.622C103.497 530.563 104.126 531.325 104.93 531.86Z" fill="#1FA85B"/>
<path d="M91.6331 533.536C86.7317 528.098 77.8531 521.108 65.4726 521.108C74.2114 537.461 86.8756 540.346 93.7668 539.663C92.765 537.541 92.0722 535.374 91.6331 533.536Z" fill="#1FA85B"/>
<path d="M114.982 552.941L113.131 548.783L108.695 540.257C110.132 544.065 108.001 547.661 106.317 555.054C106.116 554.92 105.909 554.775 105.699 554.62L106.649 556.637C108.912 561.717 110.883 566.804 112.9 572.007C114.023 574.904 115.16 577.838 116.368 580.826C121.04 592.374 123.547 604.242 126.22 616.894L126.305 617.298C127.72 623.993 129.466 630.609 131.178 637.096L131.628 638.8L141.273 639.995C141.126 639.436 140.152 635.369 140.005 634.813C138.283 628.284 136.594 621.883 135.228 615.42L135.073 614.683C132.45 602.266 129.8 589.719 124.824 577.419C123.723 574.697 122.633 571.887 121.53 569.042L121.529 569.04C119.451 563.684 117.324 558.2 114.982 552.941Z" fill="#1FA85B"/>
<path d="M92.2885 498.156C92.8994 500.669 93.7668 507.384 92.7717 509.885C92.9945 512.442 92.6597 510.165 94.159 511.163C94.8201 511.603 95.4749 511.793 96.1211 511.764C97.8765 508.633 99.9407 505.715 101.758 503.483C101.848 504.197 101.953 504.917 102.07 505.64C105.932 498.031 109.088 484.993 110.877 476.277C101.455 477.217 94.4866 488.533 92.2885 498.156Z" fill="#1FA85B"/>
<path d="M100.246 538.516C100.887 536.996 101.87 535.424 103.278 533.819C105.388 535.574 106.82 537.058 107.743 538.441C107.555 536.245 107.746 534.113 108.189 532.088C107.151 532.631 106.053 532.607 104.93 531.86C104.126 531.325 103.497 530.563 103.028 529.622C102.07 530.825 100.678 531.744 98.7185 532.302C98.709 532.3 98.6995 532.297 98.6901 532.294C99.8055 533.905 100.439 535.951 100.246 538.516Z" fill="#1FA85B"/>
</g>
<g filter="url(#filter1_d)">
<path d="M136.379 570.525C135.11 569.785 134.329 568.379 133.917 566.655C129.926 565.908 129.627 552.462 130.374 544.992C132.764 547.383 135.017 551.466 135.845 553.209C136.01 552.927 136.179 552.676 136.35 552.462C138.089 553.506 139.333 554.937 140.145 556.197C138.056 551.892 137.783 549.526 138.072 547.98C135.008 546.237 128.731 541.556 128.133 536.776C127.536 531.995 125.394 521.836 124.398 517.355C125.267 520.591 128.386 527.812 133.917 530.8C135.158 531.47 136.21 532.253 137.097 533.09C136.037 531.331 133.806 527.065 133.362 524.077C130.125 522.085 123.651 513.769 123.651 496.439C126.229 500.305 128.483 502.642 130.374 504.53C130.544 503.749 130.813 502.759 131.184 501.668C125.272 497.186 119.917 492.811 119.17 480.006C119.346 480.133 120.846 480.26 122.334 480.385C123.801 480.509 125.256 480.631 125.421 480.753C125.106 479.597 124.733 478.876 124.347 478.13C123.535 476.559 122.664 474.876 122.157 468.801C122.711 469.307 123.56 469.834 124.52 470.429C126.582 471.709 129.151 473.303 130.374 475.671C130.641 473.713 131.117 471.612 131.696 469.548C130.056 468.483 129.154 466.598 128.752 464.32C119.201 462.527 115.894 446.641 115.435 438.923C118.487 442.408 125.595 449.978 129.613 452.368C130.075 450.38 130.619 448.564 131.121 447.139C131.438 447.55 131.805 448.055 132.198 448.633C132.288 447.829 132.359 446.977 132.433 446.099C132.607 444.009 132.795 441.769 133.279 439.67C132.809 441.661 130.673 445.197 125.892 443.404C121.229 441.656 120.66 433.537 123.475 424.73C114.371 422.34 113.823 405.309 114.688 397.092C116.124 398.962 118.151 401.928 120.04 405.309C119.153 402.072 118.335 393.955 122.157 387.382C126.639 394.851 127.521 400.08 127.454 403.068C128.128 399.344 129.337 395.768 130.374 393.357C132.536 396.225 136.211 404.013 133.617 412.224C136.08 409.425 138.838 407.623 140.69 406.803C140.239 409.044 139.874 413.526 142.018 413.526C143.081 424.282 135.196 428.213 131.121 428.835C132.591 431.086 133.896 434.016 134.254 436.682C134.617 435.875 135.059 435.121 135.603 434.441C136.146 433.762 136.66 433.157 137.161 432.568C139.413 429.916 141.395 427.582 144.567 420.248C144.275 423.742 144.552 426.669 144.82 429.514C145.241 433.969 145.643 438.226 143.82 444.151C141.429 451.92 136.022 451.87 133.617 450.874C135.367 453.846 137.097 457.645 137.097 460.723C138.174 459.033 139.441 457.295 140.69 456.103C141.217 455.6 141.783 455.118 142.37 454.617C145.266 452.148 148.679 449.239 150.542 441.164C150.542 450.127 150.519 463.573 147.543 474.03C147.79 473.71 148.043 473.384 148.3 473.053C150.229 470.571 152.438 467.727 154.979 463.645C152.598 467.493 152.695 470.424 152.854 475.255C152.94 477.874 153.045 481.051 152.783 485.235C152.186 494.796 145.614 496.19 142.403 495.692C144.479 498.94 145.455 502.229 145.713 503.909C149.544 500.465 154.116 497.034 158.759 494.945C155.174 519.446 145.812 520.908 141.579 518.576C141.74 518.729 141.902 518.881 142.064 519.033C144.174 521.016 146.261 522.978 147.135 525.571C148.52 522.832 153.231 517.205 161 516.608C159.805 536.925 150.286 541.507 145.676 541.258C149.287 546.318 148.799 550.654 147.883 552.462C151.246 549.192 152.821 548.727 157.265 548.727C153.68 561.276 148.204 562.92 144.794 562.92C145.596 565.537 145.74 567.5 145.478 568.951H145.493L144.526 574.857C143.528 580.96 142.517 587.147 141.118 593.339C139.314 601.322 137.207 609.305 134.995 617.073C134.094 620.239 133.158 623.262 132.242 626.222C130.286 632.539 128.419 638.569 127.162 645.096L126.314 649.496L118.36 643.4C119.713 636.381 121.819 629.569 123.845 623.014C124.726 620.166 125.592 617.365 126.374 614.618C128.555 606.959 130.617 599.142 132.374 591.363C133.711 585.447 134.681 579.517 135.687 573.362L135.923 571.924L136.379 570.525Z" fill="#1FA85B"/>
</g>
<g filter="url(#filter2_d)">
<path d="M253.114 479.638C266.585 460.689 280.519 458.584 285.802 459.9C286.528 460.081 287.783 460.295 287.783 461.874C287.783 463.848 274.906 474.703 265.991 491.48C257.859 506.784 252.123 516.482 250.142 518.127C245.519 513.192 239.642 498.586 253.114 479.638Z" fill="#423FE1"/>
<path d="M269.953 488.52C273.25 482.772 284.811 468.453 288.773 464.834C290.094 463.519 292.736 462.071 292.736 466.808C291.943 491.283 284.481 503.981 280.849 507.271C274.245 512.534 258.463 521.285 252.123 518.127C261.038 507.271 265.991 495.428 269.953 488.52Z" fill="#423FE1"/>
<path d="M326.414 484.572C329.159 486.623 331.448 488.624 333.348 490.551C325.424 465.878 340.282 453.049 342.263 450.088C344.244 447.128 360.093 439.232 361.083 443.18C362.129 447.347 371.98 462.918 364.055 481.669C357.716 496.67 346.886 501.078 342.263 501.407C341.832 501.299 341.155 500.947 340.3 500.246C342.354 504.845 342.113 508.39 341.273 510.231C336.32 512.534 322.65 515.363 307.594 508.258C292.538 501.152 291.415 487.533 292.736 481.612C296.368 477.006 308.188 471.151 326.414 484.572Z" fill="#423FE1"/>
<path d="M330.376 560.563C316.113 542.404 320.471 527.338 324.433 522.074C333.15 532.747 353.159 562.049 362.074 575.366C357.451 577.998 344.64 578.722 330.376 560.563Z" fill="#423FE1"/>
<path d="M363.065 573.392L326.414 521.087C333.348 518.784 349.791 518.916 360.093 537.864C370.395 556.813 366.366 569.445 363.065 573.392Z" fill="#423FE1"/>
<path d="M275.896 532.93C274.311 532.14 271.934 529.969 272.925 527.995C275.566 525.693 281.84 521.877 289.764 525.035C299.669 528.982 318.49 537.864 320.471 546.746C322.452 555.628 321.462 565.497 317.499 560.563C313.537 555.628 277.877 533.917 275.896 532.93Z" fill="#423FE1"/>
<path d="M273.915 548.72C267.576 543.194 268.302 536.548 269.953 532.93C270.944 531.943 272.938 532.282 273.912 532.93C311.919 555.945 315.518 559.576 316.509 563.524C316.989 565.438 316.113 565.892 310.566 567.471C283.821 562.537 281.84 555.628 273.915 548.72Z" fill="#423FE1"/>
<path d="M372.97 513.192C361.083 496.612 363.395 483.914 366.036 479.638C369.998 481.217 392.121 513.192 402.687 528.982L400.705 530.956C399.715 531.943 387.828 533.917 372.97 513.192Z" fill="#423FE1"/>
<path d="M394.762 493.454C384.46 477.664 371.98 477.006 367.027 478.651C369.008 479.638 401.696 524.048 403.677 527.995C407.639 517.14 407.639 513.192 394.762 493.454Z" fill="#423FE1"/>
<path fill-rule="evenodd" clip-rule="evenodd" d="M333.348 462.576C340.282 450.733 338.301 430.008 327.405 421.126C326.506 420.394 326.291 420.347 325.424 420.139C325.424 420.139 324.346 420.003 324.186 420.665C324.039 421.27 322.712 464.102 322.485 471.458C322.464 472.149 323.443 472.445 323.443 472.445C326.039 472.019 329.141 469.761 333.348 462.576ZM319.48 472.445C306.603 467.51 307.594 452.707 307.594 448.759C307.594 445.43 312.942 422.158 321.462 420.139C321.462 420.139 322.382 420.204 322.417 420.665C322.449 421.088 320.784 464.338 320.509 471.458C320.459 472.755 319.48 472.445 319.48 472.445Z" fill="#423FE1"/>
</g>
<g filter="url(#filter3_d)">
<mask id="mask1" mask-type="alpha" maskUnits="userSpaceOnUse" x="479" y="383" width="185" height="250">
<path d="M515.192 629.966C505.657 627.959 493.238 620.766 488.22 617.421C488.22 615.539 489.475 616.794 489.475 613.657C489.475 611.148 489.893 610.521 490.102 610.521C491.565 610.73 493.865 610.521 491.356 608.012C488.847 605.503 488.22 600.694 488.22 598.604V570.378L488.847 532.743L489.475 525.216C489.475 523.753 489.349 520.324 488.847 518.317C488.346 516.31 488.22 503.681 488.22 497.618C488.429 488.418 488.847 467.761 488.847 458.729C488.847 447.438 486.338 438.03 486.338 434.894C486.338 432.385 484.248 430.085 483.202 429.248C482.993 429.039 482.7 427.743 483.202 424.23C482.575 418.585 483.202 422.349 480.693 416.076C478.686 411.058 479.439 404.786 480.066 402.277C480.902 401.023 482.951 397.635 484.457 394.123C484.958 390.61 486.338 389.732 486.966 389.732C497.629 388.687 521.589 386.22 532.127 384.714C545.299 382.833 577.288 383.46 587.324 383.46C595.353 383.46 601.124 384.714 603.005 385.342C604.051 385.969 607.898 387.349 614.923 387.85C636.876 387.85 638.758 388.478 639.385 388.478C640.013 388.478 641.267 389.732 642.522 389.732C643.776 389.732 647.54 390.359 647.54 392.241C647.54 394.123 635.622 399.768 635.622 400.395C635.622 401.023 640.64 402.904 641.894 404.159C643.149 405.413 642.522 407.295 642.522 407.922C642.522 408.549 645.031 409.804 645.658 410.431C646.285 411.058 648.167 414.822 648.167 415.449C649.421 415.449 650.676 417.958 651.303 417.958C651.93 417.958 655.694 419.213 656.321 425.485C657.575 459.356 657.575 512.044 657.575 516.435V529.607C656.948 530.234 655.945 531.614 656.948 532.116C657.952 532.618 658.203 536.089 658.203 537.761C658.621 554.07 659.708 588.191 660.712 594.213C661.715 600.234 661.13 607.594 660.712 610.521C660.712 611.148 661.213 612.779 663.221 614.285C665.102 619.93 663.221 619.303 661.339 619.93C659.833 620.432 657.366 620.557 656.321 620.557C655.903 620.557 654.816 620.808 653.812 621.812C631.733 625.324 568.089 629.966 539.027 631.847C537.145 632.057 533.382 632.349 533.382 631.847C533.382 631.346 532.545 631.22 532.127 631.22C528.573 631.429 521.339 631.722 520.837 631.22C520.209 630.593 518.328 629.966 515.192 629.966Z" fill="#F94B55"/>
</mask>
<g mask="url(#mask1)">
<path d="M515.192 629.966C505.657 627.959 493.238 620.766 488.22 617.421C488.22 615.539 489.475 616.794 489.475 613.657C489.475 611.148 489.893 610.521 490.102 610.521C491.565 610.73 493.865 610.521 491.356 608.012C488.847 605.503 488.22 600.694 488.22 598.604V570.378L488.847 532.743L489.475 525.216C489.475 523.753 489.349 520.324 488.847 518.317C488.346 516.31 488.22 503.681 488.22 497.618C488.429 488.418 488.847 467.761 488.847 458.729C488.847 447.438 486.338 438.03 486.338 434.894C486.338 432.385 484.248 430.085 483.202 429.248C482.993 429.039 482.7 427.743 483.202 424.23C482.575 418.585 483.202 422.349 480.693 416.076C478.686 411.058 479.439 404.786 480.066 402.277C480.902 401.023 482.951 397.635 484.457 394.123C484.958 390.61 486.338 389.732 486.966 389.732C497.629 388.687 521.589 386.22 532.127 384.714C545.299 382.833 577.288 383.46 587.324 383.46C595.353 383.46 601.124 384.714 603.005 385.342C604.051 385.969 607.898 387.349 614.923 387.85C636.876 387.85 638.758 388.478 639.385 388.478C640.013 388.478 641.267 389.732 642.522 389.732C643.776 389.732 647.54 390.359 647.54 392.241C647.54 394.123 635.622 399.768 635.622 400.395C635.622 401.023 640.64 402.904 641.894 404.159C643.149 405.413 642.522 407.295 642.522 407.922C642.522 408.549 645.031 409.804 645.658 410.431C646.285 411.058 648.167 414.822 648.167 415.449C649.421 415.449 650.676 417.958 651.303 417.958C651.93 417.958 655.694 419.213 656.321 425.485C657.575 459.356 657.575 512.044 657.575 516.435V529.607C656.948 530.234 655.945 531.614 656.948 532.116C657.952 532.618 658.203 536.089 658.203 537.761C658.621 554.07 659.708 588.191 660.712 594.213C661.715 600.234 661.13 607.594 660.712 610.521C660.712 611.148 661.213 612.779 663.221 614.285C665.102 619.93 663.221 619.303 661.339 619.93C659.833 620.432 657.366 620.557 656.321 620.557C655.903 620.557 654.816 620.808 653.812 621.812C631.733 625.324 568.089 629.966 539.027 631.847C537.145 632.057 533.382 632.349 533.382 631.847C533.382 631.346 532.545 631.22 532.127 631.22C528.573 631.429 521.339 631.722 520.837 631.22C520.209 630.593 518.328 629.966 515.192 629.966Z" fill="#F15A38"/>
<path d="M488.8 453.61C492.354 457.165 502.097 464.775 512.635 466.783C522.671 465.528 520.789 463.646 553.406 463.019C586.022 462.392 602.958 468.037 631.184 465.528C650.992 463.767 657.446 460.912 658.168 459.25L658.155 458.628C658.258 458.808 658.269 459.017 658.168 459.25L659.41 518.844C653.555 520.934 635.951 524.74 617.384 523.234C594.176 521.353 568.46 522.607 550.897 522.607C536.847 522.607 519.953 523.234 512.635 523.862C506.363 522.816 492.061 514.829 487.545 508.808C483.029 502.786 486.5 469.501 488.8 453.61Z" fill="white"/>
<path d="M568.347 483.978C568.347 483.978 563.833 483.355 560.93 483.282C558.075 483.21 553.637 483.593 553.637 483.593V487.055L559.049 486.996L559.146 503.934L562.838 504.031V487.095L568.347 487.44V483.978Z" fill="#F15A38"/>
<path d="M575.107 485.124L570.376 484.752V488.215L571.53 488.245V504.258L575.107 504.785V485.124Z" fill="#F15A38"/>
<path d="M585.999 491.798C584.586 491.761 583.316 492.131 582.48 492.831L582.422 492.829L582.884 488.34L590.412 489.072V485.524L580.23 485.01L579.221 496.006L582.163 496.083C582.797 495.118 583.893 494.599 585.162 494.632C587.181 494.685 588.451 496.046 588.451 498.181C588.451 500.46 587.095 501.81 584.903 501.752C583.143 501.706 581.701 500.889 580.576 499.215L578.125 501.575C579.596 503.748 581.815 505.155 584.757 505.232C589.257 505.35 591.654 503.439 591.654 499.14C591.654 495.303 589.72 491.895 585.999 491.798Z" fill="#F15A38"/>
<path d="M601.011 485.122C596.252 484.997 593.599 487.309 593.599 493.829C593.599 500.35 596.252 505.339 601.011 505.463C605.742 505.587 608.424 503.247 608.424 496.727C608.424 490.206 605.77 485.246 601.011 485.122ZM601.011 488.469C603.348 488.53 604.732 492.331 604.732 496.63C604.732 500.929 603.348 502.177 601.011 502.116C598.646 502.054 597.262 498.224 597.262 493.925C597.262 489.626 598.646 488.407 601.011 488.469Z" fill="#F15A38"/>
<path d="M506.077 401.968C508.464 404.388 512.218 408.968 517.557 416.917C515.469 419.434 510.311 425.256 503.16 432.509C512.457 419.224 508.979 406.613 506.077 401.968Z" fill="white"/>
<path d="M539.606 399.041C534.993 399.271 529.319 398.98 523.925 398.497C528.525 399.515 534.877 405.361 539.606 404.686C543.997 404.058 545.058 401.092 547.133 399.04C546.772 399.449 547.804 398.413 547.133 399.04C544.471 399.01 541.907 398.925 539.606 399.041Z" fill="white"/>
<path d="M635.574 400.295C633.274 399.668 622.402 398.413 618.012 400.295C614.248 401.549 613.412 403.849 612.994 404.058C619.893 402.804 635.574 402.804 635.574 400.295Z" fill="white"/>
<path d="M500.09 398.413C496.954 400.922 491.936 405.313 489.427 397.159C494.445 397.786 495.346 399.963 500.09 398.413Z" fill="white"/>
<path d="M489.427 397.159C488.31 393.528 485.873 392.768 484.409 392.141L481.9 398.413C482.318 398.622 486.918 394.148 489.427 397.159Z" fill="white"/>
<path d="M547.133 399.04C556.083 399.144 566.134 402.948 570.968 403.431C574.038 403.738 588.523 404.045 593.035 401.856C573.166 401.746 553.981 396.483 547.133 399.04Z" fill="white"/>
</g>
</g>
</g>
<path d="M50.5104 222.336C48.1437 222.336 45.9191 221.981 43.8364 221.271C41.8011 220.561 39.2214 219.212 36.0974 217.224C32.9734 215.236 28.5004 212.112 22.6784 207.852C18.8444 207.852 15.4364 206.929 12.4544 205.083C9.47239 203.237 7.15305 200.657 5.49639 197.344C3.83972 193.983 3.01139 190.173 3.01139 185.913C3.01139 181.274 4.02905 177.062 6.06439 173.275C8.14705 169.441 10.9634 166.435 14.5134 164.258C18.1107 162.033 22.0631 160.921 26.3704 160.921C30.2991 160.921 33.7781 161.844 36.8074 163.69C39.8367 165.536 42.2034 168.116 43.9074 171.429C45.6114 174.742 46.4634 178.529 46.4634 182.789C46.4634 186.67 45.7297 190.291 44.2624 193.652C42.7951 196.965 40.7361 199.782 38.0854 202.101C35.4347 204.42 32.4291 206.053 29.0684 207V207.355C34.0857 210.763 38.2511 213.177 41.5644 214.597C44.9251 216.017 48.0254 216.727 50.8654 216.727C52.2381 216.727 53.5161 216.609 54.6994 216.372C55.9301 216.183 56.5454 216.064 56.5454 216.017L56.8294 216.23L57.2554 217.508C56.9714 217.745 56.3797 218.242 55.4804 218.999C54.5811 219.804 53.6344 220.561 52.6404 221.271C51.6464 221.981 50.9364 222.336 50.5104 222.336ZM24.8794 204.231C27.8614 204.231 30.5121 203.45 32.8314 201.888C35.1507 200.326 36.9494 198.149 38.2274 195.356C39.5054 192.563 40.1444 189.368 40.1444 185.771C40.1444 181.748 39.4581 178.198 38.0854 175.121C36.7127 171.997 34.7957 169.559 32.3344 167.808C29.9204 166.057 27.1277 165.181 23.9564 165.181C21.0691 165.181 18.4894 165.962 16.2174 167.524C13.9927 169.086 12.2414 171.263 10.9634 174.056C9.73272 176.849 9.11739 180.044 9.11739 183.641C9.11739 187.664 9.78005 191.238 11.1054 194.362C12.4307 197.439 14.2767 199.853 16.6434 201.604C19.0574 203.355 21.8027 204.231 24.8794 204.231ZM56.0672 182.363C56.0672 179.807 55.1916 178.529 53.4402 178.529C53.1089 178.529 52.7539 178.576 52.3752 178.671C51.9966 178.718 51.7599 178.766 51.6652 178.813L51.9492 176.186C53.7952 175.902 55.7832 175.523 57.9132 175.05C60.0432 174.529 61.4396 174.198 62.1022 174.056L62.5282 174.908C62.0549 176.139 61.6289 178.931 61.2502 183.286C60.8716 187.641 60.6822 191.877 60.6822 195.995C60.6822 200.634 62.5756 202.953 66.3622 202.953C67.7822 202.953 69.1076 202.622 70.3382 201.959C71.5689 201.249 73.1072 200.231 74.9532 198.906V182.434C74.9532 181.014 74.6929 180.02 74.1722 179.452C73.6516 178.884 72.7286 178.6 71.4032 178.6L69.6992 178.671L69.9832 176.115C72.0659 175.831 74.2432 175.452 76.5152 174.979C78.7872 174.506 80.2546 174.198 80.9172 174.056L81.3432 174.908C80.9172 175.997 80.5386 178.955 80.2072 183.783C79.9232 188.611 79.7812 193.865 79.7812 199.545C79.7812 200.586 80.0416 201.391 80.5622 201.959C81.0829 202.527 81.7929 202.811 82.6922 202.811C83.3549 202.811 83.9939 202.693 84.6092 202.456C85.2719 202.172 85.7926 201.888 86.1712 201.604C86.5972 201.32 86.8576 201.131 86.9522 201.036L87.9462 202.172C87.7569 202.456 87.3072 203.048 86.5972 203.947C85.9346 204.846 85.1299 205.722 84.1832 206.574C83.2839 207.426 82.4792 207.852 81.7692 207.852C77.9352 207.852 75.8289 205.935 75.4502 202.101L75.0952 201.959C72.8232 203.71 70.7642 205.13 68.9182 206.219C67.1196 207.308 65.8889 207.852 65.2262 207.852C62.1969 207.852 59.8539 207.142 58.1972 205.722C56.5879 204.302 55.7832 202.267 55.7832 199.616L56.0672 182.363ZM105.555 207.852C102.621 207.852 100.017 207.213 97.7454 205.935C95.4734 204.61 93.722 202.764 92.4914 200.397C91.2607 197.983 90.6454 195.238 90.6454 192.161C90.6454 188.99 91.3554 186.008 92.7754 183.215C94.2427 180.422 96.1834 178.198 98.5974 176.541C101.011 174.884 103.591 174.056 106.336 174.056C109.792 174.056 112.419 174.932 114.217 176.683C116.016 178.434 116.915 180.99 116.915 184.351C116.915 185.724 116.773 186.883 116.489 187.83L115.566 188.682H95.9704C95.923 193.273 96.8224 196.823 98.6684 199.332C100.562 201.793 103.189 203.024 106.549 203.024C109.2 203.024 112.087 202.29 115.211 200.823L115.637 200.965L116.418 203.024C114.714 204.255 112.821 205.367 110.738 206.361C108.703 207.355 106.975 207.852 105.555 207.852ZM109.105 185.416C109.815 185.321 110.289 185.156 110.525 184.919C110.762 184.682 110.88 184.209 110.88 183.499C110.88 181.606 110.36 180.162 109.318 179.168C108.324 178.174 106.881 177.677 104.987 177.677C102.763 177.677 100.846 178.434 99.2364 179.949C97.6744 181.464 96.6804 183.499 96.2544 186.055L109.105 185.416ZM146.131 207.852C144.616 207.852 143.22 207.734 141.942 207.497C140.711 207.308 139.741 207.095 139.031 206.858C138.321 206.621 137.871 206.456 137.682 206.361L137.469 205.864C137.611 205.154 137.776 203.687 137.966 201.462C138.155 199.237 138.273 197.533 138.321 196.35L140.806 195.995C140.806 199.119 141.326 201.32 142.368 202.598C143.409 203.876 145.184 204.515 147.693 204.515C149.491 204.515 151.006 204.113 152.237 203.308C153.467 202.503 154.083 201.509 154.083 200.326C154.083 199.143 153.515 198.078 152.379 197.131C151.29 196.137 149.113 194.764 145.847 193.013C143.149 191.64 141.184 190.244 139.954 188.824C138.723 187.404 138.108 185.842 138.108 184.138C138.108 182.245 138.676 180.541 139.812 179.026C140.948 177.464 142.51 176.257 144.498 175.405C146.486 174.506 148.71 174.056 151.172 174.056C152.308 174.056 153.396 174.151 154.438 174.34C155.479 174.482 156.331 174.648 156.994 174.837C157.656 175.026 158.082 175.145 158.272 175.192L158.414 175.547C158.319 176.02 158.106 177.109 157.775 178.813C157.443 180.47 157.207 182.268 157.065 184.209L154.438 184.422C154.438 184.28 154.461 183.996 154.509 183.57C154.556 183.144 154.58 182.742 154.58 182.363C154.58 180.659 154.106 179.428 153.16 178.671C152.26 177.866 150.793 177.464 148.758 177.464C147.148 177.464 145.776 177.843 144.64 178.6C143.551 179.357 143.007 180.28 143.007 181.369C143.007 182.505 143.48 183.57 144.427 184.564C145.421 185.558 147.006 186.623 149.184 187.759C153.018 189.794 155.621 191.522 156.994 192.942C158.414 194.315 159.124 195.9 159.124 197.699C159.124 199.498 158.532 201.178 157.349 202.74C156.165 204.302 154.556 205.556 152.521 206.503C150.533 207.402 148.403 207.852 146.131 207.852ZM165.964 204.941C167.384 204.562 168.402 204.018 169.017 203.308C169.632 202.551 169.94 201.557 169.94 200.326V182.292C169.94 179.736 169.064 178.458 167.313 178.458C166.982 178.458 166.627 178.505 166.248 178.6C165.869 178.647 165.633 178.695 165.538 178.742L165.822 176.115C167.81 175.831 169.845 175.452 171.928 174.979C174.058 174.506 175.431 174.198 176.046 174.056L176.401 174.908C175.975 175.902 175.596 178.955 175.265 184.067C174.934 189.132 174.768 194.457 174.768 200.042C174.768 201.415 174.957 202.432 175.336 203.095C175.715 203.71 176.354 204.018 177.253 204.018C177.774 204.018 178.271 203.994 178.744 203.947C179.217 203.9 179.549 203.876 179.738 203.876L179.88 204.16L179.312 207.213C178.886 207.166 178.081 207.118 176.898 207.071C175.715 207.024 174.413 207 172.993 207C171.762 207 170.342 207.118 168.733 207.355C167.171 207.592 166.153 207.757 165.68 207.852L165.964 204.941ZM171.928 165.678C170.839 165.678 169.987 165.323 169.372 164.613C168.757 163.903 168.449 163.051 168.449 162.057C168.449 160.921 168.851 159.951 169.656 159.146C170.461 158.294 171.455 157.868 172.638 157.868C173.727 157.868 174.579 158.223 175.194 158.933C175.809 159.643 176.117 160.495 176.117 161.489C176.117 162.625 175.715 163.619 174.91 164.471C174.105 165.276 173.111 165.678 171.928 165.678ZM216.319 176.967C215.42 177.109 213.385 177.322 210.213 177.606L209.929 177.961C211.823 180.044 212.769 182.458 212.769 185.203C212.769 187.475 212.13 189.581 210.852 191.522C209.622 193.463 207.941 195.001 205.811 196.137C203.681 197.226 201.338 197.77 198.782 197.77C197.41 197.77 196.084 197.581 194.806 197.202C193.718 197.817 192.937 198.385 192.463 198.906C191.99 199.427 191.753 199.947 191.753 200.468C191.753 201.557 192.487 202.314 193.954 202.74C195.422 203.166 197.717 203.568 200.841 203.947C203.918 204.326 206.403 204.728 208.296 205.154C210.19 205.533 211.823 206.243 213.195 207.284C214.568 208.325 215.254 209.769 215.254 211.615C215.254 213.698 214.402 215.709 212.698 217.65C211.042 219.591 208.841 221.153 206.095 222.336C203.397 223.567 200.605 224.182 197.717 224.182C194.357 224.182 191.706 223.33 189.765 221.626C187.872 219.969 186.925 217.674 186.925 214.739C187.588 213.887 188.535 212.893 189.765 211.757C191.043 210.621 192.44 209.485 193.954 208.349V207.923C191.493 207.497 189.6 206.692 188.274 205.509C186.949 204.326 186.263 202.811 186.215 200.965C188.061 199.214 190.049 197.699 192.179 196.421V196.137C190.523 195.19 189.221 193.936 188.274 192.374C187.375 190.765 186.925 188.966 186.925 186.978C186.925 184.659 187.517 182.529 188.7 180.588C189.931 178.6 191.54 177.014 193.528 175.831C195.564 174.648 197.765 174.056 200.131 174.056C201.22 174.056 202.569 174.198 204.178 174.482C205.362 174.719 206.332 174.837 207.089 174.837C209.219 174.6 212.485 173.89 216.887 172.707L217.1 172.991L216.319 176.967ZM200.415 194.646C202.593 194.646 204.297 193.96 205.527 192.587C206.805 191.214 207.444 189.321 207.444 186.907C207.444 184.162 206.687 181.937 205.172 180.233C203.658 178.529 201.693 177.677 199.279 177.677C197.102 177.677 195.374 178.387 194.096 179.807C192.866 181.227 192.25 183.144 192.25 185.558C192.25 188.256 193.008 190.457 194.522 192.161C196.037 193.818 198.001 194.646 200.415 194.646ZM197.007 208.491C195.587 209.485 194.499 210.574 193.741 211.757C192.984 212.988 192.605 214.195 192.605 215.378C192.605 216.987 193.292 218.265 194.664 219.212C196.037 220.206 197.859 220.703 200.131 220.703C201.93 220.703 203.634 220.372 205.243 219.709C206.9 219.094 208.225 218.242 209.219 217.153C210.213 216.064 210.71 214.905 210.71 213.674C210.71 212.727 210.355 211.97 209.645 211.402C208.935 210.834 207.61 210.337 205.669 209.911C203.776 209.485 200.889 209.012 197.007 208.491ZM241.381 204.941C242.801 204.562 243.818 204.018 244.434 203.308C245.049 202.551 245.357 201.557 245.357 200.326L245.641 186.268C245.641 183.901 245.12 182.079 244.079 180.801C243.085 179.523 241.641 178.884 239.748 178.884C238.233 178.884 236.695 179.286 235.133 180.091C233.571 180.848 232.198 181.677 231.015 182.576C230.589 192.374 230.376 198.196 230.376 200.042C230.376 201.509 230.565 202.551 230.944 203.166C231.322 203.734 231.985 204.018 232.932 204.018C233.452 204.018 233.949 203.994 234.423 203.947C234.896 203.9 235.227 203.876 235.417 203.876L235.559 204.16L234.92 207.213C234.494 207.166 233.665 207.118 232.435 207.071C231.204 207.024 229.879 207 228.459 207C227.228 207 225.855 207.047 224.341 207.142C222.873 207.284 221.903 207.379 221.43 207.426L221.785 204.515C223.157 204.278 224.128 203.852 224.696 203.237C225.264 202.622 225.548 201.651 225.548 200.326V183.002C225.548 181.393 225.287 180.28 224.767 179.665C224.246 179.002 223.347 178.671 222.069 178.671H221.288L221.075 178.387L221.288 176.044C223.323 175.713 225.335 175.334 227.323 174.908C229.358 174.435 230.66 174.127 231.228 173.985L231.654 174.553C231.559 174.837 231.417 175.452 231.228 176.399C231.038 177.298 230.92 178.245 230.873 179.239L231.015 179.452C236.411 175.855 239.89 174.056 241.452 174.056C244.434 174.056 246.8 174.884 248.552 176.541C250.303 178.198 251.179 180.422 251.179 183.215C251.179 183.688 251.037 185.866 250.753 189.747C250.374 194.67 250.185 198.101 250.185 200.042C250.185 201.415 250.374 202.432 250.753 203.095C251.131 203.71 251.77 204.018 252.67 204.018C253.19 204.018 253.687 203.994 254.161 203.947C254.634 203.9 254.965 203.876 255.155 203.876L255.297 204.16L254.729 207.213C254.303 207.166 253.498 207.118 252.315 207.071C251.131 207.024 249.83 207 248.41 207C247.179 207 245.759 207.118 244.15 207.355C242.588 207.592 241.57 207.757 241.097 207.852L241.381 204.941ZM260.469 204.941C261.889 204.562 262.907 204.018 263.522 203.308C264.137 202.551 264.445 201.557 264.445 200.326V182.292C264.445 179.736 263.569 178.458 261.818 178.458C261.487 178.458 261.132 178.505 260.753 178.6C260.374 178.647 260.138 178.695 260.043 178.742L260.327 176.115C262.315 175.831 264.35 175.452 266.433 174.979C268.563 174.506 269.936 174.198 270.551 174.056L270.906 174.908C270.48 175.902 270.101 178.955 269.77 184.067C269.439 189.132 269.273 194.457 269.273 200.042C269.273 201.415 269.462 202.432 269.841 203.095C270.22 203.71 270.859 204.018 271.758 204.018C272.279 204.018 272.776 203.994 273.249 203.947C273.722 203.9 274.054 203.876 274.243 203.876L274.385 204.16L273.817 207.213C273.391 207.166 272.586 207.118 271.403 207.071C270.22 207.024 268.918 207 267.498 207C266.267 207 264.847 207.118 263.238 207.355C261.676 207.592 260.658 207.757 260.185 207.852L260.469 204.941ZM266.433 165.678C265.344 165.678 264.492 165.323 263.877 164.613C263.262 163.903 262.954 163.051 262.954 162.057C262.954 160.921 263.356 159.951 264.161 159.146C264.966 158.294 265.96 157.868 267.143 157.868C268.232 157.868 269.084 158.223 269.699 158.933C270.314 159.643 270.622 160.495 270.622 161.489C270.622 162.625 270.22 163.619 269.415 164.471C268.61 165.276 267.616 165.678 266.433 165.678ZM302.162 204.941C303.345 204.61 304.197 204.231 304.718 203.805C305.286 203.379 305.665 202.74 305.854 201.888C306.043 200.989 306.138 199.616 306.138 197.77V182.292C306.138 181.156 306.02 180.328 305.783 179.807C305.546 179.286 305.097 178.931 304.434 178.742C303.771 178.553 302.706 178.458 301.239 178.458H289.879C289.879 180.825 289.832 184.422 289.737 189.25C289.642 194.078 289.595 197.675 289.595 200.042C289.595 202.645 290.755 203.947 293.074 203.947C294.305 203.947 295.299 203.947 296.056 203.947C296.813 203.9 297.287 203.876 297.476 203.876L297.618 204.16L297.121 207.142C296.458 207.142 295.251 207.118 293.5 207.071C291.749 207.024 290.021 207 288.317 207C286.66 207 285.027 207.024 283.418 207.071C281.856 207.166 280.838 207.237 280.365 207.284L280.72 204.515C281.856 204.373 282.708 204.113 283.276 203.734C283.844 203.308 284.223 202.669 284.412 201.817C284.649 200.918 284.767 199.64 284.767 197.983V181.298C284.672 180.162 284.317 179.381 283.702 178.955C283.134 178.529 281.998 178.292 280.294 178.245L280.01 177.819L280.507 175.405L284.767 174.624C284.767 170.506 285.477 166.932 286.897 163.903C288.317 160.826 290.352 158.46 293.003 156.803C295.654 155.146 298.778 154.318 302.375 154.318C303.984 154.318 305.475 154.507 306.848 154.886C308.268 155.217 309.925 155.833 311.818 156.732L311.96 157.371C311.818 157.655 311.51 158.294 311.037 159.288C310.611 160.282 310.185 161.418 309.759 162.696L308.978 162.909C308.978 162.814 308.481 162.388 307.487 161.631C306.493 160.874 305.262 160.164 303.795 159.501C302.328 158.838 300.742 158.507 299.038 158.507C296.056 158.507 293.808 159.596 292.293 161.773C290.826 163.903 290.068 167.193 290.021 171.642L289.95 174.908C298.565 174.908 304.032 174.861 306.351 174.766C308.718 174.671 310.682 174.435 312.244 174.056L312.599 174.908C312.173 175.902 311.794 178.955 311.463 184.067C311.132 189.179 310.966 194.504 310.966 200.042C310.966 201.462 311.155 202.48 311.534 203.095C311.913 203.71 312.552 204.018 313.451 204.018C313.972 204.018 314.469 203.994 314.942 203.947C315.415 203.9 315.747 203.876 315.936 203.876L316.078 204.16L315.51 207.213C315.084 207.166 314.279 207.118 313.096 207.071C311.913 207.024 310.611 207 309.191 207C307.96 207 306.54 207.118 304.931 207.355C303.369 207.592 302.351 207.757 301.878 207.852L302.162 204.941ZM336.236 207.852C333.301 207.852 330.698 207.213 328.426 205.935C326.154 204.61 324.403 202.764 323.172 200.397C321.941 197.983 321.326 195.238 321.326 192.161C321.326 188.99 322.036 186.008 323.456 183.215C324.923 180.422 326.864 178.198 329.278 176.541C331.692 174.884 334.272 174.056 337.017 174.056C340.472 174.056 343.099 174.932 344.898 176.683C346.697 178.434 347.596 180.99 347.596 184.351C347.596 185.724 347.454 186.883 347.17 187.83L346.247 188.682H326.651C326.604 193.273 327.503 196.823 329.349 199.332C331.242 201.793 333.869 203.024 337.23 203.024C339.881 203.024 342.768 202.29 345.892 200.823L346.318 200.965L347.099 203.024C345.395 204.255 343.502 205.367 341.419 206.361C339.384 207.355 337.656 207.852 336.236 207.852ZM339.786 185.416C340.496 185.321 340.969 185.156 341.206 184.919C341.443 184.682 341.561 184.209 341.561 183.499C341.561 181.606 341.04 180.162 339.999 179.168C339.005 178.174 337.561 177.677 335.668 177.677C333.443 177.677 331.526 178.434 329.917 179.949C328.355 181.464 327.361 183.499 326.935 186.055L339.786 185.416ZM373.812 204.941C375.232 204.562 376.25 204.018 376.865 203.308C377.481 202.551 377.788 201.557 377.788 200.326L378.072 186.268C378.072 183.901 377.552 182.079 376.51 180.801C375.516 179.523 374.073 178.884 372.179 178.884C370.665 178.884 369.126 179.286 367.564 180.091C366.002 180.848 364.63 181.677 363.446 182.576C363.02 192.374 362.807 198.196 362.807 200.042C362.807 201.509 362.997 202.551 363.375 203.166C363.754 203.734 364.417 204.018 365.363 204.018C365.884 204.018 366.381 203.994 366.854 203.947C367.328 203.9 367.659 203.876 367.848 203.876L367.99 204.16L367.351 207.213C366.925 207.166 366.097 207.118 364.866 207.071C363.636 207.024 362.31 207 360.89 207C359.66 207 358.287 207.047 356.772 207.142C355.305 207.284 354.335 207.379 353.861 207.426L354.216 204.515C355.589 204.278 356.559 203.852 357.127 203.237C357.695 202.622 357.979 201.651 357.979 200.326V183.002C357.979 181.393 357.719 180.28 357.198 179.665C356.678 179.002 355.778 178.671 354.5 178.671H353.719L353.506 178.387L353.719 176.044C355.755 175.713 357.766 175.334 359.754 174.908C361.79 174.435 363.091 174.127 363.659 173.985L364.085 174.553C363.991 174.837 363.849 175.452 363.659 176.399C363.47 177.298 363.352 178.245 363.304 179.239L363.446 179.452C368.842 175.855 372.321 174.056 373.883 174.056C376.865 174.056 379.232 174.884 380.983 176.541C382.735 178.198 383.61 180.422 383.61 183.215C383.61 183.688 383.468 185.866 383.184 189.747C382.806 194.67 382.616 198.101 382.616 200.042C382.616 201.415 382.806 202.432 383.184 203.095C383.563 203.71 384.202 204.018 385.101 204.018C385.622 204.018 386.119 203.994 386.592 203.947C387.066 203.9 387.397 203.876 387.586 203.876L387.728 204.16L387.16 207.213C386.734 207.166 385.93 207.118 384.746 207.071C383.563 207.024 382.261 207 380.841 207C379.611 207 378.191 207.118 376.581 207.355C375.019 207.592 374.002 207.757 373.528 207.852L373.812 204.941ZM404.119 207.852C400.9 207.852 398.628 207.213 397.303 205.935C395.977 204.61 395.315 202.385 395.315 199.261V181.795C395.315 180.517 395.031 179.618 394.463 179.097C393.895 178.576 392.83 178.292 391.268 178.245L390.984 177.819L391.339 175.689C392.711 175.026 394.037 174.222 395.315 173.275C396.64 172.281 397.705 171.429 398.51 170.719C399.362 169.962 399.906 169.465 400.143 169.228L401.563 169.796C401.515 170.033 401.444 170.601 401.35 171.5C401.255 172.399 401.137 173.606 400.995 175.121L411.432 174.908L411.645 175.121L411.006 178.884L400.711 178.671C400.379 183.878 400.214 189.794 400.214 196.421C400.214 198.835 400.616 200.539 401.421 201.533C402.273 202.527 403.716 203.024 405.752 203.024C406.462 203.024 407.172 202.929 407.882 202.74C408.592 202.551 409.183 202.361 409.657 202.172C410.13 201.935 410.438 201.793 410.58 201.746L411.29 203.592C411.006 203.829 410.39 204.278 409.444 204.941C408.544 205.604 407.55 206.266 406.462 206.929C405.42 207.544 404.639 207.852 404.119 207.852ZM429.204 204.941C430.53 204.562 431.453 204.089 431.973 203.521C432.541 202.953 432.873 202.267 432.967 201.462C433.109 200.657 433.18 199.308 433.18 197.415V162.554C433.18 161.087 433.015 160.093 432.683 159.572C432.352 159.051 431.666 158.791 430.624 158.791C430.388 158.791 429.843 158.838 428.991 158.933L428.778 158.791L429.062 156.377C433.038 155.809 436.541 155.123 439.57 154.318L439.996 155.241C439.476 156.046 439.002 161.11 438.576 170.435C438.198 179.76 438.008 189.629 438.008 200.042C438.008 201.462 438.198 202.48 438.576 203.095C438.955 203.71 439.594 204.018 440.493 204.018L442.978 203.876L443.12 204.16L442.552 207.213C439.428 207.071 437.322 207 436.233 207C434.624 207 432.186 207.284 428.92 207.852L429.204 204.941ZM461.803 207.852C458.869 207.852 456.265 207.213 453.993 205.935C451.721 204.61 449.97 202.764 448.739 200.397C447.509 197.983 446.893 195.238 446.893 192.161C446.893 188.99 447.603 186.008 449.023 183.215C450.491 180.422 452.431 178.198 454.845 176.541C457.259 174.884 459.839 174.056 462.584 174.056C466.04 174.056 468.667 174.932 470.465 176.683C472.264 178.434 473.163 180.99 473.163 184.351C473.163 185.724 473.021 186.883 472.737 187.83L471.814 188.682H452.218C452.171 193.273 453.07 196.823 454.916 199.332C456.81 201.793 459.437 203.024 462.797 203.024C465.448 203.024 468.335 202.29 471.459 200.823L471.885 200.965L472.666 203.024C470.962 204.255 469.069 205.367 466.986 206.361C464.951 207.355 463.223 207.852 461.803 207.852ZM465.353 185.416C466.063 185.321 466.537 185.156 466.773 184.919C467.01 184.682 467.128 184.209 467.128 183.499C467.128 181.606 466.608 180.162 465.566 179.168C464.572 178.174 463.129 177.677 461.235 177.677C459.011 177.677 457.094 178.434 455.484 179.949C453.922 181.464 452.928 183.499 452.502 186.055L465.353 185.416ZM488.304 207.852C486.789 207.852 485.393 207.734 484.115 207.497C482.884 207.308 481.914 207.095 481.204 206.858C480.494 206.621 480.044 206.456 479.855 206.361L479.642 205.864C479.784 205.154 479.949 203.687 480.139 201.462C480.328 199.237 480.446 197.533 480.494 196.35L482.979 195.995C482.979 199.119 483.499 201.32 484.541 202.598C485.582 203.876 487.357 204.515 489.866 204.515C491.664 204.515 493.179 204.113 494.41 203.308C495.64 202.503 496.256 201.509 496.256 200.326C496.256 199.143 495.688 198.078 494.552 197.131C493.463 196.137 491.286 194.764 488.02 193.013C485.322 191.64 483.357 190.244 482.127 188.824C480.896 187.404 480.281 185.842 480.281 184.138C480.281 182.245 480.849 180.541 481.985 179.026C483.121 177.464 484.683 176.257 486.671 175.405C488.659 174.506 490.883 174.056 493.345 174.056C494.481 174.056 495.569 174.151 496.611 174.34C497.652 174.482 498.504 174.648 499.167 174.837C499.829 175.026 500.255 175.145 500.445 175.192L500.587 175.547C500.492 176.02 500.279 177.109 499.948 178.813C499.616 180.47 499.38 182.268 499.238 184.209L496.611 184.422C496.611 184.28 496.634 183.996 496.682 183.57C496.729 183.144 496.753 182.742 496.753 182.363C496.753 180.659 496.279 179.428 495.333 178.671C494.433 177.866 492.966 177.464 490.931 177.464C489.321 177.464 487.949 177.843 486.813 178.6C485.724 179.357 485.18 180.28 485.18 181.369C485.18 182.505 485.653 183.57 486.6 184.564C487.594 185.558 489.179 186.623 491.357 187.759C495.191 189.794 497.794 191.522 499.167 192.942C500.587 194.315 501.297 195.9 501.297 197.699C501.297 199.498 500.705 201.178 499.522 202.74C498.338 204.302 496.729 205.556 494.694 206.503C492.706 207.402 490.576 207.852 488.304 207.852ZM533.43 207.852C530.212 207.852 527.94 207.213 526.614 205.935C525.289 204.61 524.626 202.385 524.626 199.261V181.795C524.626 180.517 524.342 179.618 523.774 179.097C523.206 178.576 522.141 178.292 520.579 178.245L520.295 177.819L520.65 175.689C522.023 175.026 523.348 174.222 524.626 173.275C525.952 172.281 527.017 171.429 527.821 170.719C528.673 169.962 529.218 169.465 529.454 169.228L530.874 169.796C530.827 170.033 530.756 170.601 530.661 171.5C530.567 172.399 530.448 173.606 530.306 175.121L540.743 174.908L540.956 175.121L540.317 178.884L530.022 178.671C529.691 183.878 529.525 189.794 529.525 196.421C529.525 198.835 529.928 200.539 530.732 201.533C531.584 202.527 533.028 203.024 535.063 203.024C535.773 203.024 536.483 202.929 537.193 202.74C537.903 202.551 538.495 202.361 538.968 202.172C539.442 201.935 539.749 201.793 539.891 201.746L540.601 203.592C540.317 203.829 539.702 204.278 538.755 204.941C537.856 205.604 536.862 206.266 535.773 206.929C534.732 207.544 533.951 207.852 533.43 207.852ZM544.796 224.111C544.417 224.111 543.802 223.543 542.95 222.407C542.098 221.318 541.672 220.537 541.672 220.064L542.027 219.567C544.677 219.567 547.139 218.455 549.411 216.23C551.73 214.053 553.718 210.976 555.375 207C551.73 195.451 548.795 186.741 546.571 180.872C546.145 179.689 545.529 178.837 544.725 178.316C543.967 177.795 542.973 177.511 541.743 177.464L541.601 177.18L542.027 174.837L547.92 174.908C549.671 174.908 551.399 174.837 553.103 174.695C554.854 174.553 555.966 174.458 556.44 174.411L556.582 174.766L556.156 176.967C554.546 177.014 553.458 177.18 552.89 177.464C552.369 177.701 552.109 178.15 552.109 178.813C552.109 179.57 552.558 181.535 553.458 184.706C554.404 187.877 555.375 191.049 556.369 194.22C557.363 197.344 558.025 199.379 558.357 200.326H558.641C564.084 187.309 566.806 180.233 566.806 179.097C566.806 177.866 565.906 177.251 564.108 177.251H560.842L560.7 176.967L561.126 174.624C561.552 174.671 562.498 174.742 563.966 174.837C565.433 174.884 566.9 174.908 568.368 174.908L574.403 174.837L573.906 177.464C572.864 177.653 572.06 178.032 571.492 178.6C570.971 179.121 570.45 180.091 569.93 181.511L560.913 203.095C558.451 209.059 556.44 213.485 554.878 216.372C553.316 219.259 551.777 221.271 550.263 222.407C548.748 223.59 546.926 224.158 544.796 224.111ZM577.476 221.058C578.518 220.916 579.275 220.703 579.748 220.419C580.269 220.135 580.624 219.662 580.813 218.999C581.003 218.336 581.097 217.319 581.097 215.946C581.097 213.958 581.121 212.254 581.168 210.834L581.239 204.16V183.002C581.239 181.393 580.979 180.28 580.458 179.665C579.938 179.002 579.038 178.671 577.76 178.671H576.979L576.766 178.387L576.979 176.044C579.015 175.713 581.026 175.334 583.014 174.908C585.05 174.435 586.351 174.127 586.919 173.985L587.345 174.553C587.298 174.79 587.18 175.31 586.99 176.115C586.848 176.872 586.73 177.63 586.635 178.387L586.919 178.884C591.369 175.807 594.114 174.269 595.155 174.269C597.853 174.269 600.244 174.908 602.326 176.186C604.409 177.417 606.018 179.168 607.154 181.44C608.29 183.712 608.858 186.315 608.858 189.25C608.858 192.611 608.054 195.711 606.444 198.551C604.835 201.391 602.681 203.663 599.983 205.367C597.285 207.024 594.351 207.852 591.179 207.852C590.138 207.852 589.097 207.805 588.055 207.71C587.061 207.663 586.375 207.615 585.996 207.568L586.067 214.881C586.067 217.058 586.28 218.526 586.706 219.283C587.18 220.088 588.079 220.49 589.404 220.49L591.818 220.419L591.96 220.632L591.392 223.33H584.647C582.943 223.33 581.358 223.401 579.89 223.543C578.47 223.685 577.547 223.78 577.121 223.827L577.476 221.058ZM593.167 203.947C596.339 203.947 598.824 202.882 600.622 200.752C602.468 198.575 603.391 195.616 603.391 191.877C603.391 189.51 602.965 187.357 602.113 185.416C601.309 183.475 600.173 181.937 598.705 180.801C597.285 179.665 595.723 179.097 594.019 179.097C593.073 179.097 591.913 179.428 590.54 180.091C589.168 180.706 587.866 181.535 586.635 182.576C586.257 188.777 586.067 195.451 586.067 202.598C587.014 202.977 588.126 203.308 589.404 203.592C590.73 203.829 591.984 203.947 593.167 203.947ZM628.903 207.852C625.968 207.852 623.365 207.213 621.093 205.935C618.821 204.61 617.07 202.764 615.839 200.397C614.608 197.983 613.993 195.238 613.993 192.161C613.993 188.99 614.703 186.008 616.123 183.215C617.59 180.422 619.531 178.198 621.945 176.541C624.359 174.884 626.939 174.056 629.684 174.056C633.139 174.056 635.766 174.932 637.565 176.683C639.364 178.434 640.263 180.99 640.263 184.351C640.263 185.724 640.121 186.883 639.837 187.83L638.914 188.682H619.318C619.271 193.273 620.17 196.823 622.016 199.332C623.909 201.793 626.536 203.024 629.897 203.024C632.548 203.024 635.435 202.29 638.559 200.823L638.985 200.965L639.766 203.024C638.062 204.255 636.169 205.367 634.086 206.361C632.051 207.355 630.323 207.852 628.903 207.852ZM632.453 185.416C633.163 185.321 633.636 185.156 633.873 184.919C634.11 184.682 634.228 184.209 634.228 183.499C634.228 181.606 633.707 180.162 632.666 179.168C631.672 178.174 630.228 177.677 628.335 177.677C626.11 177.677 624.193 178.434 622.584 179.949C621.022 181.464 620.028 183.499 619.602 186.055L632.453 185.416ZM655.403 207.852C653.889 207.852 652.492 207.734 651.214 207.497C649.984 207.308 649.013 207.095 648.303 206.858C647.593 206.621 647.144 206.456 646.954 206.361L646.741 205.864C646.883 205.154 647.049 203.687 647.238 201.462C647.428 199.237 647.546 197.533 647.593 196.35L650.078 195.995C650.078 199.119 650.599 201.32 651.64 202.598C652.682 203.876 654.457 204.515 656.965 204.515C658.764 204.515 660.279 204.113 661.509 203.308C662.74 202.503 663.355 201.509 663.355 200.326C663.355 199.143 662.787 198.078 661.651 197.131C660.563 196.137 658.385 194.764 655.119 193.013C652.421 191.64 650.457 190.244 649.226 188.824C647.996 187.404 647.38 185.842 647.38 184.138C647.38 182.245 647.948 180.541 649.084 179.026C650.22 177.464 651.782 176.257 653.77 175.405C655.758 174.506 657.983 174.056 660.444 174.056C661.58 174.056 662.669 174.151 663.71 174.34C664.752 174.482 665.604 174.648 666.266 174.837C666.929 175.026 667.355 175.145 667.544 175.192L667.686 175.547C667.592 176.02 667.379 177.109 667.047 178.813C666.716 180.47 666.479 182.268 666.337 184.209L663.71 184.422C663.71 184.28 663.734 183.996 663.781 183.57C663.829 183.144 663.852 182.742 663.852 182.363C663.852 180.659 663.379 179.428 662.432 178.671C661.533 177.866 660.066 177.464 658.03 177.464C656.421 177.464 655.048 177.843 653.912 178.6C652.824 179.357 652.279 180.28 652.279 181.369C652.279 182.505 652.753 183.57 653.699 184.564C654.693 185.558 656.279 186.623 658.456 187.759C662.29 189.794 664.894 191.522 666.266 192.942C667.686 194.315 668.396 195.9 668.396 197.699C668.396 199.498 667.805 201.178 666.621 202.74C665.438 204.302 663.829 205.556 661.793 206.503C659.805 207.402 657.675 207.852 655.403 207.852ZM127.562 295.852C123.87 295.852 121.764 294.172 121.243 290.811L120.746 290.598C115.824 293.959 112.865 295.639 111.871 295.639C109.173 295.639 106.783 295.024 104.7 293.793C102.618 292.515 101.008 290.74 99.8723 288.468C98.7363 286.196 98.1683 283.593 98.1683 280.658C98.1683 277.297 98.9493 274.197 100.511 271.357C102.121 268.517 104.274 266.269 106.972 264.612C109.718 262.908 112.676 262.056 115.847 262.056C117.362 262.056 118.995 262.151 120.746 262.34V250.554C120.746 247.998 119.871 246.72 118.119 246.72C117.788 246.72 117.433 246.767 117.054 246.862C116.676 246.909 116.439 246.957 116.344 247.004L116.628 244.377C118.664 244.093 120.77 243.714 122.947 243.241C125.125 242.768 126.521 242.46 127.136 242.318L127.562 243.241C127.042 244.046 126.568 249.039 126.142 258.222C125.764 267.405 125.574 277.179 125.574 287.545C125.574 288.586 125.835 289.391 126.355 289.959C126.876 290.527 127.586 290.811 128.485 290.811C129.148 290.811 129.787 290.693 130.402 290.456C131.065 290.172 131.586 289.888 131.964 289.604C132.39 289.32 132.651 289.131 132.745 289.036L133.739 290.172C133.597 290.409 133.242 290.929 132.674 291.734C132.106 292.491 131.349 293.296 130.402 294.148C129.503 295 128.556 295.568 127.562 295.852ZM113.007 291.024C114.001 291.024 115.066 290.74 116.202 290.172C117.386 289.604 118.38 289.036 119.184 288.468C119.989 287.853 120.51 287.45 120.746 287.261V267.807C120.604 267.712 120.249 267.547 119.681 267.31C119.113 267.026 118.309 266.766 117.267 266.529C116.273 266.292 115.137 266.174 113.859 266.174C110.688 266.174 108.179 267.263 106.333 269.44C104.535 271.57 103.635 274.505 103.635 278.244C103.635 280.611 104.038 282.764 104.842 284.705C105.694 286.646 106.83 288.184 108.25 289.32C109.718 290.456 111.303 291.024 113.007 291.024ZM151.213 295.852C148.278 295.852 145.675 295.213 143.403 293.935C141.131 292.61 139.38 290.764 138.149 288.397C136.918 285.983 136.303 283.238 136.303 280.161C136.303 276.99 137.013 274.008 138.433 271.215C139.9 268.422 141.841 266.198 144.255 264.541C146.669 262.884 149.249 262.056 151.994 262.056C155.449 262.056 158.076 262.932 159.875 264.683C161.674 266.434 162.573 268.99 162.573 272.351C162.573 273.724 162.431 274.883 162.147 275.83L161.224 276.682H141.628C141.581 281.273 142.48 284.823 144.326 287.332C146.219 289.793 148.846 291.024 152.207 291.024C154.858 291.024 157.745 290.29 160.869 288.823L161.295 288.965L162.076 291.024C160.372 292.255 158.479 293.367 156.396 294.361C154.361 295.355 152.633 295.852 151.213 295.852ZM154.763 273.416C155.473 273.321 155.946 273.156 156.183 272.919C156.42 272.682 156.538 272.209 156.538 271.499C156.538 269.606 156.017 268.162 154.976 267.168C153.982 266.174 152.538 265.677 150.645 265.677C148.42 265.677 146.503 266.434 144.894 267.949C143.332 269.464 142.338 271.499 141.912 274.055L154.763 273.416ZM183.268 292.515C185.966 292.136 187.315 290.74 187.315 288.326V269.156C187.268 268.02 186.937 267.286 186.321 266.955C185.753 266.576 184.594 266.34 182.842 266.245L182.558 265.819L183.055 263.405L187.315 262.624V262.34C187.315 258.269 187.978 254.719 189.303 251.69C190.676 248.661 192.569 246.341 194.983 244.732C197.445 243.123 200.332 242.318 203.645 242.318C205.065 242.318 206.367 242.413 207.55 242.602C208.781 242.791 209.728 243.004 210.39 243.241C211.1 243.43 211.55 243.572 211.739 243.667L211.881 244.306C211.739 244.543 211.432 245.111 210.958 246.01C210.532 246.862 210.106 247.832 209.68 248.921L208.899 249.134C208.71 248.992 208.237 248.708 207.479 248.282C206.769 247.856 205.799 247.454 204.568 247.075C203.385 246.696 202.107 246.507 200.734 246.507C198.036 246.507 196.025 247.596 194.699 249.773C193.374 251.903 192.664 255.193 192.569 259.642L192.498 263.121C194.96 263.121 197.066 263.097 198.817 263.05C200.569 263.003 201.728 262.955 202.296 262.908L202.509 263.121L201.799 266.884C201.279 266.837 200.166 266.789 198.462 266.742C196.806 266.695 194.794 266.671 192.427 266.671L192.143 288.042C192.143 289.367 192.427 290.361 192.995 291.024C193.611 291.639 194.534 291.947 195.764 291.947C196.9 291.947 197.823 291.923 198.533 291.876C199.291 291.829 199.788 291.805 200.024 291.805L200.166 292.089L199.669 295.142C199.007 295.142 197.8 295.118 196.048 295.071C194.297 295.024 192.569 295 190.865 295C189.209 295 187.576 295.024 185.966 295.071C184.404 295.166 183.387 295.237 182.913 295.284L183.268 292.515ZM228.802 295.852C224.968 295.852 222.861 293.935 222.483 290.101L222.199 290.03C220.495 291.734 218.933 293.083 217.513 294.077C216.14 295.071 215.099 295.568 214.389 295.568C211.738 295.568 209.561 294.74 207.857 293.083C206.153 291.426 205.301 289.32 205.301 286.764C205.301 285.391 205.632 284.184 206.295 283.143C207.005 282.102 207.928 281.415 209.064 281.084L222.554 277.392L222.625 274.268C222.625 271.901 222.08 270.055 220.992 268.73C219.903 267.405 218.365 266.742 216.377 266.742C215.051 266.742 213.655 267.05 212.188 267.665C210.72 268.28 209.277 269.156 207.857 270.292L207.502 270.079L206.65 267.026C208.874 265.748 211.099 264.612 213.324 263.618C215.596 262.577 217.229 262.056 218.223 262.056C221.299 262.056 223.713 262.861 225.465 264.47C227.216 266.079 228.092 268.328 228.092 271.215C228.092 272.256 227.926 274.386 227.595 277.605C227.074 282.812 226.814 286.125 226.814 287.545C226.814 288.586 227.074 289.391 227.595 289.959C228.115 290.527 228.825 290.811 229.725 290.811C230.482 290.811 231.263 290.645 232.068 290.314C232.872 289.935 233.511 289.509 233.985 289.036L234.979 290.172C234.269 291.355 233.346 292.515 232.21 293.651C231.121 294.74 229.985 295.473 228.802 295.852ZM215.596 290.74C216.495 290.74 217.536 290.432 218.72 289.817C219.95 289.154 221.063 288.326 222.057 287.332L222.412 280.09L212.756 283.001C211.383 283.427 210.697 284.421 210.697 285.983C210.697 287.356 211.146 288.492 212.046 289.391C212.992 290.29 214.176 290.74 215.596 290.74ZM239.652 292.444C241.072 292.302 242.019 291.852 242.492 291.095C242.965 290.29 243.202 288.776 243.202 286.551V270.931C243.202 269.369 242.989 268.257 242.563 267.594C242.137 266.931 241.451 266.6 240.504 266.6C240.125 266.6 239.794 266.624 239.51 266.671C239.273 266.718 239.108 266.766 239.013 266.813L238.658 266.316L238.871 264.115C240.67 263.784 242.563 263.381 244.551 262.908C246.586 262.435 247.888 262.127 248.456 261.985L248.953 262.411C248.858 262.837 248.716 263.831 248.527 265.393C248.338 266.908 248.267 268.351 248.314 269.724L248.598 269.937C250.018 267.712 251.675 265.89 253.568 264.47C255.509 263.05 257.189 262.34 258.609 262.34C259.272 262.34 259.769 262.387 260.1 262.482C260.479 262.529 260.715 262.577 260.81 262.624L261.023 262.908C260.928 263.571 260.715 264.991 260.384 267.168C260.1 269.298 259.934 271.262 259.887 273.061L257.118 273.274C257.118 271.333 256.976 270.055 256.692 269.44C256.455 268.777 255.958 268.446 255.201 268.446C254.16 268.446 253.047 268.896 251.864 269.795C250.681 270.647 249.592 271.807 248.598 273.274C248.551 274.647 248.456 276.919 248.314 280.09C248.172 283.261 248.077 285.817 248.03 287.758C248.03 289.367 248.267 290.456 248.74 291.024C249.213 291.592 250.113 291.876 251.438 291.876C252.053 291.876 252.669 291.852 253.284 291.805C253.899 291.758 254.325 291.734 254.562 291.734L254.633 292.018L253.994 295.142C253.521 295.142 252.574 295.118 251.154 295.071C249.734 295.024 248.267 295 246.752 295C245.001 295 243.415 295.024 241.995 295.071C240.575 295.166 239.676 295.237 239.297 295.284L239.652 292.444ZM266.051 292.941C267.471 292.562 268.488 292.018 269.104 291.308C269.719 290.551 270.027 289.557 270.027 288.326V270.292C270.027 267.736 269.151 266.458 267.4 266.458C267.068 266.458 266.713 266.505 266.335 266.6C265.956 266.647 265.719 266.695 265.625 266.742L265.909 264.115C267.897 263.831 269.932 263.452 272.015 262.979C274.145 262.506 275.517 262.198 276.133 262.056L276.488 262.908C276.062 263.902 275.683 266.955 275.352 272.067C275.02 277.132 274.855 282.457 274.855 288.042C274.855 289.415 275.044 290.432 275.423 291.095C275.801 291.71 276.44 292.018 277.34 292.018C277.86 292.018 278.357 291.994 278.831 291.947C279.304 291.9 279.635 291.876 279.825 291.876L279.967 292.16L279.399 295.213C278.973 295.166 278.168 295.118 276.985 295.071C275.801 295.024 274.5 295 273.08 295C271.849 295 270.429 295.118 268.82 295.355C267.258 295.592 266.24 295.757 265.767 295.852L266.051 292.941ZM272.015 253.678C270.926 253.678 270.074 253.323 269.459 252.613C268.843 251.903 268.536 251.051 268.536 250.057C268.536 248.921 268.938 247.951 269.743 247.146C270.547 246.294 271.541 245.868 272.725 245.868C273.813 245.868 274.665 246.223 275.281 246.933C275.896 247.643 276.204 248.495 276.204 249.489C276.204 250.625 275.801 251.619 274.997 252.471C274.192 253.276 273.198 253.678 272.015 253.678ZM305.898 292.941C307.318 292.562 308.335 292.018 308.951 291.308C309.566 290.551 309.874 289.557 309.874 288.326L310.158 274.268C310.158 271.901 309.637 270.079 308.596 268.801C307.602 267.523 306.158 266.884 304.265 266.884C302.75 266.884 301.212 267.286 299.65 268.091C298.088 268.848 296.715 269.677 295.532 270.576C295.106 280.374 294.893 286.196 294.893 288.042C294.893 289.509 295.082 290.551 295.461 291.166C295.839 291.734 296.502 292.018 297.449 292.018C297.969 292.018 298.466 291.994 298.94 291.947C299.413 291.9 299.744 291.876 299.934 291.876L300.076 292.16L299.437 295.213C299.011 295.166 298.182 295.118 296.952 295.071C295.721 295.024 294.396 295 292.976 295C291.745 295 290.372 295.047 288.858 295.142C287.39 295.284 286.42 295.379 285.947 295.426L286.302 292.515C287.674 292.278 288.645 291.852 289.213 291.237C289.781 290.622 290.065 289.651 290.065 288.326V271.002C290.065 269.393 289.804 268.28 289.284 267.665C288.763 267.002 287.864 266.671 286.586 266.671H285.805L285.592 266.387L285.805 264.044C287.84 263.713 289.852 263.334 291.84 262.908C293.875 262.435 295.177 262.127 295.745 261.985L296.171 262.553C296.076 262.837 295.934 263.452 295.745 264.399C295.555 265.298 295.437 266.245 295.39 267.239L295.532 267.452C300.928 263.855 304.407 262.056 305.969 262.056C308.951 262.056 311.317 262.884 313.069 264.541C314.82 266.198 315.696 268.422 315.696 271.215C315.696 271.688 315.554 273.866 315.27 277.747C314.891 282.67 314.702 286.101 314.702 288.042C314.702 289.415 314.891 290.432 315.27 291.095C315.648 291.71 316.287 292.018 317.187 292.018C317.707 292.018 318.204 291.994 318.678 291.947C319.151 291.9 319.482 291.876 319.672 291.876L319.814 292.16L319.246 295.213C318.82 295.166 318.015 295.118 316.832 295.071C315.648 295.024 314.347 295 312.927 295C311.696 295 310.276 295.118 308.667 295.355C307.105 295.592 306.087 295.757 305.614 295.852L305.898 292.941ZM339.044 295.852C336.109 295.852 333.506 295.213 331.234 293.935C328.962 292.61 327.211 290.764 325.98 288.397C324.749 285.983 324.134 283.238 324.134 280.161C324.134 276.99 324.844 274.008 326.264 271.215C327.731 268.422 329.672 266.198 332.086 264.541C334.5 262.884 337.08 262.056 339.825 262.056C343.28 262.056 345.907 262.932 347.706 264.683C349.505 266.434 350.404 268.99 350.404 272.351C350.404 273.724 350.262 274.883 349.978 275.83L349.055 276.682H329.459C329.412 281.273 330.311 284.823 332.157 287.332C334.05 289.793 336.677 291.024 340.038 291.024C342.689 291.024 345.576 290.29 348.7 288.823L349.126 288.965L349.907 291.024C348.203 292.255 346.31 293.367 344.227 294.361C342.192 295.355 340.464 295.852 339.044 295.852ZM342.594 273.416C343.304 273.321 343.777 273.156 344.014 272.919C344.251 272.682 344.369 272.209 344.369 271.499C344.369 269.606 343.848 268.162 342.807 267.168C341.813 266.174 340.369 265.677 338.476 265.677C336.251 265.677 334.334 266.434 332.725 267.949C331.163 269.464 330.169 271.499 329.743 274.055L342.594 273.416ZM399.429 295.852C395.737 295.852 393.63 294.172 393.11 290.811L392.613 290.598C387.69 293.959 384.732 295.639 383.738 295.639C381.04 295.639 378.649 295.024 376.567 293.793C374.484 292.515 372.875 290.74 371.739 288.468C370.603 286.196 370.035 283.593 370.035 280.658C370.035 277.297 370.816 274.197 372.378 271.357C373.987 268.517 376.141 266.269 378.839 264.612C381.584 262.908 384.542 262.056 387.714 262.056C389.228 262.056 390.861 262.151 392.613 262.34V250.554C392.613 247.998 391.737 246.72 389.986 246.72C389.654 246.72 389.299 246.767 388.921 246.862C388.542 246.909 388.305 246.957 388.211 247.004L388.495 244.377C390.53 244.093 392.636 243.714 394.814 243.241C396.991 242.768 398.387 242.46 399.003 242.318L399.429 243.241C398.908 244.046 398.435 249.039 398.009 258.222C397.63 267.405 397.441 277.179 397.441 287.545C397.441 288.586 397.701 289.391 398.222 289.959C398.742 290.527 399.452 290.811 400.352 290.811C401.014 290.811 401.653 290.693 402.269 290.456C402.931 290.172 403.452 289.888 403.831 289.604C404.257 289.32 404.517 289.131 404.612 289.036L405.606 290.172C405.464 290.409 405.109 290.929 404.541 291.734C403.973 292.491 403.215 293.296 402.269 294.148C401.369 295 400.423 295.568 399.429 295.852ZM384.874 291.024C385.868 291.024 386.933 290.74 388.069 290.172C389.252 289.604 390.246 289.036 391.051 288.468C391.855 287.853 392.376 287.45 392.613 287.261V267.807C392.471 267.712 392.116 267.547 391.548 267.31C390.98 267.026 390.175 266.766 389.134 266.529C388.14 266.292 387.004 266.174 385.726 266.174C382.554 266.174 380.046 267.263 378.2 269.44C376.401 271.57 375.502 274.505 375.502 278.244C375.502 280.611 375.904 282.764 376.709 284.705C377.561 286.646 378.697 288.184 380.117 289.32C381.584 290.456 383.17 291.024 384.874 291.024ZM423.079 295.852C420.145 295.852 417.541 295.213 415.269 293.935C412.997 292.61 411.246 290.764 410.015 288.397C408.785 285.983 408.169 283.238 408.169 280.161C408.169 276.99 408.879 274.008 410.299 271.215C411.767 268.422 413.707 266.198 416.121 264.541C418.535 262.884 421.115 262.056 423.86 262.056C427.316 262.056 429.943 262.932 431.741 264.683C433.54 266.434 434.439 268.99 434.439 272.351C434.439 273.724 434.297 274.883 434.013 275.83L433.09 276.682H413.494C413.447 281.273 414.346 284.823 416.192 287.332C418.086 289.793 420.713 291.024 424.073 291.024C426.724 291.024 429.611 290.29 432.735 288.823L433.161 288.965L433.942 291.024C432.238 292.255 430.345 293.367 428.262 294.361C426.227 295.355 424.499 295.852 423.079 295.852ZM426.629 273.416C427.339 273.321 427.813 273.156 428.049 272.919C428.286 272.682 428.404 272.209 428.404 271.499C428.404 269.606 427.884 268.162 426.842 267.168C425.848 266.174 424.405 265.677 422.511 265.677C420.287 265.677 418.37 266.434 416.76 267.949C415.198 269.464 414.204 271.499 413.778 274.055L426.629 273.416ZM467.347 295.852C465.359 295.852 463.323 295.71 461.241 295.426C459.205 295.189 458.188 295.047 458.188 295L457.549 294.432V250.554C457.549 247.998 456.673 246.72 454.922 246.72C454.543 246.72 454.212 246.744 453.928 246.791C453.644 246.838 453.454 246.886 453.36 246.933L453.147 246.72L453.431 244.377C455.466 244.093 457.572 243.714 459.75 243.241C461.927 242.768 463.323 242.46 463.939 242.318L464.365 243.241C464.033 243.714 463.726 246.128 463.442 250.483C463.158 254.79 462.921 260.305 462.732 267.026C464.862 265.511 466.684 264.304 468.199 263.405C469.761 262.506 470.802 262.056 471.323 262.056C473.973 262.056 476.34 262.695 478.423 263.973C480.505 265.251 482.115 267.05 483.251 269.369C484.434 271.641 485.026 274.268 485.026 277.25C485.026 280.658 484.221 283.782 482.612 286.622C481.05 289.462 478.92 291.71 476.222 293.367C473.524 295.024 470.565 295.852 467.347 295.852ZM469.335 291.947C472.506 291.947 474.991 290.882 476.79 288.752C478.636 286.575 479.559 283.616 479.559 279.877C479.559 277.51 479.133 275.333 478.281 273.345C477.476 271.357 476.34 269.795 474.873 268.659C473.453 267.476 471.891 266.884 470.187 266.884C469.24 266.884 468.033 267.263 466.566 268.02C465.098 268.73 463.773 269.629 462.59 270.718L462.377 290.456C463.229 290.882 464.317 291.237 465.643 291.521C466.968 291.805 468.199 291.947 469.335 291.947ZM489.769 292.941C491.095 292.562 492.018 292.089 492.538 291.521C493.106 290.953 493.438 290.267 493.532 289.462C493.674 288.657 493.745 287.308 493.745 285.415V250.554C493.745 249.087 493.58 248.093 493.248 247.572C492.917 247.051 492.231 246.791 491.189 246.791C490.953 246.791 490.408 246.838 489.556 246.933L489.343 246.791L489.627 244.377C493.603 243.809 497.106 243.123 500.135 242.318L500.561 243.241C500.041 244.046 499.567 249.11 499.141 258.435C498.763 267.76 498.573 277.629 498.573 288.042C498.573 289.462 498.763 290.48 499.141 291.095C499.52 291.71 500.159 292.018 501.058 292.018L503.543 291.876L503.685 292.16L503.117 295.213C499.993 295.071 497.887 295 496.798 295C495.189 295 492.751 295.284 489.485 295.852L489.769 292.941ZM522.368 295.852C519.434 295.852 516.83 295.213 514.558 293.935C512.286 292.61 510.535 290.764 509.304 288.397C508.074 285.983 507.458 283.238 507.458 280.161C507.458 276.99 508.168 274.008 509.588 271.215C511.056 268.422 512.996 266.198 515.41 264.541C517.824 262.884 520.404 262.056 523.149 262.056C526.605 262.056 529.232 262.932 531.03 264.683C532.829 266.434 533.728 268.99 533.728 272.351C533.728 273.724 533.586 274.883 533.302 275.83L532.379 276.682H512.783C512.736 281.273 513.635 284.823 515.481 287.332C517.375 289.793 520.002 291.024 523.362 291.024C526.013 291.024 528.9 290.29 532.024 288.823L532.45 288.965L533.231 291.024C531.527 292.255 529.634 293.367 527.551 294.361C525.516 295.355 523.788 295.852 522.368 295.852ZM525.918 273.416C526.628 273.321 527.102 273.156 527.338 272.919C527.575 272.682 527.693 272.209 527.693 271.499C527.693 269.606 527.173 268.162 526.131 267.168C525.137 266.174 523.694 265.677 521.8 265.677C519.576 265.677 517.659 266.434 516.049 267.949C514.487 269.464 513.493 271.499 513.067 274.055L525.918 273.416ZM518.605 257.867L517.185 256.518C519.315 254.199 521.469 251.761 523.646 249.205C525.824 246.649 527.22 244.992 527.835 244.235L528.545 244.377L531.243 247.288L531.172 248.069C530.462 248.59 528.924 249.82 526.557 251.761C524.191 253.654 521.753 255.737 519.244 258.009L518.605 257.867ZM558.471 280.587L556.767 272.067L556.98 271.073L565.429 265.677C568.127 263.831 569.476 261.796 569.476 259.571C569.476 256.778 568.198 254.648 565.642 253.181C563.086 251.666 559.559 250.791 555.063 250.554L554.921 249.773L557.264 246.01L558.258 245.726C561.145 245.821 563.796 246.389 566.21 247.43C568.671 248.471 570.612 249.868 572.032 251.619C573.452 253.37 574.162 255.311 574.162 257.441C574.162 259.476 573.759 261.228 572.955 262.695C572.15 264.162 571.156 265.393 569.973 266.387C568.837 267.334 567.275 268.446 565.287 269.724C563.961 270.576 562.991 271.239 562.376 271.712L562.163 272.351L563.654 279.096L563.441 279.664L559.11 280.871L558.471 280.587ZM560.956 295.852C559.678 295.852 558.684 295.473 557.974 294.716C557.311 293.911 556.98 292.941 556.98 291.805C556.98 290.574 557.382 289.533 558.187 288.681C558.991 287.829 560.056 287.403 561.382 287.403C562.66 287.403 563.654 287.805 564.364 288.61C565.074 289.367 565.429 290.314 565.429 291.45C565.429 292.681 565.003 293.722 564.151 294.574C563.346 295.426 562.281 295.852 560.956 295.852Z" fill="#121212"/>
<g filter="url(#filter4_d)">
<path d="M57.609 30.3H6.09902V42.42H25.39V101H38.318V42.42H57.609V30.3ZM112.186 77.972H105.419V32.825H92.9961L60.2721 79.386V89.284H93.6021V101H105.419V89.284H112.186V77.972ZM73.2001 77.972L93.1981 49.49H93.6021V77.972H73.2001ZM142.896 56.055C137.947 56.055 133.503 57.469 130.574 59.994H130.372L131.988 44.238H158.349V32.825H122.696L119.161 71.407H129.463C131.685 67.973 135.523 66.054 139.967 66.054C147.037 66.054 151.481 70.7 151.481 78.174C151.481 86.153 146.734 91.001 139.058 91.001C132.897 91.001 127.847 88.274 123.908 82.517L115.323 91.001C120.474 98.475 128.756 102.515 139.058 102.515C154.814 102.515 164.409 93.324 164.409 78.275C164.409 64.842 155.925 56.055 142.896 56.055ZM185.837 86.961H171.899V101H177.555L172.101 116.453H177.757L185.837 101V86.961ZM268.091 30.3H216.581V42.42H235.872V101H248.8V42.42H268.091V30.3ZM297.217 102.515C311.963 102.515 322.265 92.617 322.265 78.376C322.265 64.64 313.377 55.348 300.55 55.348C295.601 55.348 291.965 56.964 288.026 60.802L287.723 60.6L312.165 32.32H297.015L284.39 47.369C275.3 58.075 271.563 66.862 271.563 77.164C271.563 92.617 281.461 102.515 297.217 102.515ZM296.914 91.001C289.339 91.001 284.39 86.052 284.39 78.477C284.39 71.003 289.339 65.953 296.813 65.953C304.388 65.953 309.337 70.902 309.337 78.477C309.337 85.951 304.388 91.001 296.914 91.001ZM351.801 56.055C346.852 56.055 342.408 57.469 339.479 59.994H339.277L340.893 44.238H367.254V32.825H331.601L328.066 71.407H338.368C340.59 67.973 344.428 66.054 348.872 66.054C355.942 66.054 360.386 70.7 360.386 78.174C360.386 86.153 355.639 91.001 347.963 91.001C341.802 91.001 336.752 88.274 332.813 82.517L324.228 91.001C329.379 98.475 337.661 102.515 347.963 102.515C363.719 102.515 373.314 93.324 373.314 78.275C373.314 64.842 364.83 56.055 351.801 56.055ZM394.741 86.961H380.803V101H386.459L381.005 116.453H386.661L394.741 101V86.961ZM476.996 30.3H425.486V42.42H444.777V101H457.705V42.42H476.996V30.3ZM500.667 32.825H484.103V44.945H488.143V101H500.667V32.825ZM533.61 32.825H517.046V44.945H521.086V101H533.61V32.825ZM570.566 31.31C553.901 31.31 544.609 44.036 544.609 66.862C544.609 89.688 553.901 102.515 570.566 102.515C587.13 102.515 596.523 89.688 596.523 66.862C596.523 44.036 587.231 31.31 570.566 31.31ZM570.566 43.026C578.747 43.026 583.595 51.813 583.595 66.862C583.595 81.911 578.747 90.799 570.566 90.799C562.284 90.799 557.436 81.911 557.436 66.862C557.436 51.813 562.284 43.026 570.566 43.026ZM615.284 86.961H601.245V101H615.284V86.961ZM639.055 86.961H625.016V101H639.055V86.961ZM662.825 86.961H648.786V101H662.825V86.961Z" fill="#121212"/>
</g>
<defs>
<filter id="filter0_d" x="10.6091" y="333.601" width="130.664" height="308.394" filterUnits="userSpaceOnUse" color-interpolation-filters="sRGB">
<feFlood flood-opacity="0" result="BackgroundImageFix"/>
<feColorMatrix in="SourceAlpha" type="matrix" values="0 0 0 0 0 0 0 0 0 0 0 0 0 0 0 0 0 0 127 0"/>
<feOffset dx="-3" dy="2"/>
<feColorMatrix type="matrix" values="0 0 0 0 1 0 0 0 0 1 0 0 0 0 1 0 0 0 1 0"/>
<feBlend mode="normal" in2="BackgroundImageFix" result="effect1_dropShadow"/>
<feBlend mode="normal" in="SourceGraphic" in2="effect1_dropShadow" result="shape"/>
</filter>
<filter id="filter1_d" x="111.396" y="387.382" width="49.6043" height="264.115" filterUnits="userSpaceOnUse" color-interpolation-filters="sRGB">
<feFlood flood-opacity="0" result="BackgroundImageFix"/>
<feColorMatrix in="SourceAlpha" type="matrix" values="0 0 0 0 0 0 0 0 0 0 0 0 0 0 0 0 0 0 127 0"/>
<feOffset dx="-3" dy="2"/>
<feColorMatrix type="matrix" values="0 0 0 0 1 0 0 0 0 1 0 0 0 0 1 0 0 0 1 0"/>
<feBlend mode="normal" in2="BackgroundImageFix" result="effect1_dropShadow"/>
<feBlend mode="normal" in="SourceGraphic" in2="effect1_dropShadow" result="shape"/>
</filter>
<filter id="filter2_d" x="241.8" y="420.128" width="164.2" height="158.634" filterUnits="userSpaceOnUse" color-interpolation-filters="sRGB">
<feFlood flood-opacity="0" result="BackgroundImageFix"/>
<feColorMatrix in="SourceAlpha" type="matrix" values="0 0 0 0 0 0 0 0 0 0 0 0 0 0 0 0 0 0 127 0"/>
<feOffset dx="-3" dy="2"/>
<feColorMatrix type="matrix" values="0 0 0 0 1 0 0 0 0 1 0 0 0 0 1 0 0 0 1 0"/>
<feBlend mode="normal" in2="BackgroundImageFix" result="effect1_dropShadow"/>
<feBlend mode="normal" in="SourceGraphic" in2="effect1_dropShadow" result="shape"/>
</filter>
<filter id="filter3_d" x="475.391" y="383.359" width="188.609" height="251.765" filterUnits="userSpaceOnUse" color-interpolation-filters="sRGB">
<feFlood flood-opacity="0" result="BackgroundImageFix"/>
<feColorMatrix in="SourceAlpha" type="matrix" values="0 0 0 0 0 0 0 0 0 0 0 0 0 0 0 0 0 0 127 0"/>
<feOffset dx="-4" dy="3"/>
<feColorMatrix type="matrix" values="0 0 0 0 1 0 0 0 0 1 0 0 0 0 1 0 0 0 1 0"/>
<feBlend mode="normal" in2="BackgroundImageFix" result="effect1_dropShadow"/>
<feBlend mode="normal" in="SourceGraphic" in2="effect1_dropShadow" result="shape"/>
</filter>
<filter id="filter4_d" x="1.099" y="30.3" width="661.726" height="90.153" filterUnits="userSpaceOnUse" color-interpolation-filters="sRGB">
<feFlood flood-opacity="0" result="BackgroundImageFix"/>
<feColorMatrix in="SourceAlpha" type="matrix" values="0 0 0 0 0 0 0 0 0 0 0 0 0 0 0 0 0 0 127 0"/>
<feOffset dx="-5" dy="4"/>
<feColorMatrix type="matrix" values="0 0 0 0 1 0 0 0 0 1 0 0 0 0 1 0 0 0 1 0"/>
<feBlend mode="normal" in2="BackgroundImageFix" result="effect1_dropShadow"/>
<feBlend mode="normal" in="SourceGraphic" in2="effect1_dropShadow" result="shape"/>
</filter>
</defs>
</svg>
